SplineFontDB: 3.2
FontName: IRHoma
FullName: IRHoma
FamilyName: IRHoma
Weight: Book
Copyright: Copyright (c) 2022, Information Technology Organization of Iran (ito.gov.ir)
Version: 1.001
ItalicAngle: 0
UnderlinePosition: -100
UnderlineWidth: 60
Ascent: 1638
Descent: 410
InvalidEm: 0
sfntRevision: 0x00010042
LayerCount: 2
Layer: 0 1 "Back" 1
Layer: 1 1 "Fore" 0
XUID: [1021 420 722297922 8834694]
StyleMap: 0x0040
FSType: 0
OS2Version: 3
OS2_WeightWidthSlopeOnly: 0
OS2_UseTypoMetrics: 0
CreationTime: 1353403413
ModificationTime: 1662627507
PfmFamily: 17
TTFWeight: 400
TTFWidth: 5
LineGap: 100
VLineGap: 0
Panose: 2 0 5 3 0 0 0 2 0 2
OS2TypoAscent: 2616
OS2TypoAOffset: 0
OS2TypoDescent: -1334
OS2TypoDOffset: 0
OS2TypoLinegap: 1500
OS2WinAscent: 2616
OS2WinAOffset: 0
OS2WinDescent: 1334
OS2WinDOffset: 0
HheadAscent: 2616
HheadAOffset: 0
HheadDescent: -1334
HheadDOffset: 0
OS2SubXSize: 1434
OS2SubYSize: 1331
OS2SubXOff: 0
OS2SubYOff: 293
OS2SupXSize: 1434
OS2SupYSize: 1331
OS2SupXOff: 0
OS2SupYOff: 930
OS2StrikeYSize: 50
OS2StrikeYPos: 250
OS2CapHeight: 2625
OS2XHeight: 436
OS2FamilyClass: 2048
OS2Vendor: 'PARS'
OS2CodePages: 20000041.00000000
OS2UnicodeRanges: 00002003.00000000.00000000.00000000
Lookup: 1 1 0 "'isol' Isolated Forms in Arabic lookup 0" { "'isol' Isolated Forms in Arabic lookup 0 subtable"  } ['isol' ('arab' <'dflt' > ) ]
Lookup: 1 1 0 "'init' Initial Forms in Arabic lookup 1" { "'init' Initial Forms in Arabic lookup 1 subtable"  } ['init' ('arab' <'dflt' > ) ]
Lookup: 1 1 0 "'fina' Terminal Forms in Arabic lookup 2" { "'fina' Terminal Forms in Arabic lookup 2 subtable"  } ['fina' ('arab' <'dflt' > ) ]
Lookup: 1 1 0 "'medi' Medial Forms in Arabic lookup 3" { "'medi' Medial Forms in Arabic lookup 3 subtable"  } ['medi' ('arab' <'dflt' > ) ]
Lookup: 4 1 0 "'ccmp' Glyph Composition/Decomposition in Arabic lookup 4" { "'ccmp' Glyph Composition/Decomposition in Arabic lookup 4 subtable"  } ['ccmp' ('arab' <'dflt' > ) ]

StartChar: quotedbl
Encoding: 34 34 4
Width: 580
Flags: W
LayerCount: 2
Fore
SplineSet
90 1362 m 0,0,1
 90 1470 90 1470 174 1470 c 0,2,3
 207 1470 207 1470 229.5 1438.5 c 128,-1,4
 252 1407 252 1407 252 1372 c 0,5,6
 252 1202 252 1202 215 1030 c 1,7,-1
 135 1030 l 1,8,9
 90 1262 90 1262 90 1362 c 0,0,1
334 1354 m 0,10,11
 334 1395 334 1395 358.5 1432.5 c 128,-1,12
 383 1470 383 1470 422 1470 c 0,13,14
 494 1470 494 1470 494 1378 c 0,15,16
 494 1210 494 1210 453 1030 c 1,17,-1
 383 1030 l 1,18,19
 334 1241 334 1241 334 1354 c 0,10,11
EndSplineSet
EndChar

StartChar: quotesingle
Encoding: 39 39 5
Width: 586
Flags: W
LayerCount: 2
Fore
SplineSet
231 1393 m 0,0,1
 231 1474 231 1474 315 1474 c 0,2,3
 357 1472 357 1472 377.5 1448 c 128,-1,4
 398 1424 398 1424 398 1393 c 0,5,6
 398 1313 398 1313 377 1165.5 c 128,-1,7
 356 1018 356 1018 356 945 c 1,8,-1
 270 945 l 1,9,10
 270 1018 270 1018 250.5 1165.5 c 128,-1,11
 231 1313 231 1313 231 1393 c 0,0,1
EndSplineSet
EndChar

StartChar: asterisk
Encoding: 42 42 6
Width: 1126
Flags: W
LayerCount: 2
Fore
SplineSet
568 347 m 1,0,-1
 574 687 l 1,1,-1
 355 467 l 1,2,-1
 250 467 l 1,3,-1
 527 746 l 1,4,-1
 203 746 l 1,5,-1
 223 839 l 1,6,-1
 547 839 l 1,7,-1
 277 1104 l 1,8,-1
 370 1104 l 1,9,-1
 579 899 l 1,10,-1
 585 1199 l 1,11,-1
 704 1239 l 1,12,-1
 699 912 l 1,13,-1
 905 1104 l 1,14,-1
 1013 1104 l 1,15,-1
 730 839 l 1,16,-1
 1065 839 l 1,17,-1
 1043 746 l 1,18,-1
 729 746 l 1,19,-1
 1002 467 l 1,20,-1
 910 467 l 1,21,-1
 696 687 l 1,22,-1
 688 386 l 1,23,-1
 568 347 l 1,0,-1
EndSplineSet
EndChar

StartChar: plus
Encoding: 43 43 7
Width: 1253
GlyphClass: 2
Flags: W
LayerCount: 2
Fore
SplineSet
1149 578 m 1,0,-1
 707 578 l 1,1,-1
 707 141 l 1,2,-1
 547 141 l 1,3,-1
 547 578 l 1,4,-1
 109 578 l 1,5,-1
 109 745 l 1,6,-1
 547 745 l 1,7,-1
 547 1186 l 1,8,-1
 707 1186 l 1,9,-1
 707 745 l 1,10,-1
 1149 745 l 1,11,-1
 1149 578 l 1,0,-1
EndSplineSet
EndChar

StartChar: hyphen
Encoding: 45 45 8
Width: 1360
Flags: W
LayerCount: 2
Fore
SplineSet
182 721 m 1,0,-1
 1167 721 l 1,1,-1
 1167 573 l 1,2,-1
 182 573 l 1,3,-1
 182 721 l 1,0,-1
EndSplineSet
EndChar

StartChar: period
Encoding: 46 46 9
Width: 723
GlyphClass: 2
Flags: W
LayerCount: 2
Fore
SplineSet
300 142 m 0,0,1
 300 203 300 203 343.5 247.5 c 128,-1,2
 387 292 387 292 445 292 c 0,3,4
 506 292 506 292 550.5 247.5 c 128,-1,5
 595 203 595 203 595 142 c 0,6,7
 595 84 595 84 550.5 40.5 c 128,-1,8
 506 -3 506 -3 445 -3 c 0,9,10
 387 -3 387 -3 343.5 40.5 c 128,-1,11
 300 84 300 84 300 142 c 0,0,1
EndSplineSet
EndChar

StartChar: slash
Encoding: 47 47 10
Width: 1122
Flags: W
LayerCount: 2
Fore
SplineSet
1025 1288 m 1,0,-1
 310 -5 l 1,1,-1
 117 -5 l 1,2,-1
 823 1288 l 1,3,-1
 1025 1288 l 1,0,-1
EndSplineSet
EndChar

StartChar: less
Encoding: 60 60 11
Width: 1117
Flags: W
LayerCount: 2
Fore
SplineSet
955 58 m 1,0,-1
 150 444 l 1,1,-1
 150 534 l 1,2,-1
 955 918 l 1,3,-1
 955 784 l 1,4,-1
 331 489 l 1,5,-1
 955 192 l 1,6,-1
 955 58 l 1,0,-1
EndSplineSet
EndChar

StartChar: equal
Encoding: 61 61 12
Width: 1157
Flags: W
LayerCount: 2
Fore
SplineSet
82 846 m 1,0,-1
 1067 846 l 1,1,-1
 1067 698 l 1,2,-1
 82 698 l 1,3,-1
 82 846 l 1,0,-1
82 580 m 1,4,-1
 1067 580 l 1,5,-1
 1067 432 l 1,6,-1
 82 432 l 1,7,-1
 82 580 l 1,4,-1
EndSplineSet
EndChar

StartChar: greater
Encoding: 62 62 13
Width: 1117
Flags: W
LayerCount: 2
Fore
SplineSet
966 444 m 1,0,-1
 160 58 l 1,1,-1
 160 192 l 1,2,-1
 786 489 l 1,3,-1
 160 784 l 1,4,-1
 160 918 l 1,5,-1
 966 534 l 1,6,-1
 966 444 l 1,0,-1
EndSplineSet
EndChar

StartChar: bracketleft
Encoding: 91 91 14
Width: 671
GlyphClass: 2
Flags: W
LayerCount: 2
Fore
SplineSet
185 -369 m 1,0,-1
 185 1158 l 1,1,-1
 487 1158 l 1,2,-1
 487 1078 l 1,3,-1
 338 1078 l 1,4,-1
 338 -288 l 1,5,-1
 487 -288 l 1,6,-1
 487 -369 l 1,7,-1
 185 -369 l 1,0,-1
EndSplineSet
EndChar

StartChar: bracketright
Encoding: 93 93 15
Width: 588
GlyphClass: 2
Flags: W
LayerCount: 2
Fore
SplineSet
142 -369 m 1,0,-1
 142 -288 l 1,1,-1
 291 -288 l 1,2,-1
 291 1078 l 1,3,-1
 142 1078 l 1,4,-1
 142 1158 l 1,5,-1
 444 1158 l 1,6,-1
 444 -369 l 1,7,-1
 142 -369 l 1,0,-1
EndSplineSet
EndChar

StartChar: braceleft
Encoding: 123 123 17
Width: 595
GlyphClass: 2
Flags: W
LayerCount: 2
Fore
SplineSet
50 532 m 1,0,1
 116 534 116 534 158.5 568.5 c 128,-1,2
 201 603 201 603 214 663 c 0,3,4
 228 727 228 727 228 867 c 0,5,6
 230 942 230 942 231 990 c 128,-1,7
 232 1038 232 1038 235 1061 c 0,8,9
 241 1115 241 1115 253.5 1153 c 128,-1,10
 266 1191 266 1191 286.5 1218 c 128,-1,11
 307 1245 307 1245 334.5 1261.5 c 128,-1,12
 362 1278 362 1278 398 1288 c 0,13,14
 428 1297 428 1297 505 1297 c 2,15,-1
 554 1297 l 1,16,-1
 554 1160 l 1,17,-1
 525 1160 l 2,18,19
 481 1160 481 1160 450.5 1152 c 128,-1,20
 420 1144 420 1144 406 1128 c 0,21,22
 376 1096 376 1096 376 981 c 0,23,24
 376 867 376 867 373.5 795.5 c 128,-1,25
 371 724 371 724 367 695 c 0,26,27
 359 647 359 647 345.5 612 c 128,-1,28
 332 577 332 577 313 551 c 0,29,30
 278 502 278 502 194 461 c 1,31,32
 289 422 289 422 333 338 c 0,33,34
 376 258 376 258 376 70 c 0,35,36
 376 -15 376 -15 377 -65 c 128,-1,37
 378 -115 378 -115 379 -132 c 0,38,39
 382 -162 382 -162 390 -182 c 128,-1,40
 398 -202 398 -202 414.5 -214.5 c 128,-1,41
 431 -227 431 -227 457.5 -232.5 c 128,-1,42
 484 -238 484 -238 525 -238 c 2,43,-1
 554 -238 l 1,44,-1
 554 -374 l 1,45,-1
 505 -374 l 2,46,47
 461 -374 461 -374 430.5 -371.5 c 128,-1,48
 400 -369 400 -369 381 -362 c 0,49,50
 326 -340 326 -340 289.5 -295.5 c 128,-1,51
 253 -251 253 -251 240 -182 c 0,52,53
 235 -148 235 -148 232.5 -92.5 c 128,-1,54
 230 -37 230 -37 228 43 c 0,55,56
 228 122 228 122 224.5 175.5 c 128,-1,57
 221 229 221 229 214 258 c 0,58,59
 201 319 201 319 158 353 c 0,60,61
 117 387 117 387 50 391 c 1,62,-1
 50 532 l 1,63,-1
 50 532 l 1,0,1
EndSplineSet
EndChar

StartChar: bar
Encoding: 124 124 18
Width: 463
Flags: W
LayerCount: 2
Fore
SplineSet
164 1297 m 1,0,-1
 299 1297 l 1,1,-1
 299 -374 l 1,2,-1
 164 -374 l 1,3,-1
 164 1297 l 1,0,-1
EndSplineSet
EndChar

StartChar: asciitilde
Encoding: 126 126 19
Width: 811
Flags: W
LayerCount: 2
Fore
SplineSet
121 274 m 1,0,1
 175 487 175 487 325 487 c 0,2,3
 371 487 371 487 475 427 c 2,4,-1
 545 387 l 2,5,6
 631 338 631 338 675 338 c 0,7,8
 746 338 746 338 799 459 c 1,9,-1
 838 459 l 1,10,11
 776 255 776 255 631 255 c 0,12,13
 572 255 572 255 483 306 c 2,14,-1
 414 346 l 2,15,16
 317 403 317 403 284 403 c 0,17,18
 211 403 211 403 159 274 c 1,19,-1
 121 274 l 1,0,1
EndSplineSet
EndChar

StartChar: agrave
Encoding: 224 224 20
Width: 1075
Flags: W
LayerCount: 2
Fore
SplineSet
741 331 m 1,0,1
 720 266 720 266 690.5 213 c 128,-1,2
 661 160 661 160 626 114 c 0,3,4
 519 -19 519 -19 400 -19 c 0,5,6
 208 -19 208 -19 159 214 c 0,7,8
 133 334 133 334 157 451 c 128,-1,9
 181 568 181 568 252 683 c 0,10,11
 325 801 325 801 433 860 c 128,-1,12
 541 919 541 919 684 919 c 0,13,14
 712 919 712 919 746 918.5 c 128,-1,15
 780 918 780 918 815.5 916 c 128,-1,16
 851 914 851 914 886 912 c 128,-1,17
 921 910 921 910 952 908 c 1,18,-1
 946 646 l 1,19,-1
 946 647 l 1,20,-1
 950 254 l 2,21,22
 952 209 952 209 954.5 179.5 c 128,-1,23
 957 150 957 150 958 139 c 0,24,25
 961 114 961 114 985 114 c 0,26,27
 1053 114 1053 114 1214 346 c 1,28,-1
 1218 179 l 1,29,30
 1073 -19 1073 -19 925 -19 c 0,31,32
 785 -19 785 -19 753 126 c 0,33,34
 749 146 749 146 747 182 c 128,-1,35
 745 218 745 218 745 264 c 2,36,-1
 741 331 l 1,0,1
737 758 m 1,37,38
 688 775 688 775 647 783.5 c 128,-1,39
 606 792 606 792 561 792 c 0,40,41
 497 792 497 792 453.5 749.5 c 128,-1,42
 410 707 410 707 387 625 c 0,43,44
 362 522 362 522 357 425 c 128,-1,45
 352 328 352 328 368 248 c 0,46,47
 388 146 388 146 437 146 c 0,48,49
 493 146 493 146 589 280 c 0,50,51
 637 352 637 352 674 430 c 128,-1,52
 711 508 711 508 739 599 c 1,53,-1
 737 758 l 1,37,38
EndSplineSet
EndChar

StartChar: ocircumflex.001
Encoding: 65539 -1 26
Width: 1112
Flags: W
LayerCount: 2
Fore
SplineSet
416 -19 m 0,0,1
 301 -19 301 -19 205 70 c 0,2,3
 110 160 110 160 85 288 c 0,4,5
 32 528 32 528 170 726 c 0,6,7
 307 928 307 928 522 928 c 0,8,9
 643 928 643 928 742 842 c 1,10,11
 837 753 837 753 864 626 c 0,12,13
 890 499 890 499 869 388.5 c 128,-1,14
 848 278 848 278 781 179 c 0,15,16
 711 79 711 79 619.5 30 c 128,-1,17
 528 -19 528 -19 416 -19 c 0,0,1
483 98 m 0,18,19
 536 98 536 98 573.5 133 c 128,-1,20
 611 168 611 168 637 236 c 0,21,22
 665 310 665 310 668.5 393.5 c 128,-1,23
 672 477 672 477 652 574 c 0,24,25
 602 813 602 813 466 813 c 0,26,27
 365 813 365 813 313 670 c 0,28,29
 284 595 284 595 281 510.5 c 128,-1,30
 278 426 278 426 298 332 c 0,31,32
 324 213 324 213 370 155.5 c 128,-1,33
 416 98 416 98 483 98 c 0,18,19
EndSplineSet
EndChar

StartChar: dagger
Encoding: 8224 8224 30
Width: 932
Flags: W
LayerCount: 2
Fore
SplineSet
347 -231 m 1,0,-1
 567 622 l 1,1,-1
 248 592 l 1,2,-1
 297 700 l 1,3,-1
 576 668 l 1,4,-1
 607 1066 l 1,5,-1
 755 1093 l 1,6,-1
 621 668 l 1,7,-1
 941 700 l 1,8,-1
 895 592 l 1,9,-1
 612 622 l 1,10,-1
 496 -213 l 1,11,-1
 347 -231 l 1,0,-1
EndSplineSet
EndChar

StartChar: degree
Encoding: 176 176 31
Width: 409
Flags: W
LayerCount: 2
Fore
SplineSet
395 844 m 0,0,1
 344 844 344 844 307.5 880 c 128,-1,2
 271 916 271 916 271 968 c 0,3,4
 271 1021 271 1021 307.5 1057 c 128,-1,5
 344 1093 344 1093 395 1093 c 0,6,7
 447 1093 447 1093 483 1057 c 128,-1,8
 519 1021 519 1021 519 968 c 0,9,10
 519 916 519 916 483 880 c 128,-1,11
 447 844 447 844 395 844 c 0,0,1
395 888 m 256,12,13
 427 888 427 888 450.5 912 c 128,-1,14
 474 936 474 936 474 968 c 256,15,16
 474 1000 474 1000 450.5 1024 c 128,-1,17
 427 1048 427 1048 395 1048 c 256,18,19
 363 1048 363 1048 339 1024 c 128,-1,20
 315 1000 315 1000 315 968 c 256,21,22
 315 936 315 936 339 912 c 128,-1,23
 363 888 363 888 395 888 c 256,12,13
EndSplineSet
EndChar

StartChar: bullet
Encoding: 8226 8226 32
Width: 931
Flags: W
LayerCount: 2
Fore
SplineSet
817 662 m 256,0,1
 817 517 817 517 713.5 414 c 128,-1,2
 610 311 610 311 465 311 c 256,3,4
 320 311 320 311 217 414 c 128,-1,5
 114 517 114 517 114 662 c 256,6,7
 114 807 114 807 217 910 c 128,-1,8
 320 1013 320 1013 465 1013 c 256,9,10
 610 1013 610 1013 713.5 910 c 128,-1,11
 817 807 817 807 817 662 c 256,0,1
EndSplineSet
EndChar

StartChar: registered
Encoding: 174 174 33
Width: 897
Flags: W
LayerCount: 2
Fore
SplineSet
580 445 m 0,0,1
 448 445 448 445 354.5 538.5 c 128,-1,2
 261 632 261 632 261 764 c 256,3,4
 261 896 261 896 354.5 990 c 128,-1,5
 448 1084 448 1084 580 1084 c 0,6,7
 714 1084 714 1084 807 990 c 128,-1,8
 900 896 900 896 900 764 c 256,9,10
 900 632 900 632 806.5 538.5 c 128,-1,11
 713 445 713 445 580 445 c 0,0,1
580 484 m 0,12,13
 695 484 695 484 777.5 567 c 128,-1,14
 860 650 860 650 860 764 c 256,15,16
 860 878 860 878 777.5 961 c 128,-1,17
 695 1044 695 1044 580 1044 c 0,18,19
 466 1044 466 1044 383.5 961 c 128,-1,20
 301 878 301 878 301 764 c 256,21,22
 301 650 301 650 383.5 567 c 128,-1,23
 466 484 466 484 580 484 c 0,12,13
529 737 m 1,24,-1
 501 596 l 1,25,-1
 394 596 l 1,26,-1
 403 639 l 1,27,-1
 456 639 l 1,28,-1
 511 915 l 1,29,-1
 458 915 l 1,30,-1
 466 959 l 1,31,-1
 598 959 l 2,32,33
 751 959 751 959 751 875 c 0,34,35
 751 800 751 800 650 750 c 1,36,-1
 685 639 l 1,37,-1
 747 639 l 1,38,-1
 738 596 l 1,39,-1
 641 596 l 1,40,-1
 591 737 l 1,41,-1
 529 737 l 1,24,-1
538 782 m 1,42,-1
 574 782 l 2,43,44
 697 782 697 782 697 866 c 0,45,46
 697 915 697 915 607 915 c 2,47,-1
 564 915 l 1,48,-1
 538 782 l 1,42,-1
EndSplineSet
EndChar

StartChar: copyright
Encoding: 169 169 34
Width: 1244
Flags: W
LayerCount: 2
Fore
SplineSet
725 -27 m 0,0,1
 495 -27 495 -27 330.5 137 c 128,-1,2
 166 301 166 301 166 533 c 256,3,4
 166 765 166 765 330.5 929 c 128,-1,5
 495 1093 495 1093 725 1093 c 0,6,7
 958 1093 958 1093 1122 929 c 128,-1,8
 1286 765 1286 765 1286 533 c 256,9,10
 1286 301 1286 301 1122 137 c 128,-1,11
 958 -27 958 -27 725 -27 c 0,0,1
725 18 m 0,12,13
 939 18 939 18 1090 169 c 128,-1,14
 1241 320 1241 320 1241 533 c 256,15,16
 1241 746 1241 746 1090 897 c 128,-1,17
 939 1048 939 1048 725 1048 c 0,18,19
 513 1048 513 1048 362 897 c 128,-1,20
 211 746 211 746 211 533 c 256,21,22
 211 320 211 320 362 169 c 128,-1,23
 513 18 513 18 725 18 c 0,12,13
890 246 m 1,24,25
 785 213 785 213 704 213 c 0,26,27
 580 213 580 213 508 279.5 c 128,-1,28
 436 346 436 346 436 462 c 0,29,30
 436 625 436 625 541 734.5 c 128,-1,31
 646 844 646 844 805 844 c 0,32,33
 896 844 896 844 1003 814 c 1,34,-1
 967 675 l 1,35,-1
 915 684 l 1,36,-1
 923 766 l 1,37,38
 854 798 854 798 792 798 c 0,39,40
 688 798 688 798 616 700 c 128,-1,41
 544 602 544 602 544 462 c 0,42,43
 544 271 544 271 722 271 c 0,44,45
 823 271 823 271 902 307 c 1,46,-1
 890 246 l 1,24,25
EndSplineSet
EndChar

StartChar: trademark
Encoding: 8482 8482 35
Width: 1333
Flags: W
LayerCount: 2
Fore
SplineSet
440 1021 m 1,0,-1
 307 1021 l 1,1,-1
 288 923 l 1,2,-1
 225 923 l 1,3,-1
 254 1066 l 1,4,-1
 751 1066 l 1,5,-1
 723 923 l 1,6,-1
 661 923 l 1,7,-1
 679 1021 l 1,8,-1
 546 1021 l 1,9,-1
 456 569 l 1,10,-1
 554 569 l 1,11,-1
 545 524 l 1,12,-1
 243 524 l 1,13,-1
 253 569 l 1,14,-1
 350 569 l 1,15,-1
 440 1021 l 1,0,-1
1011 569 m 1,16,-1
 942 956 l 1,17,-1
 857 524 l 1,18,-1
 688 524 l 1,19,-1
 697 569 l 1,20,-1
 794 569 l 1,21,-1
 884 1021 l 1,22,-1
 787 1021 l 1,23,-1
 796 1066 l 1,24,-1
 1036 1066 l 1,25,-1
 1092 747 l 1,26,-1
 1265 1066 l 1,27,-1
 1481 1066 l 1,28,-1
 1473 1021 l 1,29,-1
 1375 1021 l 1,30,-1
 1285 569 l 1,31,-1
 1383 569 l 1,32,-1
 1373 524 l 1,33,-1
 1178 524 l 1,34,-1
 1270 985 l 1,35,-1
 1041 569 l 1,36,-1
 1011 569 l 1,16,-1
EndSplineSet
EndChar

StartChar: logicalnot
Encoding: 172 172 39
Width: 932
Flags: W
LayerCount: 2
Fore
SplineSet
177 510 m 1,0,-1
 193 590 l 1,1,-1
 975 590 l 1,2,-1
 906 248 l 1,3,-1
 814 248 l 1,4,-1
 866 510 l 1,5,-1
 177 510 l 1,0,-1
EndSplineSet
EndChar

StartChar: florin
Encoding: 402 402 40
Width: 679
Flags: W
LayerCount: 2
Fore
SplineSet
158 -231 m 1,0,-1
 210 -18 l 1,1,-1
 286 364 l 1,2,-1
 108 364 l 1,3,-1
 117 409 l 1,4,-1
 294 409 l 1,5,-1
 298 427 l 2,6,7
 330 586 330 586 463 692.5 c 128,-1,8
 596 799 596 799 761 799 c 0,9,10
 818 799 818 799 860 784 c 1,11,-1
 764 678 l 1,12,13
 712 729 712 729 643 729 c 0,14,15
 500 729 500 729 457 512 c 2,16,-1
 436 409 l 1,17,-1
 623 409 l 1,18,-1
 614 364 l 1,19,-1
 427 364 l 1,20,-1
 313 -213 l 1,21,-1
 158 -231 l 1,0,-1
EndSplineSet
EndChar

StartChar: ellipsis
Encoding: 8230 8230 41
Width: 1827
Flags: W
LayerCount: 2
Fore
SplineSet
758 113 m 0,0,1
 758 144 758 144 809.5 245.5 c 128,-1,2
 861 347 861 347 876 355 c 0,3,4
 907 369 907 369 964.5 307.5 c 128,-1,5
 1022 246 1022 246 1026 211 c 1,6,7
 1026 166 1026 166 977.5 79.5 c 128,-1,8
 929 -7 929 -7 908 -7 c 0,9,10
 899 -7 899 -7 851 26.5 c 128,-1,11
 803 60 803 60 778 79 c 0,12,13
 758 96 758 96 758 113 c 0,0,1
1308 113 m 0,14,15
 1308 144 1308 144 1359 245.5 c 128,-1,16
 1410 347 1410 347 1426 355 c 0,17,18
 1457 369 1457 369 1514.5 307.5 c 128,-1,19
 1572 246 1572 246 1575 211 c 0,20,21
 1575 166 1575 166 1527 79.5 c 128,-1,22
 1479 -7 1479 -7 1458 -7 c 0,23,24
 1449 -7 1449 -7 1401 26.5 c 128,-1,25
 1353 60 1353 60 1328 79 c 0,26,27
 1308 96 1308 96 1308 113 c 0,14,15
211 113 m 0,28,29
 211 144 211 144 262 245.5 c 128,-1,30
 313 347 313 347 329 355 c 0,31,32
 360 369 360 369 417.5 307.5 c 128,-1,33
 475 246 475 246 478 211 c 0,34,35
 478 166 478 166 430 79.5 c 128,-1,36
 382 -7 382 -7 361 -7 c 0,37,38
 352 -7 352 -7 304 26.5 c 128,-1,39
 256 60 256 60 231 79 c 0,40,41
 211 96 211 96 211 113 c 0,28,29
EndSplineSet
EndChar

StartChar: endash
Encoding: 8211 8211 42
Width: 434
Flags: W
LayerCount: 2
Fore
SplineSet
434 154 m 1,0,-1
 0 154 l 1,1,-1
 0 234 l 1,2,-1
 434 234 l 1,3,-1
 434 154 l 1,0,-1
EndSplineSet
EndChar

StartChar: emdash
Encoding: 8212 8212 43
Width: 1862
Flags: W
LayerCount: 2
Fore
SplineSet
1866 572 m 1,0,-1
 -4 572 l 1,1,-1
 -4 732 l 1,2,-1
 1866 732 l 1,3,-1
 1866 572 l 1,0,-1
EndSplineSet
EndChar

StartChar: quotedblleft
Encoding: 8220 8220 44
Width: 797
Flags: W
LayerCount: 2
Fore
SplineSet
418 1204 m 0,0,1
 422 1296 422 1296 483.5 1385.5 c 128,-1,2
 545 1475 545 1475 621 1511 c 1,3,-1
 664 1427 l 1,4,5
 643 1415 643 1415 612.5 1381.5 c 128,-1,6
 582 1348 582 1348 565 1296 c 1,7,8
 657 1255 657 1255 655 1180 c 0,9,10
 655 1157 655 1157 646 1136 c 128,-1,11
 637 1115 637 1115 621 1099 c 128,-1,12
 605 1083 605 1083 584.5 1074 c 128,-1,13
 564 1065 564 1065 541 1065 c 0,14,15
 512 1065 512 1065 489.5 1077.5 c 128,-1,16
 467 1090 467 1090 451 1109.5 c 128,-1,17
 435 1129 435 1129 426.5 1154 c 128,-1,18
 418 1179 418 1179 418 1204 c 0,0,1
111 1204 m 0,19,20
 115 1296 115 1296 176.5 1385.5 c 128,-1,21
 238 1475 238 1475 313 1511 c 1,22,-1
 356 1427 l 1,23,24
 336 1415 336 1415 305 1381.5 c 128,-1,25
 274 1348 274 1348 258 1296 c 1,26,27
 350 1255 350 1255 348 1180 c 0,28,29
 348 1157 348 1157 338.5 1136 c 128,-1,30
 329 1115 329 1115 313.5 1099 c 128,-1,31
 298 1083 298 1083 277 1074 c 128,-1,32
 256 1065 256 1065 233 1065 c 0,33,34
 205 1065 205 1065 182.5 1077.5 c 128,-1,35
 160 1090 160 1090 144 1109.5 c 128,-1,36
 128 1129 128 1129 119.5 1154 c 128,-1,37
 111 1179 111 1179 111 1204 c 0,19,20
EndSplineSet
EndChar

StartChar: quotedblright
Encoding: 8221 8221 45
Width: 750
Flags: W
LayerCount: 2
Fore
SplineSet
356 1376 m 0,0,1
 354 1284 354 1284 292.5 1195 c 128,-1,2
 231 1106 231 1106 154 1069 c 1,3,-1
 111 1151 l 1,4,5
 133 1163 133 1163 164 1197 c 128,-1,6
 195 1231 195 1231 209 1284 c 1,7,8
 117 1323 117 1323 121 1401 c 0,9,10
 121 1424 121 1424 130 1444.5 c 128,-1,11
 139 1465 139 1465 154 1480 c 128,-1,12
 169 1495 169 1495 189.5 1504 c 128,-1,13
 210 1513 210 1513 233 1513 c 0,14,15
 262 1513 262 1513 285 1501 c 128,-1,16
 308 1489 308 1489 323.5 1470 c 128,-1,17
 339 1451 339 1451 347.5 1426 c 128,-1,18
 356 1401 356 1401 356 1376 c 0,0,1
664 1376 m 0,19,20
 662 1284 662 1284 600.5 1195 c 128,-1,21
 539 1106 539 1106 461 1069 c 1,22,-1
 418 1151 l 1,23,24
 440 1163 440 1163 471 1197 c 128,-1,25
 502 1231 502 1231 516 1284 c 1,26,27
 424 1323 424 1323 428 1401 c 0,28,29
 428 1424 428 1424 437 1444.5 c 128,-1,30
 446 1465 446 1465 461.5 1480 c 128,-1,31
 477 1495 477 1495 497.5 1504 c 128,-1,32
 518 1513 518 1513 541 1513 c 0,33,34
 570 1513 570 1513 593 1501 c 128,-1,35
 616 1489 616 1489 631.5 1470 c 128,-1,36
 647 1451 647 1451 655.5 1426 c 128,-1,37
 664 1401 664 1401 664 1376 c 0,19,20
EndSplineSet
EndChar

StartChar: divide
Encoding: 247 247 46
Width: 1282
Flags: W
LayerCount: 2
Fore
SplineSet
751 831 m 1,0,-1
 525 831 l 1,1,-1
 525 1038 l 1,2,-1
 751 1038 l 1,3,-1
 751 831 l 1,0,-1
1111 510 m 1,4,-1
 769 510 l 1,5,-1
 609 510 l 1,6,-1
 171 510 l 1,7,-1
 171 677 l 1,8,-1
 609 677 l 1,9,-1
 769 677 l 1,10,-1
 1111 677 l 1,11,-1
 1111 510 l 1,4,-1
751 131 m 1,12,-1
 525 131 l 1,13,-1
 525 338 l 1,14,-1
 751 338 l 1,15,-1
 751 131 l 1,12,-1
EndSplineSet
EndChar

StartChar: lozenge
Encoding: 9674 9674 47
Width: 1118
Flags: W
LayerCount: 2
Fore
SplineSet
1003 699 m 1,0,-1
 560 197 l 1,1,-1
 117 699 l 1,2,-1
 560 1202 l 1,3,-1
 1003 699 l 1,0,-1
848 699 m 1,4,-1
 560 1036 l 1,5,-1
 271 699 l 1,6,-1
 560 364 l 1,7,-1
 848 699 l 1,4,-1
EndSplineSet
EndChar

StartChar: fraction
Encoding: 8260 8260 48
Width: 742
Flags: W
LayerCount: 2
Fore
SplineSet
740 1101 m 1,0,-1
 101 -82 l 1,1,-1
 -9 -82 l 1,2,-1
 629 1101 l 1,3,-1
 740 1101 l 1,0,-1
EndSplineSet
EndChar

StartChar: guilsinglleft
Encoding: 8249 8249 49
Width: 1117
Flags: W
LayerCount: 2
Fore
SplineSet
955 58 m 1,0,-1
 150 444 l 1,1,-1
 150 534 l 1,2,-1
 955 918 l 1,3,-1
 955 784 l 1,4,-1
 331 489 l 1,5,-1
 955 192 l 1,6,-1
 955 58 l 1,0,-1
EndSplineSet
EndChar

StartChar: daggerdbl
Encoding: 8225 8225 52
Width: 932
Flags: W
LayerCount: 2
Fore
SplineSet
349 -231 m 1,0,-1
 481 185 l 1,1,-1
 161 154 l 1,2,-1
 211 261 l 1,3,-1
 490 229 l 1,4,-1
 567 616 l 1,5,-1
 247 586 l 1,6,-1
 297 693 l 1,7,-1
 575 661 l 1,8,-1
 608 1066 l 1,9,-1
 758 1093 l 1,10,-1
 620 661 l 1,11,-1
 940 693 l 1,12,-1
 889 586 l 1,13,-1
 611 616 l 1,14,-1
 535 229 l 1,15,-1
 855 261 l 1,16,-1
 804 154 l 1,17,-1
 525 185 l 1,18,-1
 499 -213 l 1,19,-1
 349 -231 l 1,0,-1
EndSplineSet
EndChar

StartChar: middot.001
Encoding: 8729 8729 53
Width: 620
Flags: W
LayerCount: 2
Fore
SplineSet
429 516 m 1,0,-1
 190 516 l 1,1,-1
 190 789 l 1,2,-1
 429 789 l 1,3,-1
 429 516 l 1,0,-1
EndSplineSet
EndChar

StartChar: quotesinglbase
Encoding: 8218 8218 54
Width: 418
Flags: W
LayerCount: 2
Fore
SplineSet
103 128 m 1,0,-1
 247 231 l 1,1,-1
 353 90 l 1,2,3
 345 -56 345 -56 262.5 -134.5 c 128,-1,4
 180 -213 180 -213 36 -213 c 1,5,-1
 76 -168 l 1,6,7
 189 -158 189 -158 211 -18 c 1,8,-1
 103 128 l 1,0,-1
EndSplineSet
EndChar

StartChar: quotedblbase
Encoding: 8222 8222 55
Width: 684
Flags: W
LayerCount: 2
Fore
SplineSet
91 92 m 1,0,-1
 204 178 l 1,1,-1
 292 64 l 1,2,3
 270 -213 270 -213 31 -213 c 1,4,-1
 60 -168 l 1,5,6
 166 -148 166 -148 179 -16 c 1,7,-1
 91 92 l 1,0,-1
401 92 m 1,8,-1
 516 178 l 1,9,-1
 602 64 l 1,10,11
 581 -213 581 -213 341 -213 c 1,12,-1
 372 -168 l 1,13,14
 476 -148 476 -148 490 -16 c 1,15,-1
 401 92 l 1,8,-1
EndSplineSet
EndChar

StartChar: perthousand
Encoding: 8240 8240 56
Width: 1571
Flags: W
LayerCount: 2
Fore
SplineSet
385 533 m 0,0,1
 304 533 304 533 254.5 584.5 c 128,-1,2
 205 636 205 636 205 722 c 0,3,4
 205 865 205 865 286.5 965.5 c 128,-1,5
 368 1066 368 1066 483 1066 c 0,6,7
 567 1066 567 1066 617.5 1014.5 c 128,-1,8
 668 963 668 963 668 877 c 0,9,10
 668 733 668 733 585.5 633 c 128,-1,11
 503 533 503 533 385 533 c 0,0,1
311 715 m 0,12,13
 311 578 311 578 398 578 c 0,14,15
 463 578 463 578 517 671.5 c 128,-1,16
 571 765 571 765 571 881 c 0,17,18
 571 1022 571 1022 483 1022 c 0,19,20
 416 1022 416 1022 363.5 928 c 128,-1,21
 311 834 311 834 311 715 c 0,12,13
850 0 m 0,22,23
 769 0 769 0 719.5 51.5 c 128,-1,24
 670 103 670 103 670 189 c 0,25,26
 670 331 670 331 751 432 c 128,-1,27
 832 533 832 533 947 533 c 0,28,29
 1031 533 1031 533 1081.5 481.5 c 128,-1,30
 1132 430 1132 430 1132 344 c 0,31,32
 1132 200 1132 200 1049.5 100 c 128,-1,33
 967 0 967 0 850 0 c 0,22,23
776 182 m 0,34,35
 776 44 776 44 862 44 c 0,36,37
 929 44 929 44 982 138 c 128,-1,38
 1035 232 1035 232 1035 348 c 0,39,40
 1035 490 1035 490 948 490 c 0,41,42
 880 490 880 490 828 395.5 c 128,-1,43
 776 301 776 301 776 182 c 0,34,35
131 -27 m 1,44,-1
 1111 1093 l 1,45,-1
 1206 1093 l 1,46,-1
 225 -27 l 1,47,-1
 131 -27 l 1,44,-1
1376 0 m 0,48,49
 1294 0 1294 0 1244.5 51.5 c 128,-1,50
 1195 103 1195 103 1195 189 c 0,51,52
 1195 331 1195 331 1276.5 432 c 128,-1,53
 1358 533 1358 533 1473 533 c 0,54,55
 1557 533 1557 533 1607.5 481.5 c 128,-1,56
 1658 430 1658 430 1658 344 c 0,57,58
 1658 200 1658 200 1575.5 100 c 128,-1,59
 1493 0 1493 0 1376 0 c 0,48,49
1301 183 m 0,60,61
 1301 44 1301 44 1389 44 c 0,62,63
 1453 44 1453 44 1507 138 c 128,-1,64
 1561 232 1561 232 1561 347 c 0,65,66
 1561 490 1561 490 1473 490 c 0,67,68
 1406 490 1406 490 1353.5 395.5 c 128,-1,69
 1301 301 1301 301 1301 183 c 0,60,61
EndSplineSet
EndChar

StartChar: multiply
Encoding: 215 215 60
Width: 1203
Flags: W
LayerCount: 2
Fore
SplineSet
937 235 m 1,0,-1
 624 548 l 1,1,-1
 315 239 l 1,2,-1
 202 352 l 1,3,-1
 511 661 l 1,4,-1
 201 971 l 1,5,-1
 319 1089 l 1,6,-1
 629 779 l 1,7,-1
 941 1091 l 1,8,-1
 1054 978 l 1,9,-1
 742 666 l 1,10,-1
 1055 353 l 1,11,-1
 937 235 l 1,0,-1
EndSplineSet
EndChar

StartChar: macron
Encoding: 175 175 61
Width: 1118
Flags: W
LayerCount: 2
Fore
SplineSet
1134 1259 m 1,0,-1
 -16 1259 l 1,1,-1
 -16 1389 l 1,2,-1
 1134 1389 l 1,3,-1
 1134 1259 l 1,0,-1
EndSplineSet
EndChar

StartChar: periodcentered
Encoding: 183 183 62
Width: 724
Flags: W
LayerCount: 2
Fore
SplineSet
482 832 m 1,0,-1
 243 832 l 1,1,-1
 243 1117 l 1,2,-1
 482 1117 l 1,3,-1
 482 832 l 1,0,-1
EndSplineSet
EndChar

StartChar: H22073
Encoding: 9633 9633 63
Width: 1237
Flags: W
LayerCount: 2
Fore
SplineSet
146 944 m 1,0,-1
 1090 944 l 1,1,-1
 1090 0 l 1,2,-1
 146 0 l 1,3,-1
 146 944 l 1,0,-1
222 868 m 1,4,-1
 222 76 l 1,5,-1
 1014 76 l 1,6,-1
 1014 868 l 1,7,-1
 222 868 l 1,4,-1
EndSplineSet
EndChar

StartChar: H18543
Encoding: 9642 9642 64
Width: 1089
Flags: W
LayerCount: 2
Fore
SplineSet
886 894 m 1,0,-1
 886 200 l 1,1,-1
 192 200 l 1,2,-1
 192 894 l 1,3,-1
 886 894 l 1,0,-1
EndSplineSet
EndChar

StartChar: H18551
Encoding: 9643 9643 65
Width: 1089
Flags: W
LayerCount: 2
Fore
SplineSet
888 930 m 1,0,-1
 888 235 l 1,1,-1
 193 235 l 1,2,-1
 193 930 l 1,3,-1
 888 930 l 1,0,-1
774 816 m 1,4,-1
 307 816 l 1,5,-1
 307 349 l 1,6,-1
 774 349 l 1,7,-1
 774 816 l 1,4,-1
EndSplineSet
EndChar

StartChar: H18533
Encoding: 9679 9679 66
Width: 1339
Flags: W
LayerCount: 2
Fore
SplineSet
204 775 m 0,0,1
 204 976 204 976 345 1117 c 128,-1,2
 486 1258 486 1258 685 1258 c 0,3,4
 885 1258 885 1258 1026 1117 c 128,-1,5
 1167 976 1167 976 1167 775 c 0,6,7
 1167 577 1167 577 1026 436 c 128,-1,8
 885 295 885 295 685 295 c 0,9,10
 486 295 486 295 345 436 c 128,-1,11
 204 577 204 577 204 775 c 0,0,1
EndSplineSet
EndChar

StartChar: openbullet
Encoding: 9702 9702 67
Width: 1089
Flags: W
LayerCount: 2
Fore
SplineSet
544 1392 m 0,0,1
 700 1392 700 1392 810.5 1281.5 c 128,-1,2
 921 1171 921 1171 921 1015 c 256,3,4
 921 859 921 859 810.5 749 c 128,-1,5
 700 639 700 639 544 639 c 256,6,7
 388 639 388 639 278 749 c 128,-1,8
 168 859 168 859 168 1015 c 256,9,10
 168 1171 168 1171 277.5 1281.5 c 128,-1,11
 387 1392 387 1392 544 1392 c 0,0,1
544 1278 m 0,12,13
 435 1278 435 1278 358.5 1200.5 c 128,-1,14
 282 1123 282 1123 282 1015 c 0,15,16
 282 906 282 906 359 829.5 c 128,-1,17
 436 753 436 753 544 753 c 256,18,19
 652 753 652 753 729.5 829.5 c 128,-1,20
 807 906 807 906 807 1015 c 0,21,22
 807 1123 807 1123 730.5 1200.5 c 128,-1,23
 654 1278 654 1278 544 1278 c 0,12,13
EndSplineSet
EndChar

StartChar: uniFFFC
Encoding: 65532 65532 68
Width: 2048
Flags: W
LayerCount: 2
Fore
SplineSet
2048 1150 m 1,0,-1
 1948 1150 l 1,1,-1
 1948 1373 l 1,2,-1
 1725 1373 l 1,3,-1
 1725 1473 l 1,4,-1
 2048 1473 l 1,5,-1
 2048 1150 l 1,0,-1
1473 1373 m 1,6,-1
 1150 1373 l 1,7,-1
 1150 1473 l 1,8,-1
 1473 1473 l 1,9,-1
 1473 1373 l 1,6,-1
2048 575 m 1,10,-1
 1948 575 l 1,11,-1
 1948 898 l 1,12,-1
 2048 898 l 1,13,-1
 2048 575 l 1,10,-1
1782 611 m 2,14,15
 1782 370 1782 370 1571 370 c 0,16,17
 1485 370 1485 370 1433 415 c 1,18,-1
 1506 494 l 1,19,20
 1531 468 1531 468 1571 468 c 0,21,22
 1666 468 1666 468 1666 606 c 2,23,-1
 1666 1090 l 1,24,-1
 1782 1090 l 1,25,-1
 1782 611 l 2,14,15
898 1373 m 1,26,-1
 575 1373 l 1,27,-1
 575 1473 l 1,28,-1
 898 1473 l 1,29,-1
 898 1373 l 1,26,-1
2048 0 m 1,30,-1
 1725 0 l 1,31,-1
 1725 100 l 1,32,-1
 1948 100 l 1,33,-1
 1948 323 l 1,34,-1
 2048 323 l 1,35,-1
 2048 0 l 1,30,-1
1423 591 m 0,36,37
 1423 382 1423 382 1149 382 c 2,38,-1
 909 382 l 1,39,-1
 909 1090 l 1,40,-1
 1144 1090 l 2,41,42
 1393 1090 1393 1090 1393 904 c 0,43,44
 1393 813 1393 813 1304 759 c 1,45,46
 1423 713 1423 713 1423 591 c 0,36,37
323 1373 m 1,47,-1
 100 1373 l 1,48,-1
 100 1150 l 1,49,-1
 0 1150 l 1,50,-1
 0 1473 l 1,51,-1
 323 1473 l 1,52,-1
 323 1373 l 1,47,-1
1473 0 m 1,53,-1
 1150 0 l 1,54,-1
 1150 100 l 1,55,-1
 1473 100 l 1,56,-1
 1473 0 l 1,53,-1
854 735 m 0,57,58
 854 562 854 562 772 466 c 128,-1,59
 690 370 690 370 537 370 c 256,60,61
 384 370 384 370 303.5 466 c 128,-1,62
 223 562 223 562 223 735 c 0,63,64
 223 910 223 910 303.5 1006 c 128,-1,65
 384 1102 384 1102 537 1102 c 256,66,67
 690 1102 690 1102 772 1006 c 128,-1,68
 854 910 854 910 854 735 c 0,57,58
100 575 m 1,69,-1
 0 575 l 1,70,-1
 0 898 l 1,71,-1
 100 898 l 1,72,-1
 100 575 l 1,69,-1
898 0 m 1,73,-1
 575 0 l 1,74,-1
 575 100 l 1,75,-1
 898 100 l 1,76,-1
 898 0 l 1,73,-1
323 0 m 1,77,-1
 0 0 l 1,78,-1
 0 323 l 1,79,-1
 100 323 l 1,80,-1
 100 100 l 1,81,-1
 323 100 l 1,82,-1
 323 0 l 1,77,-1
1277 893 m 0,83,84
 1277 992 1277 992 1114 992 c 2,85,-1
 1025 992 l 1,86,-1
 1025 798 l 1,87,-1
 1126 798 l 2,88,89
 1277 798 1277 798 1277 893 c 0,83,84
1307 591 m 0,90,91
 1307 700 1307 700 1136 700 c 2,92,-1
 1025 700 l 1,93,-1
 1025 480 l 1,94,-1
 1149 480 l 2,95,96
 1307 480 1307 480 1307 591 c 0,90,91
738 735 m 0,97,98
 738 1004 738 1004 537 1004 c 0,99,100
 339 1004 339 1004 339 735 c 0,101,102
 339 468 339 468 537 468 c 0,103,104
 738 468 738 468 738 735 c 0,97,98
EndSplineSet
EndChar

StartChar: zerowidthnonjoiner
Encoding: 8204 8204 88
Width: 0
GlyphClass: 2
Flags: W
LayerCount: 2
Fore
SplineSet
36 1289 m 1,0,-1
 36 -275 l 1,1,-1
 -36 -275 l 1,2,-1
 -36 1289 l 1,3,-1
 36 1289 l 1,0,-1
EndSplineSet
EndChar

StartChar: zerowidthjoiner
Encoding: 8205 8205 89
Width: 0
GlyphClass: 2
Flags: W
LayerCount: 2
Fore
SplineSet
36 -275 m 1,0,-1
 -36 -275 l 1,1,-1
 -36 1114 l 1,2,-1
 -170 978 l 1,3,-1
 -219 1027 l 1,4,-1
 -48 1196 l 1,5,-1
 -219 1364 l 1,6,-1
 -170 1413 l 1,7,-1
 0 1242 l 1,8,-1
 170 1413 l 1,9,-1
 219 1364 l 1,10,-1
 48 1196 l 1,11,-1
 219 1027 l 1,12,-1
 170 978 l 1,13,-1
 36 1114 l 1,14,-1
 36 -275 l 1,0,-1
EndSplineSet
EndChar

StartChar: lefttorightmark
Encoding: 8206 8206 90
Width: 0
GlyphClass: 2
Flags: W
LayerCount: 2
Fore
SplineSet
430 1198 m 1,0,-1
 213 984 l 1,1,-1
 164 1033 l 1,2,-1
 301 1163 l 1,3,-1
 35 1163 l 1,4,-1
 35 -275 l 1,5,-1
 -36 -275 l 1,6,-1
 -36 1234 l 1,7,-1
 301 1234 l 1,8,-1
 164 1364 l 1,9,-1
 213 1413 l 1,10,-1
 430 1198 l 1,0,-1
EndSplineSet
EndChar

StartChar: righttoleftmark
Encoding: 8207 8207 91
Width: 0
GlyphClass: 2
Flags: W
LayerCount: 2
Fore
SplineSet
35 -275 m 1,0,-1
 -36 -275 l 1,1,-1
 -36 1163 l 1,2,-1
 -302 1163 l 1,3,-1
 -165 1033 l 1,4,-1
 -214 984 l 1,5,-1
 -431 1198 l 1,6,-1
 -214 1413 l 1,7,-1
 -165 1364 l 1,8,-1
 -302 1234 l 1,9,-1
 35 1234 l 1,10,-1
 35 -275 l 1,0,-1
EndSplineSet
EndChar

StartChar: afii57388.001
Encoding: 1644 1644 92
Width: 353
GlyphClass: 2
Flags: W
LayerCount: 2
Fore
SplineSet
210 654 m 0,0,1
 200 627 200 627 185 603 c 0,2,3
 180 597 180 597 173.5 593.5 c 128,-1,4
 167 590 167 590 162 590 c 128,-1,5
 157 590 157 590 154.5 593 c 128,-1,6
 152 596 152 596 155 603 c 0,7,8
 187 660 187 660 202.5 713.5 c 128,-1,9
 218 767 218 767 218 800 c 1,10,11
 194 806 194 806 179 816 c 128,-1,12
 164 826 164 826 155 837.5 c 128,-1,13
 146 849 146 849 143 859 c 128,-1,14
 140 869 140 869 140 874 c 0,15,16
 140 890 140 890 145.5 907 c 128,-1,17
 151 924 151 924 160.5 937.5 c 128,-1,18
 170 951 170 951 183.5 959.5 c 128,-1,19
 197 968 197 968 213 968 c 0,20,21
 272 968 272 968 272 874 c 0,22,23
 272 859 272 859 268 835 c 128,-1,24
 264 811 264 811 256 781.5 c 128,-1,25
 248 752 248 752 236.5 719.5 c 128,-1,26
 225 687 225 687 210 654 c 0,0,1
EndSplineSet
EndChar

StartChar: afii57409
Encoding: 1569 1569 93
Width: 800
GlyphClass: 2
Flags: W
AnchorPoint: "Anchor-3" 540 -360 basechar 0
AnchorPoint: "Anchor-2" 420 720 basechar 0
LayerCount: 2
Fore
SplineSet
252 291 m 1,0,1
 252 562 252 562 619 566 c 1,2,-1
 630 418 l 1,3,4
 401 418 401 418 401 307 c 1,5,6
 406 252 406 252 445.5 229 c 128,-1,7
 485 206 485 206 530 210 c 0,8,9
 565 210 565 210 702 263 c 1,10,-1
 739 127 l 1,11,12
 481 47 481 47 269 -66 c 1,13,-1
 191 43 l 1,14,-1
 357 124 l 1,15,16
 257 195 257 195 252 291 c 1,0,1
EndSplineSet
EndChar

StartChar: afii57440
Encoding: 1600 1600 94
Width: 556
GlyphClass: 2
Flags: W
LayerCount: 2
Fore
SplineSet
-43 0 m 1,0,-1
 -43 207 l 1,1,-1
 581 207 l 1,2,-1
 581 0 l 1,3,-1
 -43 0 l 1,0,-1
EndSplineSet
EndChar

StartChar: afii57453
Encoding: 1613 1613 95
Width: 0
GlyphClass: 4
Flags: W
AnchorPoint: "Anchor-3" 0 0 mark 0
AnchorPoint: "Anchor-1" 0 0 mark 0
LayerCount: 2
Fore
SplineSet
-292 101 m 1,0,1
 -85 172 -85 172 23 213 c 0,2,3
 109 244 109 244 222 289 c 1,4,-1
 263 192 l 1,5,-1
 -263 8 l 1,6,-1
 -292 101 l 1,0,1
-291 -98 m 1,7,8
 -84 -27 -84 -27 24 14 c 0,9,10
 110 45 110 45 223 90 c 1,11,-1
 264 -7 l 1,12,-1
 -262 -191 l 1,13,-1
 -291 -98 l 1,7,8
EndSplineSet
EndChar

StartChar: afii57381
Encoding: 1642 1642 96
Width: 1212
GlyphClass: 2
Flags: W
LayerCount: 2
Fore
SplineSet
143 82 m 1,0,1
 303 313 303 313 426 541 c 1,2,3
 733 1085 733 1085 860 1503 c 1,4,-1
 1049 1409 l 1,5,6
 999 1245 999 1245 854 901 c 1,7,8
 653 455 653 455 334 -23 c 1,9,-1
 143 82 l 1,0,1
252 1442 m 1,10,-1
 309 1452 l 1,11,-1
 399 1456 l 1,12,-1
 471 1452 l 1,13,-1
 528 1446 l 1,14,-1
 528 1198 l 1,15,-1
 391 1208 l 2,16,17
 338 1208 338 1208 252 1198 c 1,18,-1
 252 1442 l 1,10,-1
698 264 m 1,19,-1
 754 272 l 1,20,-1
 840 274 l 1,21,-1
 911 272 l 1,22,-1
 969 268 l 1,23,-1
 969 20 l 1,24,-1
 831 29 l 2,25,26
 780 31 780 31 698 20 c 1,27,-1
 698 264 l 1,19,-1
EndSplineSet
EndChar

StartChar: afii57461
Encoding: 1643 1643 97
Width: 1178
GlyphClass: 2
Flags: W
LayerCount: 2
Fore
SplineSet
1123 722 m 1,0,-1
 301 -765 l 1,1,-1
 80 -765 l 1,2,-1
 891 722 l 1,3,-1
 1123 722 l 1,0,-1
EndSplineSet
EndChar

StartChar: afii63167
Encoding: 1645 1645 98
Width: 1118
GlyphClass: 2
Flags: W
LayerCount: 2
Fore
SplineSet
694 729 m 1,0,-1
 1057 733 l 1,1,-1
 1057 610 l 1,2,-1
 702 612 l 1,3,-1
 971 352 l 1,4,-1
 883 264 l 1,5,-1
 616 539 l 1,6,-1
 623 168 l 1,7,-1
 498 168 l 1,8,-1
 502 539 l 1,9,-1
 236 264 l 1,10,-1
 147 352 l 1,11,-1
 422 614 l 1,12,-1
 63 610 l 1,13,-1
 63 733 l 1,14,-1
 420 729 l 1,15,-1
 170 975 l 1,16,-1
 258 1065 l 1,17,-1
 502 817 l 1,18,-1
 498 1176 l 1,19,-1
 623 1176 l 1,20,-1
 616 813 l 1,21,-1
 860 1065 l 1,22,-1
 948 975 l 1,23,-1
 694 729 l 1,0,-1
EndSplineSet
EndChar

StartChar: afii57459
Encoding: 65543 -1 99
Width: 1034
GlyphClass: 2
Flags: W
LayerCount: 2
Fore
SplineSet
-31 0 m 1,0,-1
 -31 207 l 1,1,-1
 580 207 l 2,2,3
 739 207 739 207 748 285 c 1,4,5
 672 272 672 272 626 266 c 128,-1,6
 580 260 580 260 554 256 c 128,-1,7
 528 252 528 252 522 252 c 2,8,-1
 500 252 l 2,9,10
 416 252 416 252 341 272.5 c 128,-1,11
 266 293 266 293 211 333 c 128,-1,12
 156 373 156 373 127 436.5 c 128,-1,13
 98 500 98 500 98 590 c 0,14,15
 98 666 98 666 119.5 737.5 c 128,-1,16
 141 809 141 809 181 867.5 c 128,-1,17
 221 926 221 926 274.5 965 c 128,-1,18
 328 1004 328 1004 381 1010 c 0,19,20
 442 1018 442 1018 507.5 989.5 c 128,-1,21
 573 961 573 961 637.5 909.5 c 128,-1,22
 702 858 702 858 758.5 787.5 c 128,-1,23
 815 717 815 717 860 639 c 128,-1,24
 905 561 905 561 931.5 478 c 128,-1,25
 958 395 958 395 958 330 c 0,26,27
 958 258 958 258 930.5 197.5 c 128,-1,28
 903 137 903 137 853 94 c 128,-1,29
 803 51 803 51 734.5 25.5 c 128,-1,30
 666 0 666 0 582 0 c 2,31,-1
 -31 0 l 1,0,-1
301 608 m 0,32,33
 301 537 301 537 348 497 c 128,-1,34
 395 457 395 457 473 457 c 0,35,36
 532 459 532 459 573 465 c 128,-1,37
 614 471 614 471 636.5 478 c 128,-1,38
 659 485 659 485 672.5 492.5 c 128,-1,39
 686 500 686 500 694 500 c 1,40,41
 680 545 680 545 647 595 c 128,-1,42
 614 645 614 645 571 689 c 128,-1,43
 528 733 528 733 485 765 c 128,-1,44
 442 797 442 797 410 797 c 0,45,46
 360 797 360 797 330.5 736.5 c 128,-1,47
 301 676 301 676 301 608 c 0,32,33
EndSplineSet
EndChar

StartChar: afii57543
Encoding: 65544 -1 100
Width: 809
Flags: W
LayerCount: 2
Fore
SplineSet
-12 0 m 1,0,-1
 -12 207 l 1,1,-1
 236 207 l 2,2,3
 307 207 307 207 346 258 c 1,4,5
 387 303 387 303 387 373 c 1,6,-1
 381 428 l 1,7,-1
 209 924 l 1,8,-1
 401 1016 l 1,9,-1
 504 733 l 1,10,-1
 659 281 l 2,11,12
 682 207 682 207 739 207 c 2,13,-1
 819 207 l 1,14,-1
 819 0 l 1,15,-1
 739 0 l 2,16,17
 602 0 602 0 524 121 c 1,18,19
 408 0 408 0 307 0 c 2,20,-1
 -12 0 l 1,0,-1
EndSplineSet
EndChar

StartChar: afii57534
Encoding: 1749 1749 101
Width: 1037
GlyphClass: 2
Flags: W
LayerCount: 2
Fore
SplineSet
192 272 m 0,0,1
 192 317 192 317 202 377.5 c 128,-1,2
 212 438 212 438 230.5 502.5 c 128,-1,3
 249 567 249 567 272.5 627.5 c 128,-1,4
 296 688 296 688 321 733 c 1,5,-1
 499 659 l 1,6,7
 486 631 486 631 471 581.5 c 128,-1,8
 456 532 456 532 441.5 481 c 128,-1,9
 427 430 427 430 417 387 c 128,-1,10
 407 344 407 344 407 328 c 0,11,12
 407 207 407 207 478 207 c 2,13,-1
 654 207 l 2,14,15
 701 207 701 207 729 244 c 128,-1,16
 757 281 757 281 757 330 c 0,17,18
 757 395 757 395 717 470 c 128,-1,19
 677 545 677 545 612.5 613.5 c 128,-1,20
 548 682 548 682 467 739.5 c 128,-1,21
 386 797 386 797 306 831 c 1,22,-1
 419 995 l 1,23,24
 511 969 511 969 608.5 893 c 128,-1,25
 706 817 706 817 785.5 717.5 c 128,-1,26
 865 618 865 618 914.5 510.5 c 128,-1,27
 964 403 964 403 964 317 c 0,28,29
 964 258 964 258 943.5 199.5 c 128,-1,30
 923 141 923 141 889 96 c 128,-1,31
 855 51 855 51 807 25.5 c 128,-1,32
 759 0 759 0 701 0 c 2,33,-1
 448 0 l 2,34,35
 192 0 192 0 192 272 c 0,0,1
EndSplineSet
EndChar

StartChar: afii64240
Encoding: 65546 -1 103
Width: 551
Flags: W
LayerCount: 2
Fore
SplineSet
149 -2 m 1,0,-1
 149 219 l 1,1,2
 235 252 235 252 401 229 c 1,3,-1
 401 0 l 1,4,5
 239 13 239 13 149 -2 c 1,0,-1
EndSplineSet
EndChar

StartChar: afii64241
Encoding: 65547 -1 104
Width: 808
Flags: W
LayerCount: 2
Fore
SplineSet
104 217 m 1,0,1
 552 254 552 254 720 205 c 1,2,-1
 710 117 l 1,3,-1
 704 6 l 1,4,5
 433 45 433 45 114 13 c 1,6,-1
 104 217 l 1,0,1
EndSplineSet
EndChar

StartChar: afii63954
Encoding: 65548 -1 105
Width: 862
Flags: W
LayerCount: 2
Fore
SplineSet
104 217 m 1,0,1
 552 254 552 254 720 205 c 1,2,-1
 710 117 l 1,3,-1
 704 6 l 1,4,5
 433 45 433 45 114 13 c 1,6,-1
 104 217 l 1,0,1
299 342 m 1,7,-1
 299 563 l 1,8,9
 385 596 385 596 551 573 c 1,10,-1
 551 344 l 1,11,12
 389 357 389 357 299 342 c 1,7,-1
EndSplineSet
EndChar

StartChar: afii57382
Encoding: 65549 -1 106
Width: 794
Flags: W
LayerCount: 2
Fore
SplineSet
104 -16 m 1,0,1
 552 21 552 21 720 -28 c 1,2,-1
 710 -116 l 1,3,-1
 704 -227 l 1,4,5
 433 -188 433 -188 114 -220 c 1,6,-1
 104 -16 l 1,0,1
279 -552 m 1,7,-1
 279 -331 l 1,8,9
 365 -298 365 -298 531 -321 c 1,10,-1
 531 -550 l 1,11,12
 369 -537 369 -537 279 -552 c 1,7,-1
EndSplineSet
EndChar

StartChar: afii64242
Encoding: 65550 -1 107
Width: 725
Flags: W
LayerCount: 2
Fore
SplineSet
-37 0 m 1,0,-1
 -37 207 l 1,1,-1
 281 207 l 2,2,3
 346 207 346 207 387 258 c 1,4,5
 430 303 430 303 430 373 c 0,6,7
 430 401 430 401 422 428 c 2,8,-1
 246 924 l 1,9,-1
 444 1016 l 1,10,-1
 528 786 l 1,11,-1
 633 473 l 2,12,13
 651 418 651 418 651 358 c 0,14,15
 651 223 651 223 567 115 c 0,16,17
 479 0 479 0 346 0 c 2,18,-1
 -37 0 l 1,0,-1
EndSplineSet
EndChar

StartChar: afii57373
Encoding: 65551 -1 112
Width: 0
Flags: W
LayerCount: 2
Fore
SplineSet
184 1935 m 0,0,1
 184 2148 184 2148 514 2148 c 1,2,-1
 518 2048 l 1,3,4
 289 2048 289 2048 289 1937 c 0,5,6
 289 1923 289 1923 299 1901 c 1,7,8
 303 1876 303 1876 346 1855 c 0,9,10
 385 1835 385 1835 418 1835 c 0,11,12
 453 1835 453 1835 522 1864 c 1,13,-1
 590 1886 l 1,14,-1
 623 1784 l 1,15,16
 399 1722 399 1722 270 1642 c 1,17,-1
 201 1722 l 1,18,-1
 293 1772 l 1,19,20
 184 1841 184 1841 184 1935 c 0,0,1
EndSplineSet
EndChar

StartChar: afii57374
Encoding: 65552 -1 113
Width: 1024
GlyphClass: 2
Flags: W
LayerCount: 2
Fore
SplineSet
-14 0 m 1,0,-1
 -14 207 l 1,1,-1
 223 207 l 1,2,3
 178 303 178 303 178 481 c 0,4,5
 178 582 178 582 196.5 677 c 128,-1,6
 215 772 215 772 247 841.5 c 128,-1,7
 279 911 279 911 326 953 c 128,-1,8
 373 995 373 995 436 1001 c 0,9,10
 510 1006 510 1006 592 947.5 c 128,-1,11
 674 889 674 889 738.5 797 c 128,-1,12
 803 705 803 705 845 596 c 128,-1,13
 887 487 887 487 887 399 c 0,14,15
 887 252 887 252 803 207 c 1,16,-1
 1034 207 l 1,17,-1
 1034 0 l 1,18,-1
 410 0 l 1,19,20
 375 8 375 8 360 16 c 1,21,22
 352 8 352 8 315.5 4 c 128,-1,23
 279 0 279 0 215 0 c 2,24,-1
 -14 0 l 1,0,-1
381 500 m 0,25,26
 381 303 381 303 475 207 c 1,27,28
 518 217 518 217 554 237.5 c 128,-1,29
 590 258 590 258 618.5 285.5 c 128,-1,30
 647 313 647 313 664.5 343 c 128,-1,31
 682 373 682 373 682 403 c 0,32,33
 682 418 682 418 674 473 c 128,-1,34
 666 528 666 528 644.5 593.5 c 128,-1,35
 623 659 623 659 580 715.5 c 128,-1,36
 537 772 537 772 471 782 c 1,37,38
 430 782 430 782 405.5 713.5 c 128,-1,39
 381 645 381 645 381 500 c 0,25,26
EndSplineSet
EndChar

StartChar: afii57375
Encoding: 1619 1619 114
Width: 861
GlyphClass: 2
Flags: W
LayerCount: 2
Fore
SplineSet
23 1679 m 1,0,1
 135 1790 135 1790 281 1812 c 1,2,-1
 522 1829 l 1,3,4
 647 1833 647 1833 745 1927 c 1,5,-1
 854 1806 l 1,6,7
 731 1694 731 1694 594 1669 c 1,8,-1
 360 1655 l 2,9,10
 236 1647 236 1647 129 1561 c 1,11,-1
 23 1679 l 1,0,1
EndSplineSet
EndChar

StartChar: afii57391
Encoding: 59450 59450 115
Width: 1024
GlyphClass: 2
Flags: W
LayerCount: 2
Fore
SplineSet
1024 0 m 1,0,-1
 -70 0 l 1,1,-1
 -70 188 l 1,2,-1
 1024 188 l 1,3,-1
 1024 0 l 1,0,-1
EndSplineSet
EndChar

StartChar: afii57471
Encoding: 65553 -1 116
Width: 1993
Flags: W
LayerCount: 2
Fore
SplineSet
66 465 m 0,0,1
 66 522 66 522 83 592 c 128,-1,2
 100 662 100 662 133 735.5 c 128,-1,3
 166 809 166 809 206 874.5 c 128,-1,4
 246 940 246 940 289 991 c 1,5,-1
 453 858 l 1,6,7
 416 819 416 819 383 768 c 128,-1,8
 350 717 350 717 326.5 662.5 c 128,-1,9
 303 608 303 608 291 554 c 128,-1,10
 279 500 279 500 279 451 c 0,11,12
 279 344 279 344 333 275.5 c 128,-1,13
 387 207 387 207 481 207 c 2,14,-1
 1442 207 l 2,15,16
 1507 207 1507 207 1550 255 c 128,-1,17
 1593 303 1593 303 1593 373 c 0,18,19
 1593 401 1593 401 1583 428 c 2,20,-1
 1417 924 l 1,21,-1
 1612 1016 l 1,22,23
 1640 924 1640 924 1659.5 863.5 c 128,-1,24
 1679 803 1679 803 1694 772 c 1,25,-1
 1862 281 l 2,26,27
 1886 207 1886 207 1944 207 c 2,28,-1
 2013 207 l 1,29,-1
 2013 0 l 1,30,-1
 1944 0 l 2,31,32
 1812 0 1812 0 1729 121 c 1,33,34
 1628 0 1628 0 1513 0 c 2,35,-1
 453 0 l 2,36,37
 371 0 371 0 297 37 c 128,-1,38
 223 74 223 74 173 138.5 c 128,-1,39
 123 203 123 203 94.5 288 c 128,-1,40
 66 373 66 373 66 465 c 0,0,1
EndSplineSet
EndChar

StartChar: afii52258
Encoding: 65554 -1 117
Width: 1927
GlyphClass: 2
Flags: W
LayerCount: 2
Fore
SplineSet
66 465 m 0,0,1
 66 524 66 524 83 595 c 128,-1,2
 100 666 100 666 130 734.5 c 128,-1,3
 160 803 160 803 198 867.5 c 128,-1,4
 236 932 236 932 281 977 c 1,5,-1
 442 858 l 1,6,7
 410 829 410 829 381 777 c 128,-1,8
 352 725 352 725 329.5 664.5 c 128,-1,9
 307 604 307 604 294 546.5 c 128,-1,10
 281 489 281 489 281 451 c 0,11,12
 281 344 281 344 334 275.5 c 128,-1,13
 387 207 387 207 487 207 c 2,14,-1
 1159 207 l 1,15,16
 1141 258 1141 258 1126.5 326.5 c 128,-1,17
 1112 395 1112 395 1112 485 c 0,18,19
 1112 590 1112 590 1128.5 686 c 128,-1,20
 1145 782 1145 782 1177.5 851 c 128,-1,21
 1210 920 1210 920 1260.5 960.5 c 128,-1,22
 1311 1001 1311 1001 1374 1001 c 1,23,24
 1448 1006 1448 1006 1527 950.5 c 128,-1,25
 1606 895 1606 895 1671.5 803 c 128,-1,26
 1737 711 1737 711 1782 600 c 128,-1,27
 1827 489 1827 489 1827 399 c 0,28,29
 1827 258 1827 258 1743 207 c 1,30,-1
 1970 207 l 1,31,-1
 1970 0 l 1,32,-1
 1348 0 l 2,33,34
 1331 2 1331 2 1319 9 c 128,-1,35
 1307 16 1307 16 1298 29 c 1,36,37
 1284 12 1284 12 1249 0 c 1,38,-1
 453 0 l 2,39,40
 371 0 371 0 297 37 c 128,-1,41
 223 74 223 74 172 138.5 c 128,-1,42
 121 203 121 203 93.5 288 c 128,-1,43
 66 373 66 373 66 465 c 0,0,1
1306 500 m 0,44,45
 1311 438 1311 438 1318 395 c 128,-1,46
 1325 352 1325 352 1336.5 319.5 c 128,-1,47
 1348 287 1348 287 1366 261.5 c 128,-1,48
 1384 236 1384 236 1413 207 c 1,49,50
 1518 238 1518 238 1566 298 c 128,-1,51
 1614 358 1614 358 1614 424 c 0,52,53
 1614 430 1614 430 1603.5 481 c 128,-1,54
 1593 532 1593 532 1567.5 595.5 c 128,-1,55
 1542 659 1542 659 1499 713.5 c 128,-1,56
 1456 768 1456 768 1399 774 c 0,57,58
 1378 774 1378 774 1363 746.5 c 128,-1,59
 1348 719 1348 719 1334.5 678 c 128,-1,60
 1321 637 1321 637 1312.5 587 c 128,-1,61
 1304 537 1304 537 1306 500 c 0,44,45
EndSplineSet
EndChar

StartChar: afii62889
Encoding: 65555 -1 123
Width: 1542
Flags: W
LayerCount: 2
Fore
SplineSet
66 0 m 0,0,1
 66 272 66 272 229 518 c 1,2,-1
 401 436 l 1,3,4
 381 395 381 395 354.5 337 c 128,-1,5
 328 279 328 279 308.5 217.5 c 128,-1,6
 289 156 289 156 274.5 100.5 c 128,-1,7
 260 45 260 45 260 8 c 0,8,9
 260 -152 260 -152 352 -254 c 128,-1,10
 444 -356 444 -356 610 -356 c 0,11,12
 700 -356 700 -356 802.5 -324.5 c 128,-1,13
 905 -293 905 -293 994 -246 c 128,-1,14
 1083 -199 1083 -199 1140.5 -134.5 c 128,-1,15
 1198 -70 1198 -70 1198 0 c 1,16,-1
 887 0 l 2,17,18
 715 0 715 0 634 80 c 128,-1,19
 553 160 553 160 553 342 c 0,20,21
 553 442 553 442 589 559 c 128,-1,22
 625 676 625 676 682 774 c 128,-1,23
 739 872 739 872 813 939 c 128,-1,24
 887 1006 887 1006 967 1006 c 1,25,26
 1032 1010 1032 1010 1092.5 972 c 128,-1,27
 1153 934 1153 934 1203 867.5 c 128,-1,28
 1253 801 1253 801 1292 713 c 128,-1,29
 1331 625 1331 625 1356.5 533.5 c 128,-1,30
 1382 442 1382 442 1393.5 357 c 128,-1,31
 1405 272 1405 272 1403 207 c 1,32,-1
 1569 207 l 1,33,-1
 1569 0 l 1,34,-1
 1405 0 l 1,35,-1
 1391 -106 l 1,36,37
 1362 -193 1362 -193 1282 -275.5 c 128,-1,38
 1202 -358 1202 -358 1098.5 -421.5 c 128,-1,39
 995 -485 995 -485 877.5 -521 c 128,-1,40
 760 -557 760 -557 651 -557 c 0,41,42
 514 -557 514 -557 407.5 -519 c 128,-1,43
 301 -481 301 -481 225.5 -408.5 c 128,-1,44
 150 -336 150 -336 108 -232.5 c 128,-1,45
 66 -129 66 -129 66 0 c 0,0,1
752 373 m 0,46,47
 752 285 752 285 781.5 246 c 128,-1,48
 811 207 811 207 891 207 c 2,49,-1
 1196 207 l 1,50,51
 1196 293 1196 293 1178.5 396.5 c 128,-1,52
 1161 500 1161 500 1132.5 586 c 128,-1,53
 1104 672 1104 672 1064 727 c 128,-1,54
 1024 782 1024 782 977 782 c 0,55,56
 938 782 938 782 898 735 c 128,-1,57
 858 688 858 688 827.5 622.5 c 128,-1,58
 797 557 797 557 774.5 487.5 c 128,-1,59
 752 418 752 418 752 373 c 0,46,47
EndSplineSet
EndChar

StartChar: afii62887
Encoding: 65556 -1 124
Width: 1890
Flags: W
LayerCount: 2
Fore
SplineSet
66 465 m 0,0,1
 66 588 66 588 143 758 c 0,2,3
 207 903 207 903 289 991 c 1,4,-1
 453 858 l 1,5,6
 373 774 373 774 330 672 c 0,7,8
 281 551 281 551 281 451 c 0,9,10
 281 344 281 344 330 281 c 0,11,12
 385 207 385 207 485 207 c 2,13,-1
 1442 207 l 2,14,15
 1507 207 1507 207 1554 258 c 0,16,17
 1593 303 1593 303 1593 373 c 0,18,19
 1593 401 1593 401 1585 428 c 2,20,-1
 1417 924 l 1,21,-1
 1612 1016 l 1,22,-1
 1692 786 l 1,23,-1
 1798 473 l 2,24,25
 1819 418 1819 418 1819 358 c 0,26,27
 1819 223 1819 223 1735 115 c 0,28,29
 1649 0 1649 0 1513 0 c 2,30,-1
 453 0 l 2,31,32
 279 0 279 0 166 150 c 0,33,34
 66 285 66 285 66 465 c 0,0,1
EndSplineSet
EndChar

StartChar: afii62888
Encoding: 1697 1697 125
Width: 1886
GlyphClass: 2
Flags: W
LayerCount: 2
Fore
SplineSet
66 465 m 0,0,1
 66 524 66 524 83 595 c 128,-1,2
 100 666 100 666 130 734.5 c 128,-1,3
 160 803 160 803 198 867.5 c 128,-1,4
 236 932 236 932 281 977 c 1,5,-1
 442 858 l 1,6,7
 414 829 414 829 383 777 c 128,-1,8
 352 725 352 725 329.5 664.5 c 128,-1,9
 307 604 307 604 294 546.5 c 128,-1,10
 281 489 281 489 281 451 c 0,11,12
 281 344 281 344 334 275.5 c 128,-1,13
 387 207 387 207 487 207 c 2,14,-1
 1446 207 l 2,15,16
 1599 207 1599 207 1612 285 c 1,17,18
 1532 272 1532 272 1486 266 c 128,-1,19
 1440 260 1440 260 1415.5 256 c 128,-1,20
 1391 252 1391 252 1376 252 c 2,21,-1
 1360 252 l 2,22,23
 958 252 958 252 958 590 c 0,24,25
 958 666 958 666 981 737.5 c 128,-1,26
 1004 809 1004 809 1043.5 866.5 c 128,-1,27
 1083 924 1083 924 1135.5 962.5 c 128,-1,28
 1188 1001 1188 1001 1245 1010 c 0,29,30
 1290 1020 1290 1020 1351.5 996.5 c 128,-1,31
 1413 973 1413 973 1477.5 920.5 c 128,-1,32
 1542 868 1542 868 1603.5 799.5 c 128,-1,33
 1665 731 1665 731 1713 653 c 128,-1,34
 1761 575 1761 575 1790 489 c 128,-1,35
 1819 403 1819 403 1819 330 c 0,36,37
 1819 252 1819 252 1790 191.5 c 128,-1,38
 1761 131 1761 131 1711 88 c 128,-1,39
 1661 45 1661 45 1593.5 22.5 c 128,-1,40
 1526 0 1526 0 1446 0 c 2,41,-1
 453 0 l 2,42,43
 371 0 371 0 300 37 c 128,-1,44
 229 74 229 74 176 137.5 c 128,-1,45
 123 201 123 201 94.5 287 c 128,-1,46
 66 373 66 373 66 465 c 0,0,1
1163 608 m 0,47,48
 1163 537 1163 537 1206 498 c 128,-1,49
 1249 459 1249 459 1331 459 c 0,50,51
 1389 459 1389 459 1425.5 462 c 128,-1,52
 1462 465 1462 465 1487.5 472 c 128,-1,53
 1513 479 1513 479 1529.5 484 c 128,-1,54
 1546 489 1546 489 1556 500 c 1,55,56
 1542 537 1542 537 1509.5 587 c 128,-1,57
 1477 637 1477 637 1435 684 c 128,-1,58
 1393 731 1393 731 1352 764 c 128,-1,59
 1311 797 1311 797 1270 797 c 0,60,61
 1225 797 1225 797 1194 736.5 c 128,-1,62
 1163 676 1163 676 1163 608 c 0,47,48
EndSplineSet
Substitution2: "'medi' Medial Forms in Arabic lookup 3 subtable" afii57374
Substitution2: "'fina' Terminal Forms in Arabic lookup 2 subtable" afii52258
Substitution2: "'init' Initial Forms in Arabic lookup 1 subtable" afii57459
EndChar

StartChar: afii57567
Encoding: 1705 1705 132
Width: 1812
GlyphClass: 2
Flags: W
AnchorPoint: "Anchor-3" 885 -540 basechar 0
AnchorPoint: "Anchor-2" 690 1470 basechar 0
LayerCount: 2
Fore
SplineSet
66 475 m 0,0,1
 66 739 66 739 303 1016 c 1,2,-1
 453 868 l 1,3,4
 274 674 274 674 274 510 c 0,5,6
 274 453 274 453 294.5 398.5 c 128,-1,7
 315 344 315 344 352 301 c 128,-1,8
 389 258 389 258 438 232 c 0,9,10
 487 207 487 207 543 207 c 2,11,-1
 1420 207 l 2,12,13
 1537 207 1537 207 1537 330 c 1,14,-1
 1498 647 l 2,15,16
 1494 680 1494 680 1474.5 711.5 c 128,-1,17
 1455 743 1455 743 1421 772 c 128,-1,18
 1387 801 1387 801 1340 816 c 128,-1,19
 1293 831 1293 831 1234 831 c 2,20,-1
 976 829 l 2,21,22
 867 829 867 829 867 954 c 1,23,-1
 892 1106 l 1,24,25
 934 1270 934 1270 1037.5 1312.5 c 128,-1,26
 1141 1355 1141 1355 1280.5 1360.5 c 128,-1,27
 1420 1366 1420 1366 1481.5 1364 c 128,-1,28
 1543 1362 1543 1362 1678 1349 c 1,29,-1
 1678 1146 l 1,30,31
 1068 1218 1068 1218 1071 1024 c 1,32,-1
 1262 1020 l 2,33,34
 1651 1010 1651 1010 1686 717 c 2,35,-1
 1731 293 l 1,36,37
 1731 236 1731 236 1714.5 181.5 c 128,-1,38
 1698 127 1698 127 1667.5 86 c 128,-1,39
 1637 45 1637 45 1593 22.5 c 128,-1,40
 1549 0 1549 0 1494 0 c 2,41,-1
 573 0 l 2,42,43
 465 0 465 0 372 36 c 128,-1,44
 279 72 279 72 211 135.5 c 128,-1,45
 143 199 143 199 104.5 286 c 128,-1,46
 66 373 66 373 66 475 c 0,0,1
EndSplineSet
Substitution2: "'medi' Medial Forms in Arabic lookup 3 subtable" afii52306
Substitution2: "'fina' Terminal Forms in Arabic lookup 2 subtable" afii62964
Substitution2: "'init' Initial Forms in Arabic lookup 1 subtable" afii52305
EndChar

StartChar: afii62964
Encoding: 64399 64399 133
Width: 1886
GlyphClass: 2
Flags: W
AnchorPoint: "Anchor-3" 705 -525 basechar 0
AnchorPoint: "Anchor-2" 735 1485 basechar 0
LayerCount: 2
Fore
SplineSet
66 475 m 0,0,1
 66 739 66 739 303 1016 c 1,2,-1
 453 868 l 1,3,4
 274 674 274 674 274 510 c 0,5,6
 274 453 274 453 294.5 398.5 c 128,-1,7
 315 344 315 344 352 301 c 128,-1,8
 389 258 389 258 438 232.5 c 128,-1,9
 487 207 487 207 543 207 c 2,10,-1
 1427 207 l 2,11,12
 1542 207 1542 207 1542 330 c 1,13,-1
 1503 647 l 2,14,15
 1497 680 1497 680 1479.5 712.5 c 128,-1,16
 1462 745 1462 745 1427.5 771 c 128,-1,17
 1393 797 1393 797 1345.5 814 c 128,-1,18
 1298 831 1298 831 1239 831 c 2,19,-1
 1026 831 l 1,20,-1
 981 829 l 1,21,22
 872 829 872 829 872 954 c 1,23,-1
 897 1118 l 2,24,25
 911 1206 911 1206 970.5 1256.5 c 128,-1,26
 1030 1307 1030 1307 1109 1333.5 c 128,-1,27
 1188 1360 1188 1360 1274 1365 c 128,-1,28
 1360 1370 1360 1370 1417 1370 c 0,29,30
 1485 1370 1485 1370 1548.5 1365 c 128,-1,31
 1612 1360 1612 1360 1683 1348 c 1,32,-1
 1683 1145 l 1,33,34
 1626 1155 1626 1155 1564.5 1164.5 c 128,-1,35
 1503 1174 1503 1174 1427 1176 c 0,36,37
 1087 1176 1087 1176 1087 1024 c 1,38,-1
 1268 1020 l 2,39,40
 1657 1010 1657 1010 1692 717 c 2,41,-1
 1733 373 l 2,42,43
 1749 207 1749 207 1847 207 c 2,44,-1
 1923 207 l 1,45,-1
 1923 0 l 1,46,-1
 1806 0 l 2,47,48
 1761 0 1761 0 1722 25.5 c 128,-1,49
 1683 51 1683 51 1665 80 c 1,50,51
 1591 0 1591 0 1499 0 c 2,52,-1
 573 0 l 2,53,54
 465 0 465 0 372 36 c 128,-1,55
 279 72 279 72 211 135.5 c 128,-1,56
 143 199 143 199 104.5 286 c 128,-1,57
 66 373 66 373 66 475 c 0,0,1
EndSplineSet
EndChar

StartChar: afii52305
Encoding: 64400 64400 134
Width: 1079
GlyphClass: 2
Flags: W
AnchorPoint: "Anchor-3" 360 -585 basechar 0
AnchorPoint: "Anchor-2" 420 1545 basechar 0
LayerCount: 2
Fore
SplineSet
-29 0 m 1,0,-1
 -29 207 l 1,1,-1
 680 207 l 2,2,3
 797 207 797 207 797 330 c 1,4,-1
 758 647 l 2,5,6
 754 680 754 680 734.5 711.5 c 128,-1,7
 715 743 715 743 681 772 c 128,-1,8
 647 801 647 801 600 816 c 128,-1,9
 553 831 553 831 494 831 c 2,10,-1
 236 829 l 2,11,12
 127 829 127 829 127 954 c 1,13,-1
 152 1106 l 1,14,15
 194 1270 194 1270 297.5 1312.5 c 128,-1,16
 401 1355 401 1355 540.5 1360.5 c 128,-1,17
 680 1366 680 1366 741.5 1364 c 128,-1,18
 803 1362 803 1362 938 1349 c 1,19,-1
 938 1146 l 1,20,21
 328 1218 328 1218 331 1024 c 1,22,-1
 522 1020 l 2,23,24
 911 1010 911 1010 946 717 c 2,25,-1
 991 293 l 1,26,27
 991 236 991 236 974.5 181.5 c 128,-1,28
 958 127 958 127 927.5 86 c 128,-1,29
 897 45 897 45 853 22.5 c 128,-1,30
 809 0 809 0 754 0 c 2,31,-1
 -29 0 l 1,0,-1
EndSplineSet
EndChar

StartChar: afii52306
Encoding: 64401 64401 135
Width: 1198
GlyphClass: 2
Flags: W
AnchorPoint: "Anchor-3" 585 -645 basechar 0
AnchorPoint: "Anchor-2" 480 1590 basechar 0
LayerCount: 2
Fore
SplineSet
-12 0 m 1,0,-1
 -12 207 l 1,1,-1
 688 207 l 2,2,3
 803 207 803 207 803 330 c 1,4,-1
 762 647 l 2,5,6
 758 680 758 680 738.5 712.5 c 128,-1,7
 719 745 719 745 688 771 c 128,-1,8
 657 797 657 797 609 814 c 128,-1,9
 561 831 561 831 500 831 c 2,10,-1
 287 831 l 1,11,-1
 246 829 l 1,12,13
 131 829 131 829 131 954 c 1,14,-1
 160 1118 l 1,15,16
 170 1202 170 1202 222 1250 c 128,-1,17
 274 1298 274 1298 349 1323 c 128,-1,18
 424 1348 424 1348 513 1356 c 128,-1,19
 602 1364 602 1364 690 1364 c 0,20,21
 772 1364 772 1364 833.5 1356 c 128,-1,22
 895 1348 895 1348 940 1335 c 1,23,-1
 946 1145 l 1,24,25
 889 1155 889 1155 830.5 1165.5 c 128,-1,26
 772 1176 772 1176 688 1176 c 0,27,28
 346 1176 346 1176 346 1024 c 1,29,-1
 528 1020 l 1,30,31
 918 1006 918 1006 952 717 c 2,32,-1
 995 373 l 2,33,34
 1016 207 1016 207 1110 207 c 2,35,-1
 1210 207 l 1,36,-1
 1210 0 l 1,37,-1
 1069 0 l 2,38,39
 995 0 995 0 926 80 c 1,40,41
 852 0 852 0 760 0 c 2,42,-1
 -12 0 l 1,0,-1
EndSplineSet
EndChar

StartChar: afii57509
Encoding: 1711 1711 136
Width: 1815
GlyphClass: 2
Flags: W
AnchorPoint: "Anchor-3" 810 -645 basechar 0
AnchorPoint: "Anchor-2" 645 1620 basechar 0
LayerCount: 2
Fore
SplineSet
1001 1546 m 1,0,1
 1102 1575 1102 1575 1199 1582 c 128,-1,2
 1296 1589 1296 1589 1348 1589 c 2,3,-1
 1690 1579 l 1,4,-1
 1690 1499 l 1,5,-1
 1335 1511 l 2,6,7
 1255 1511 1255 1511 1169 1504 c 128,-1,8
 1083 1497 1083 1497 1018 1475 c 1,9,-1
 1001 1546 l 1,0,1
66 475 m 0,10,11
 66 373 66 373 104.5 286 c 128,-1,12
 143 199 143 199 211 135.5 c 128,-1,13
 279 72 279 72 372 36 c 128,-1,14
 465 0 465 0 573 0 c 2,15,-1
 1494 0 l 2,16,17
 1549 0 1549 0 1593 22.5 c 128,-1,18
 1637 45 1637 45 1667.5 86 c 128,-1,19
 1698 127 1698 127 1714.5 181.5 c 128,-1,20
 1731 236 1731 236 1731 293 c 1,21,-1
 1686 717 l 2,22,23
 1651 1010 1651 1010 1262 1020 c 2,24,-1
 1071 1024 l 1,25,26
 1068 1218 1068 1218 1678 1146 c 1,27,-1
 1678 1349 l 1,28,29
 1543 1362 1543 1362 1481.5 1364 c 128,-1,30
 1420 1366 1420 1366 1280.5 1360.5 c 128,-1,31
 1141 1355 1141 1355 1037.5 1312.5 c 128,-1,32
 934 1270 934 1270 892 1106 c 1,33,-1
 867 954 l 1,34,35
 867 829 867 829 976 829 c 2,36,-1
 1234 831 l 2,37,38
 1293 831 1293 831 1340 816 c 128,-1,39
 1387 801 1387 801 1421 772 c 128,-1,40
 1455 743 1455 743 1474.5 711.5 c 128,-1,41
 1494 680 1494 680 1498 647 c 2,42,-1
 1537 330 l 1,43,44
 1537 207 1537 207 1420 207 c 2,45,-1
 543 207 l 2,46,47
 487 207 487 207 438 232 c 0,48,49
 389 258 389 258 352 301 c 128,-1,50
 315 344 315 344 294.5 398.5 c 128,-1,51
 274 453 274 453 274 510 c 0,52,53
 274 674 274 674 453 868 c 1,54,-1
 303 1016 l 1,55,56
 66 739 66 739 66 475 c 0,10,11
EndSplineSet
Substitution2: "'medi' Medial Forms in Arabic lookup 3 subtable" afii62966
Substitution2: "'fina' Terminal Forms in Arabic lookup 2 subtable" afii62967
Substitution2: "'init' Initial Forms in Arabic lookup 1 subtable" afii62965
EndChar

StartChar: afii62967
Encoding: 64403 64403 137
Width: 1898
GlyphClass: 2
Flags: W
AnchorPoint: "Anchor-3" 780 -645 basechar 0
AnchorPoint: "Anchor-2" 705 1650 basechar 0
LayerCount: 2
Fore
SplineSet
66 475 m 0,0,1
 66 739 66 739 303 1016 c 1,2,-1
 453 868 l 1,3,4
 274 674 274 674 274 510 c 0,5,6
 274 453 274 453 294.5 398.5 c 128,-1,7
 315 344 315 344 352 301 c 128,-1,8
 389 258 389 258 438 232.5 c 128,-1,9
 487 207 487 207 543 207 c 2,10,-1
 1427 207 l 2,11,12
 1542 207 1542 207 1542 330 c 1,13,-1
 1503 647 l 2,14,15
 1497 680 1497 680 1479.5 712.5 c 128,-1,16
 1462 745 1462 745 1427.5 771 c 128,-1,17
 1393 797 1393 797 1345.5 814 c 128,-1,18
 1298 831 1298 831 1239 831 c 2,19,-1
 1026 831 l 1,20,-1
 981 829 l 1,21,22
 866 829 866 829 866 952 c 1,23,-1
 897 1118 l 2,24,25
 926 1276 926 1276 1118 1346 c 1,26,27
 1331 1382 1331 1382 1462 1373 c 128,-1,28
 1593 1364 1593 1364 1683 1348 c 1,29,-1
 1683 1145 l 1,30,31
 1661 1147 1661 1147 1637.5 1153 c 128,-1,32
 1614 1159 1614 1159 1585 1163 c 128,-1,33
 1556 1167 1556 1167 1519.5 1171.5 c 128,-1,34
 1483 1176 1483 1176 1427 1176 c 0,35,36
 1087 1176 1087 1176 1087 1024 c 1,37,-1
 1268 1020 l 2,38,39
 1657 1010 1657 1010 1692 717 c 2,40,-1
 1733 373 l 2,41,42
 1749 207 1749 207 1847 207 c 2,43,-1
 1923 207 l 1,44,-1
 1923 0 l 1,45,-1
 1806 0 l 2,46,47
 1761 0 1761 0 1722 25.5 c 128,-1,48
 1683 51 1683 51 1665 80 c 1,49,50
 1591 0 1591 0 1499 0 c 2,51,-1
 573 0 l 2,52,53
 465 0 465 0 372 36 c 128,-1,54
 279 72 279 72 211 135.5 c 128,-1,55
 143 199 143 199 104.5 286 c 128,-1,56
 66 373 66 373 66 475 c 0,0,1
1001 1540 m 1,57,58
 1075 1554 1075 1554 1142.5 1564.5 c 128,-1,59
 1210 1575 1210 1575 1260.5 1579 c 128,-1,60
 1311 1583 1311 1583 1339 1583 c 2,61,-1
 1376 1583 l 1,62,-1
 1690 1565 l 1,63,-1
 1690 1485 l 1,64,-1
 1378 1511 l 2,65,66
 1346 1511 1346 1511 1296.5 1507 c 128,-1,67
 1247 1503 1247 1503 1196 1497 c 128,-1,68
 1145 1491 1145 1491 1097 1484 c 128,-1,69
 1049 1477 1049 1477 1016 1470 c 1,70,-1
 1001 1540 l 1,57,58
EndSplineSet
EndChar

StartChar: afii62965
Encoding: 64404 64404 138
Width: 1079
GlyphClass: 2
Flags: W
AnchorPoint: "Anchor-3" 435 -615 basechar 0
AnchorPoint: "Anchor-2" 360 1725 basechar 0
LayerCount: 2
Fore
SplineSet
-29 0 m 1,0,-1
 -29 207 l 1,1,-1
 680 207 l 2,2,3
 797 207 797 207 797 330 c 1,4,-1
 758 647 l 2,5,6
 754 680 754 680 734.5 711.5 c 128,-1,7
 715 743 715 743 681 772 c 128,-1,8
 647 801 647 801 600 816 c 128,-1,9
 553 831 553 831 494 831 c 2,10,-1
 236 829 l 2,11,12
 127 829 127 829 127 954 c 1,13,-1
 152 1106 l 1,14,15
 194 1270 194 1270 297.5 1312.5 c 128,-1,16
 401 1355 401 1355 540.5 1360.5 c 128,-1,17
 680 1366 680 1366 741.5 1364 c 128,-1,18
 803 1362 803 1362 938 1349 c 1,19,-1
 938 1146 l 1,20,21
 328 1218 328 1218 331 1024 c 1,22,-1
 522 1020 l 2,23,24
 911 1010 911 1010 946 717 c 2,25,-1
 991 293 l 1,26,27
 991 236 991 236 974.5 181.5 c 128,-1,28
 958 127 958 127 927.5 86 c 128,-1,29
 897 45 897 45 853 22.5 c 128,-1,30
 809 0 809 0 754 0 c 2,31,-1
 -29 0 l 1,0,-1
252 1511 m 1,32,33
 342 1532 342 1532 443.5 1544.5 c 128,-1,34
 545 1557 545 1557 644 1556.5 c 128,-1,35
 743 1556 743 1556 793.5 1553 c 128,-1,36
 844 1550 844 1550 870.5 1548 c 128,-1,37
 897 1546 897 1546 911.5 1544 c 128,-1,38
 926 1542 926 1542 940 1542 c 1,39,-1
 940 1475 l 1,40,41
 862 1485 862 1485 789.5 1491 c 128,-1,42
 717 1497 717 1497 566.5 1493 c 128,-1,43
 416 1489 416 1489 270 1446 c 1,44,-1
 252 1511 l 1,32,33
EndSplineSet
EndChar

StartChar: afii62966
Encoding: 64405 64405 139
Width: 1184
GlyphClass: 2
Flags: W
AnchorPoint: "Anchor-3" 435 -615 basechar 0
AnchorPoint: "Anchor-2" 510 1770 basechar 0
LayerCount: 2
Fore
SplineSet
-41 0 m 1,0,-1
 -41 207 l 1,1,-1
 672 207 l 2,2,3
 786 207 786 207 786 330 c 1,4,-1
 748 647 l 2,5,6
 743 680 743 680 724 712.5 c 128,-1,7
 705 745 705 745 671 771 c 128,-1,8
 637 797 637 797 591 814 c 128,-1,9
 545 831 545 831 485 831 c 2,10,-1
 272 831 l 1,11,-1
 229 829 l 2,12,13
 170 829 170 829 138 859 c 128,-1,14
 106 889 106 889 106 954 c 1,15,-1
 137 1130 l 1,16,17
 156 1210 156 1210 218.5 1261.5 c 128,-1,18
 281 1313 281 1313 380 1336.5 c 128,-1,19
 479 1360 479 1360 558 1362 c 128,-1,20
 637 1364 637 1364 699.5 1364 c 128,-1,21
 762 1364 762 1364 817 1359 c 128,-1,22
 872 1354 872 1354 932 1348 c 1,23,-1
 932 1145 l 1,24,25
 905 1147 905 1147 618.5 1161.5 c 128,-1,26
 332 1176 332 1176 332 1024 c 1,27,-1
 514 1020 l 1,28,29
 903 1006 903 1006 934 717 c 1,30,-1
 981 373 l 2,31,32
 1001 207 1001 207 1092 207 c 2,33,-1
 1196 207 l 1,34,-1
 1196 0 l 1,35,-1
 1055 0 l 2,36,37
 981 0 981 0 911 80 c 1,38,39
 834 0 834 0 745 0 c 2,40,-1
 -41 0 l 1,0,-1
246 1507 m 1,41,42
 466 1565 466 1565 905 1542 c 1,43,-1
 934 1460 l 1,44,-1
 580 1483 l 1,45,46
 500 1475 500 1475 415 1467.5 c 128,-1,47
 330 1460 330 1460 258 1442 c 1,48,-1
 246 1507 l 1,41,42
EndSplineSet
EndChar

StartChar: afii57555
Encoding: 1740 1740 140
Width: 1362
GlyphClass: 2
Flags: W
AnchorPoint: "Anchor-3" 540 -930 basechar 0
AnchorPoint: "Anchor-2" 675 1260 basechar 0
LayerCount: 2
Fore
SplineSet
66 41 m 1,0,1
 70 127 70 127 92.5 220 c 128,-1,2
 115 313 115 313 151.5 406.5 c 128,-1,3
 188 500 188 500 234.5 583 c 128,-1,4
 281 666 281 666 332 733 c 1,5,-1
 510 631 l 1,6,7
 459 561 459 561 416 480 c 128,-1,8
 373 399 373 399 344 322.5 c 128,-1,9
 315 246 315 246 298 180.5 c 128,-1,10
 281 115 281 115 281 74 c 0,11,12
 281 -55 281 -55 371 -100 c 1,13,14
 436 -137 436 -137 575 -137 c 0,15,16
 686 -137 686 -137 774 -115.5 c 128,-1,17
 862 -94 862 -94 925.5 -55 c 128,-1,18
 989 -16 989 -16 1024 31 c 128,-1,19
 1059 78 1059 78 1059 131 c 0,20,21
 1059 213 1059 213 975 293 c 0,22,23
 887 381 887 381 836.5 437.5 c 128,-1,24
 786 494 786 494 762.5 537 c 128,-1,25
 739 580 739 580 732 613.5 c 128,-1,26
 725 647 725 647 725 686 c 0,27,28
 725 766 725 766 753.5 830.5 c 128,-1,29
 782 895 782 895 829.5 936 c 128,-1,30
 877 977 877 977 940.5 1000.5 c 128,-1,31
 1004 1024 1004 1024 1075 1024 c 2,32,-1
 1298 1024 l 1,33,-1
 1298 809 l 1,34,-1
 1061 809 l 2,35,36
 1010 809 1010 809 978 774 c 128,-1,37
 946 739 946 739 946 688 c 0,38,39
 946 618 946 618 1034 532 c 1,40,-1
 1188 367 l 1,41,42
 1278 250 1278 250 1278 127 c 0,43,44
 1278 -113 1278 -113 1024 -238 c 0,45,46
 823 -336 823 -336 553 -336 c 0,47,48
 66 -336 66 -336 66 41 c 1,0,1
EndSplineSet
Substitution2: "'medi' Medial Forms in Arabic lookup 3 subtable" afii62832
Substitution2: "'fina' Terminal Forms in Arabic lookup 2 subtable" afii52364
Substitution2: "'init' Initial Forms in Arabic lookup 1 subtable" uniFBFE
EndChar

StartChar: afii52364
Encoding: 64509 64509 141
Width: 1303
GlyphClass: 2
Flags: W
AnchorPoint: "Anchor-3" 510 -975 basechar 0
AnchorPoint: "Anchor-2" 735 1035 basechar 0
LayerCount: 2
Fore
SplineSet
66 -29 m 0,0,1
 66 16 66 16 83 97 c 128,-1,2
 100 178 100 178 141 274 c 0,3,4
 217 459 217 459 306 608.5 c 128,-1,5
 395 758 395 758 436 797 c 1,6,-1
 602 682 l 1,7,8
 467 471 467 471 413.5 360.5 c 128,-1,9
 360 250 360 250 326.5 156.5 c 128,-1,10
 293 63 293 63 293 14 c 0,11,12
 293 -131 293 -131 395 -193 c 0,13,14
 416 -207 416 -207 465 -215 c 128,-1,15
 514 -223 514 -223 578 -223 c 0,16,17
 643 -223 643 -223 708.5 -218 c 128,-1,18
 774 -213 774 -213 830.5 -196.5 c 128,-1,19
 887 -180 887 -180 922.5 -155.5 c 128,-1,20
 958 -131 958 -131 958 -98 c 0,21,22
 958 -45 958 -45 913 -22.5 c 128,-1,23
 868 0 868 0 823 0 c 1,24,-1
 823 207 l 1,25,-1
 1360 207 l 1,26,-1
 1360 0 l 1,27,-1
 1147 0 l 1,28,29
 1169 -51 1169 -51 1178.5 -71.5 c 128,-1,30
 1188 -92 1188 -92 1188 -109 c 0,31,32
 1188 -213 1188 -213 1124.5 -277.5 c 128,-1,33
 1061 -342 1061 -342 971 -375 c 128,-1,34
 881 -408 881 -408 780.5 -419 c 128,-1,35
 680 -430 680 -430 602 -430 c 0,36,37
 66 -430 66 -430 66 -29 c 0,0,1
EndSplineSet
EndChar

StartChar: afii62945
Encoding: 65557 -1 147
Width: 1921
GlyphClass: 3
Flags: W
LayerCount: 2
Fore
SplineSet
1376 0 m 1,0,-1
 1376 2 l 1,1,2
 1346 8 1346 8 1313 29 c 0,3,4
 1264 57 1264 57 1249 98 c 1,5,6
 1182 0 1182 0 1073 0 c 2,7,-1
 854 0 l 2,8,9
 618 0 618 0 618 399 c 1,10,-1
 645 739 l 2,11,12
 645 774 645 774 634 787.5 c 128,-1,13
 623 801 623 801 580 801 c 0,14,15
 528 801 528 801 473 777.5 c 128,-1,16
 418 754 418 754 373 715 c 128,-1,17
 328 676 328 676 297 628 c 128,-1,18
 266 580 266 580 266 524 c 0,19,20
 266 496 266 496 282.5 442.5 c 128,-1,21
 299 389 299 389 324.5 330.5 c 128,-1,22
 350 272 350 272 379 218 c 128,-1,23
 408 164 408 164 430 127 c 1,24,-1
 285 8 l 1,25,26
 236 57 236 57 198 126 c 128,-1,27
 160 195 160 195 129 269.5 c 128,-1,28
 98 344 98 344 80.5 415.5 c 128,-1,29
 63 487 63 487 63 545 c 0,30,31
 59 637 59 637 112.5 723 c 128,-1,32
 166 809 166 809 247 874.5 c 128,-1,33
 328 940 328 940 430 980 c 128,-1,34
 532 1020 532 1020 625 1020 c 0,35,36
 672 1020 672 1020 713 1005.5 c 128,-1,37
 754 991 754 991 786.5 968.5 c 128,-1,38
 819 946 819 946 838.5 913.5 c 128,-1,39
 858 881 858 881 858 844 c 2,40,-1
 825 338 l 1,41,42
 825 207 825 207 911 207 c 2,43,-1
 1014 207 l 1,44,45
 1071 211 1071 211 1100 266 c 0,46,47
 1133 328 1133 328 1133 403 c 0,48,49
 1133 825 1133 825 987 1335 c 1,50,-1
 1176 1399 l 1,51,52
 1188 1384 1188 1384 1235 1189.5 c 128,-1,53
 1282 995 1282 995 1308.5 747.5 c 128,-1,54
 1335 500 1335 500 1335 428 c 0,55,56
 1335 342 1335 342 1366 274 c 0,57,58
 1397 211 1397 211 1448 207 c 1,59,-1
 1540 207 l 2,60,61
 1669 207 1669 207 1669 389 c 0,62,63
 1669 844 1669 844 1513 1325 c 1,64,-1
 1704 1403 l 1,65,66
 1870 911 1870 911 1870 395 c 0,67,68
 1870 246 1870 246 1812 141 c 0,69,70
 1737 0 1737 0 1612 0 c 2,71,-1
 1376 0 l 1,0,-1
EndSplineSet
EndChar

StartChar: afii64184
Encoding: 65010 65010 148
Width: 1921
GlyphClass: 3
Flags: W
AnchorPoint: "Anchor-1" 1680 -390 baselig 0
AnchorPoint: "Anchor-0" 1560 1560 baselig 0
AnchorPoint: "Anchor-1" 1185 -480 baselig 1
AnchorPoint: "Anchor-0" 1050 1515 baselig 1
AnchorPoint: "Anchor-1" 315 -555 baselig 2
AnchorPoint: "Anchor-0" 300 1155 baselig 2
LayerCount: 2
Fore
SplineSet
1376 0 m 1,0,-1
 1376 2 l 1,1,2
 1346 8 1346 8 1313 29 c 0,3,4
 1264 57 1264 57 1249 98 c 1,5,6
 1182 0 1182 0 1073 0 c 2,7,-1
 854 0 l 2,8,9
 618 0 618 0 618 399 c 1,10,-1
 645 739 l 2,11,12
 645 774 645 774 634 787.5 c 128,-1,13
 623 801 623 801 580 801 c 0,14,15
 528 801 528 801 473 777.5 c 128,-1,16
 418 754 418 754 373 715 c 128,-1,17
 328 676 328 676 297 628 c 128,-1,18
 266 580 266 580 266 524 c 0,19,20
 266 496 266 496 282.5 442.5 c 128,-1,21
 299 389 299 389 324.5 330.5 c 128,-1,22
 350 272 350 272 379 218 c 128,-1,23
 408 164 408 164 430 127 c 1,24,-1
 285 8 l 1,25,26
 236 57 236 57 198 126 c 128,-1,27
 160 195 160 195 129 269.5 c 128,-1,28
 98 344 98 344 80.5 415.5 c 128,-1,29
 63 487 63 487 63 545 c 0,30,31
 59 637 59 637 112.5 723 c 128,-1,32
 166 809 166 809 247 874.5 c 128,-1,33
 328 940 328 940 430 980 c 128,-1,34
 532 1020 532 1020 625 1020 c 0,35,36
 672 1020 672 1020 713 1005.5 c 128,-1,37
 754 991 754 991 786.5 968.5 c 128,-1,38
 819 946 819 946 838.5 913.5 c 128,-1,39
 858 881 858 881 858 844 c 2,40,-1
 825 338 l 1,41,42
 825 207 825 207 911 207 c 2,43,-1
 1014 207 l 1,44,45
 1071 211 1071 211 1100 266 c 0,46,47
 1133 328 1133 328 1133 403 c 0,48,49
 1133 825 1133 825 987 1335 c 1,50,-1
 1176 1399 l 1,51,52
 1188 1384 1188 1384 1235 1189.5 c 128,-1,53
 1282 995 1282 995 1308.5 747.5 c 128,-1,54
 1335 500 1335 500 1335 428 c 0,55,56
 1335 342 1335 342 1366 274 c 0,57,58
 1397 211 1397 211 1448 207 c 1,59,-1
 1540 207 l 2,60,61
 1669 207 1669 207 1669 389 c 0,62,63
 1669 844 1669 844 1513 1325 c 1,64,-1
 1704 1403 l 1,65,66
 1870 911 1870 911 1870 395 c 0,67,68
 1870 246 1870 246 1812 141 c 0,69,70
 1737 0 1737 0 1612 0 c 2,71,-1
 1376 0 l 1,0,-1
936 1517 m 0,72,73
 876 1523 876 1523 837 1582 c 1,74,75
 827 1605 827 1605 821 1632.5 c 128,-1,76
 815 1660 815 1660 815 1683 c 1,77,-1
 792 1795 l 1,78,-1
 876 1812 l 1,79,-1
 886 1726 l 1,80,81
 899 1670 899 1670 899 1656 c 1,82,83
 915 1611 915 1611 952 1605 c 0,84,85
 999 1599 999 1599 1007 1666 c 0,86,87
 1009 1681 1009 1681 1007 1685 c 2,88,-1
 993 1810 l 1,89,-1
 1077 1832 l 1,90,-1
 1091 1705 l 1,91,92
 1091 1660 1091 1660 1101 1640 c 0,93,94
 1120 1588 1120 1588 1148 1584 c 0,95,96
 1173 1582 1173 1582 1192 1605 c 0,97,98
 1206 1625 1206 1625 1210 1646 c 0,99,100
 1210 1656 1210 1656 1206 1674 c 2,101,-1
 1171 1818 l 1,102,-1
 1253 1838 l 1,103,-1
 1296 1685 l 1,104,-1
 1300 1662 l 1,105,-1
 1300 1638 l 1,106,107
 1294 1574 1294 1574 1252 1536 c 128,-1,108
 1210 1498 1210 1498 1148 1502 c 1,109,110
 1077 1513 1077 1513 1050 1562 c 1,111,112
 1013 1509 1013 1509 936 1517 c 0,72,73
1081 2015 m 0,113,114
 1081 2006 1081 2006 1074 1934 c 1,115,-1
 957 1934 l 1,116,117
 962 1973 962 1973 964 2017 c 128,-1,118
 966 2061 966 2061 964 2132 c 128,-1,119
 962 2203 962 2203 948 2335 c 1,120,-1
 1060 2333 l 1,121,122
 1070 2250 1070 2250 1076 2171.5 c 128,-1,123
 1082 2093 1082 2093 1081 2015 c 0,113,114
EndSplineSet
Ligature2: "'rlig' Required Ligatures in Arabic lookup 5 subtable" afii62817 afii62818 uniFC63 afii62828
Ligature2: "'rlig' Required Ligatures in Arabic lookup 5 subtable" afii62817 afii62818 afii57457 uni0670 afii62828
EndChar

StartChar: afii57415.001
Encoding: 1575 1575 162
Width: 511
GlyphClass: 2
Flags: W
AnchorPoint: "Anchor-3" 390 -435 basechar 0
AnchorPoint: "Anchor-2" 120 1650 basechar 0
LayerCount: 2
Fore
SplineSet
443 299 m 0,0,1
 445 266 445 266 445 193 c 2,2,-1
 445 0 l 1,3,-1
 232 0 l 1,4,5
 243 152 243 152 229.5 345.5 c 128,-1,6
 216 539 216 539 194.5 736.5 c 128,-1,7
 173 934 173 934 144.5 1113 c 128,-1,8
 116 1292 116 1292 87 1427 c 1,9,10
 136 1434 136 1434 190.5 1444 c 128,-1,11
 245 1454 245 1454 288 1468 c 1,12,13
 351 1174 351 1174 388 882 c 128,-1,14
 425 590 425 590 443 299 c 0,0,1
EndSplineSet
Substitution2: "'fina' Terminal Forms in Arabic lookup 2 subtable" afii62760
EndChar

StartChar: afii62760.001
Encoding: 65558 -1 163
Width: 703
GlyphClass: 2
Flags: W
LayerCount: 2
Fore
SplineSet
171 428 m 0,0,1
 181 946 181 946 353 1460 c 1,2,-1
 554 1393 l 1,3,4
 474 1118 474 1118 451.5 1000.5 c 128,-1,5
 429 883 429 883 414.5 786.5 c 128,-1,6
 400 690 400 690 394 607 c 128,-1,7
 388 524 388 524 386 442 c 0,8,9
 386 207 386 207 578 207 c 2,10,-1
 738 207 l 1,11,-1
 738 0 l 1,12,-1
 496 0 l 2,13,14
 331 0 331 0 249 141 c 1,15,16
 171 252 171 252 171 428 c 0,0,1
EndSplineSet
EndChar

StartChar: afii57421
Encoding: 1581 1581 182
Width: 1188
GlyphClass: 2
Flags: W
AnchorPoint: "Anchor-3" 645 -1125 basechar 0
AnchorPoint: "Anchor-2" 645 1245 basechar 0
LayerCount: 2
Fore
SplineSet
103 -170 m 0,0,1
 103 0 103 0 225 106 c 0,2,3
 344 207 344 207 522 207 c 2,4,-1
 881 207 l 2,5,6
 909 207 909 207 909 238 c 0,7,8
 909 260 909 260 903 279 c 2,9,-1
 655 729 l 2,10,11
 639 760 639 760 612 760 c 0,12,13
 594 760 594 760 580 729 c 2,14,-1
 397 252 l 1,15,-1
 193 328 l 1,16,-1
 422 877 l 2,17,18
 445 926 445 926 496 958 c 1,19,20
 551 981 551 981 610 981 c 0,21,22
 742 981 742 981 805 877 c 1,23,-1
 1098 332 l 2,24,25
 1124 289 1124 289 1124 236 c 0,26,27
 1124 141 1124 141 1067 72 c 0,28,29
 1006 0 1006 0 914 0 c 2,30,-1
 522 0 l 2,31,32
 330 0 330 0 330 -170 c 0,33,34
 330 -231 330 -231 369 -274 c 128,-1,35
 408 -317 408 -317 461 -328 c 2,36,-1
 1086 -428 l 1,37,-1
 1061 -643 l 1,38,-1
 379 -532 l 2,39,40
 252 -514 252 -514 174 -403 c 0,41,42
 103 -303 103 -303 103 -170 c 0,0,1
EndSplineSet
Substitution2: "'medi' Medial Forms in Arabic lookup 3 subtable" afii62775
Substitution2: "'fina' Terminal Forms in Arabic lookup 2 subtable" afii62776
Substitution2: "'init' Initial Forms in Arabic lookup 1 subtable" afii62774
EndChar

StartChar: afii62776
Encoding: 65186 65186 183
Width: 1221
GlyphClass: 2
Flags: W
AnchorPoint: "Anchor-3" 615 -1110 basechar 0
AnchorPoint: "Anchor-2" 615 1275 basechar 0
LayerCount: 2
Fore
SplineSet
66 -170 m 0,0,1
 66 0 66 0 193 106 c 1,2,3
 307 207 307 207 487 207 c 2,4,-1
 844 207 l 2,5,6
 872 207 872 207 872 238 c 0,7,8
 872 260 872 260 866 279 c 2,9,-1
 618 729 l 2,10,11
 602 760 602 760 580 760 c 0,12,13
 553 760 553 760 543 729 c 2,14,-1
 360 252 l 1,15,-1
 156 328 l 1,16,-1
 387 877 l 2,17,18
 408 926 408 926 459 958 c 1,19,20
 518 981 518 981 573 981 c 0,21,22
 711 981 711 981 772 877 c 1,23,-1
 1077 293 l 1,24,-1
 1118 238 l 1,25,26
 1153 207 1153 207 1196 207 c 2,27,-1
 1249 207 l 1,28,-1
 1249 0 l 1,29,-1
 1167 0 l 2,30,31
 1153 0 1153 0 1135.5 8 c 128,-1,32
 1118 16 1118 16 1097.5 29.5 c 128,-1,33
 1077 43 1077 43 1063 60.5 c 128,-1,34
 1049 78 1049 78 1040 92 c 1,35,36
 975 0 975 0 877 0 c 2,37,-1
 487 0 l 2,38,39
 293 0 293 0 293 -170 c 0,40,41
 293 -231 293 -231 332 -274 c 128,-1,42
 371 -317 371 -317 428 -328 c 2,43,-1
 1055 -428 l 1,44,-1
 1024 -643 l 1,45,-1
 342 -532 l 2,46,47
 215 -514 215 -514 137 -403 c 0,48,49
 66 -303 66 -303 66 -170 c 0,0,1
EndSplineSet
EndChar

StartChar: afii62774
Encoding: 65187 65187 184
Width: 1073
GlyphClass: 2
Flags: W
AnchorPoint: "Anchor-3" 420 -630 basechar 0
AnchorPoint: "Anchor-2" 465 1275 basechar 0
LayerCount: 2
Fore
SplineSet
-14 0 m 1,0,-1
 -14 207 l 1,1,-1
 786 207 l 2,2,3
 803 207 803 207 809 215 c 2,4,-1
 815 238 l 1,5,6
 815 260 815 260 809 279 c 2,7,-1
 561 729 l 2,8,9
 543 760 543 760 518 760 c 0,10,11
 500 760 500 760 485 729 c 2,12,-1
 303 252 l 1,13,-1
 98 328 l 1,14,-1
 328 877 l 2,15,16
 373 981 373 981 510 981 c 256,17,18
 647 981 647 981 711 877 c 1,19,-1
 1004 332 l 2,20,21
 1026 289 1026 289 1026 236 c 0,22,23
 1026 141 1026 141 975 74 c 1,24,25
 911 0 911 0 823 0 c 2,26,-1
 -14 0 l 1,0,-1
EndSplineSet
EndChar

StartChar: afii62775
Encoding: 65188 65188 185
Width: 1202
GlyphClass: 2
Flags: W
AnchorPoint: "Anchor-3" 435 -705 basechar 0
AnchorPoint: "Anchor-2" 450 1290 basechar 0
LayerCount: 2
Fore
SplineSet
-12 0 m 1,0,-1
 -12 207 l 1,1,-1
 809 207 l 2,2,3
 825 207 825 207 831 215 c 2,4,-1
 840 238 l 1,5,6
 840 260 840 260 831 279 c 2,7,-1
 582 729 l 2,8,9
 565 760 565 760 543 760 c 0,10,11
 522 760 522 760 510 729 c 2,12,-1
 328 252 l 1,13,-1
 121 328 l 1,14,-1
 350 877 l 2,15,16
 373 926 373 926 422 958 c 1,17,18
 481 981 481 981 532 981 c 0,19,20
 674 981 674 981 733 877 c 2,21,-1
 1047 293 l 2,22,23
 1090 207 1090 207 1155 207 c 2,24,-1
 1212 207 l 1,25,-1
 1212 0 l 1,26,-1
 1133 0 l 2,27,28
 1110 0 1110 0 1061 31 c 1,29,30
 1020 63 1020 63 1006 92 c 1,31,32
 946 0 946 0 844 0 c 2,33,-1
 -12 0 l 1,0,-1
EndSplineSet
EndChar

StartChar: afii57423
Encoding: 1583 1583 190
Width: 920
GlyphClass: 2
Flags: W
AnchorPoint: "Anchor-3" 510 -585 basechar 0
AnchorPoint: "Anchor-2" 420 1290 basechar 0
LayerCount: 2
Fore
SplineSet
139 0 m 1,0,-1
 139 207 l 1,1,-1
 565 207 l 2,2,3
 631 207 631 207 637 293 c 0,4,5
 637 330 637 330 623 352 c 2,6,-1
 260 866 l 1,7,-1
 418 995 l 1,8,-1
 809 471 l 2,9,10
 866 389 866 389 866 279 c 0,11,12
 866 164 866 164 801 84 c 0,13,14
 731 0 731 0 618 0 c 2,15,-1
 139 0 l 1,0,-1
EndSplineSet
Substitution2: "'fina' Terminal Forms in Arabic lookup 2 subtable" afii62780
EndChar

StartChar: afii62780
Encoding: 65194 65194 191
Width: 1063
GlyphClass: 2
Flags: W
AnchorPoint: "Anchor-3" 345 -555 basechar 0
AnchorPoint: "Anchor-2" 405 1245 basechar 0
LayerCount: 2
Fore
SplineSet
164 0 m 1,0,-1
 164 207 l 1,1,-1
 528 207 l 2,2,3
 594 207 594 207 604 293 c 1,4,5
 604 330 604 330 588 352 c 2,6,-1
 229 866 l 1,7,-1
 414 1004 l 1,8,-1
 889 313 l 1,9,-1
 946 246 l 1,10,11
 991 207 991 207 1024 207 c 2,12,-1
 1110 207 l 1,13,-1
 1110 0 l 1,14,-1
 952 0 l 2,15,16
 866 0 866 0 788 113 c 1,17,18
 715 0 715 0 594 0 c 2,19,-1
 164 0 l 1,0,-1
EndSplineSet
EndChar

StartChar: afii57425
Encoding: 1585 1585 194
Width: 610
GlyphClass: 2
Flags: W
AnchorPoint: "Anchor-3" 195 -1005 basechar 0
AnchorPoint: "Anchor-2" 180 1275 basechar 0
LayerCount: 2
Fore
SplineSet
133 -328 m 1,0,1
 270 -145 270 -145 326 38 c 128,-1,2
 382 221 382 221 317 416 c 1,3,-1
 262 594 l 1,4,-1
 147 905 l 1,5,-1
 327 995 l 1,6,-1
 456 637 l 2,7,8
 554 373 554 373 554 195 c 1,9,10
 532 -170 532 -170 296 -453 c 1,11,-1
 133 -328 l 1,0,1
EndSplineSet
Substitution2: "'fina' Terminal Forms in Arabic lookup 2 subtable" afii62782
EndChar

StartChar: afii62782
Encoding: 65198 65198 195
Width: 684
GlyphClass: 2
Flags: W
AnchorPoint: "Anchor-3" 195 -885 basechar 0
AnchorPoint: "Anchor-2" 300 1275 basechar 0
LayerCount: 2
Fore
SplineSet
104 -299 m 1,0,1
 317 -16 317 -16 317 260 c 0,2,3
 317 358 317 358 153 946 c 1,4,-1
 353 1034 l 1,5,-1
 519 373 l 1,6,7
 576 207 576 207 656 207 c 2,8,-1
 715 207 l 1,9,-1
 715 0 l 1,10,-1
 607 0 l 2,11,12
 547 0 547 0 492 51 c 1,13,14
 447 -217 447 -217 254 -428 c 1,15,-1
 104 -299 l 1,0,1
EndSplineSet
EndChar

StartChar: afii57427
Encoding: 1587 1587 198
Width: 2310
GlyphClass: 2
Flags: W
AnchorPoint: "Anchor-3" 1200 -825 basechar 0
AnchorPoint: "Anchor-2" 1305 1350 basechar 0
LayerCount: 2
Fore
SplineSet
66 16 m 0,0,1
 66 170 66 170 150 381 c 0,2,3
 229 573 229 573 330 705 c 1,4,-1
 489 602 l 1,5,6
 408 479 408 479 350 322 c 0,7,8
 281 141 281 141 281 16 c 0,9,10
 281 -131 281 -131 522 -131 c 0,11,12
 725 -131 725 -131 858 -92 c 1,13,14
 1063 -16 1063 -16 1049 141 c 1,15,-1
 1049 203 l 1,16,-1
 905 909 l 1,17,-1
 1098 969 l 1,18,-1
 1198 487 l 2,19,20
 1225 356 1225 356 1241 317 c 0,21,22
 1290 203 1290 203 1382 203 c 0,23,24
 1440 203 1440 203 1475 258 c 0,25,26
 1503 303 1503 303 1503 371 c 1,27,-1
 1391 909 l 1,28,-1
 1589 975 l 1,29,-1
 1694 487 l 1,30,31
 1726 358 1726 358 1749 313 c 0,32,33
 1800 203 1800 203 1886 203 c 0,34,35
 1944 203 1944 203 1980 260 c 0,36,37
 2013 313 2013 313 2013 375 c 0,38,39
 2013 408 2013 408 2007 436 c 1,40,-1
 1835 901 l 1,41,-1
 2023 975 l 1,42,-1
 2216 500 l 2,43,44
 2228 481 2228 481 2234 436 c 2,45,-1
 2243 367 l 1,46,47
 2243 215 2243 215 2150 109 c 0,48,49
 2052 0 2052 0 1905 0 c 0,50,51
 1722 0 1722 0 1634 127 c 1,52,53
 1577 0 1577 0 1421 0 c 2,54,-1
 1378 0 l 2,55,56
 1311 0 1311 0 1249 29 c 1,57,58
 1231 -152 1231 -152 987 -246 c 0,59,60
 780 -330 780 -330 500 -330 c 0,61,62
 307 -330 307 -330 199 -252 c 1,63,64
 66 -166 66 -166 66 16 c 0,0,1
EndSplineSet
Substitution2: "'medi' Medial Forms in Arabic lookup 3 subtable" afii62785
Substitution2: "'fina' Terminal Forms in Arabic lookup 2 subtable" afii62786
Substitution2: "'init' Initial Forms in Arabic lookup 1 subtable" afii62784
EndChar

StartChar: afii62786
Encoding: 65202 65202 199
Width: 2449
GlyphClass: 2
Flags: W
AnchorPoint: "Anchor-3" 1260 -810 basechar 0
AnchorPoint: "Anchor-2" 1440 1290 basechar 0
LayerCount: 2
Fore
SplineSet
66 16 m 0,0,1
 66 166 66 166 150 381 c 0,2,3
 223 573 223 573 330 705 c 1,4,-1
 489 602 l 1,5,6
 453 539 453 539 417 469 c 128,-1,7
 381 399 381 399 350 322 c 0,8,9
 281 141 281 141 281 16 c 0,10,11
 281 -131 281 -131 522 -131 c 0,12,13
 729 -131 729 -131 858 -92 c 1,14,15
 1063 -16 1063 -16 1049 141 c 1,16,-1
 1049 203 l 1,17,-1
 905 909 l 1,18,-1
 1098 969 l 1,19,-1
 1198 487 l 2,20,21
 1210 422 1210 422 1220.5 379 c 128,-1,22
 1231 336 1231 336 1241 317 c 0,23,24
 1290 203 1290 203 1382 203 c 0,25,26
 1440 203 1440 203 1475 258 c 0,27,28
 1503 303 1503 303 1503 371 c 1,29,-1
 1391 909 l 1,30,-1
 1589 975 l 1,31,-1
 1694 487 l 2,32,33
 1722 352 1722 352 1749 313 c 1,34,35
 1800 203 1800 203 1884 203 c 0,36,37
 1944 203 1944 203 1978 260 c 0,38,39
 2013 315 2013 315 2013 375 c 0,40,41
 2013 414 2013 414 2007 436 c 2,42,-1
 1835 901 l 1,43,-1
 2023 975 l 1,44,-1
 2259 373 l 2,45,46
 2322 207 2322 207 2402 207 c 2,47,-1
 2472 207 l 1,48,-1
 2472 0 l 1,49,-1
 2357 0 l 2,50,51
 2259 0 2259 0 2150 106 c 1,52,53
 2064 0 2064 0 1905 0 c 0,54,55
 1722 0 1722 0 1634 127 c 1,56,57
 1577 0 1577 0 1421 0 c 2,58,-1
 1378 0 l 2,59,60
 1305 0 1305 0 1249 29 c 1,61,62
 1231 -152 1231 -152 987 -246 c 0,63,64
 780 -330 780 -330 500 -330 c 0,65,66
 307 -330 307 -330 199 -252 c 1,67,68
 66 -166 66 -166 66 16 c 0,0,1
EndSplineSet
EndChar

StartChar: afii62784
Encoding: 65203 65203 200
Width: 1462
GlyphClass: 2
Flags: W
AnchorPoint: "Anchor-3" 735 -630 basechar 0
AnchorPoint: "Anchor-2" 675 1290 basechar 0
LayerCount: 2
Fore
SplineSet
-27 0 m 1,0,-1
 -27 207 l 1,1,-1
 70 207 l 2,2,3
 92 207 92 207 116.5 221.5 c 128,-1,4
 141 236 141 236 159.5 255 c 128,-1,5
 178 274 178 274 190.5 301 c 128,-1,6
 203 328 203 328 201 352 c 2,7,-1
 92 909 l 1,8,-1
 287 969 l 1,9,-1
 385 487 l 2,10,11
 418 344 418 344 430 317 c 0,12,13
 475 207 475 207 567 207 c 0,14,15
 690 207 690 207 690 371 c 2,16,-1
 690 393 l 2,17,18
 690 403 690 403 688 418 c 2,19,-1
 580 909 l 1,20,-1
 774 977 l 1,21,-1
 883 489 l 2,22,23
 895 430 895 430 909.5 387 c 128,-1,24
 924 344 924 344 934 315 c 1,25,26
 989 207 989 207 1073 207 c 0,27,28
 1130 207 1130 207 1167 266 c 0,29,30
 1198 317 1198 317 1198 381 c 0,31,32
 1198 414 1198 414 1192 436 c 2,33,-1
 1026 903 l 1,34,-1
 1212 977 l 1,35,-1
 1405 500 l 1,36,-1
 1421 436 l 1,37,-1
 1432 371 l 1,38,39
 1432 217 1432 217 1335 113 c 1,40,41
 1245 0 1245 0 1090 0 c 0,42,43
 1020 0 1020 0 940 31 c 1,44,45
 858 72 858 72 823 127 c 1,46,47
 762 0 762 0 602 0 c 0,48,49
 389 0 389 0 307 127 c 1,50,51
 244 0 244 0 80 0 c 2,52,-1
 -27 0 l 1,0,-1
EndSplineSet
EndChar

StartChar: afii62785
Encoding: 65204 65204 201
Width: 1657
GlyphClass: 2
Flags: W
AnchorPoint: "Anchor-3" 660 -660 basechar 0
AnchorPoint: "Anchor-2" 600 1365 basechar 0
LayerCount: 2
Fore
SplineSet
-29 0 m 1,0,-1
 -29 207 l 1,1,-1
 51 207 l 2,2,3
 74 207 74 207 98.5 221.5 c 128,-1,4
 123 236 123 236 144.5 255 c 128,-1,5
 166 274 166 274 177 301 c 128,-1,6
 188 328 188 328 184 352 c 2,7,-1
 74 909 l 1,8,-1
 272 969 l 1,9,-1
 371 487 l 2,10,11
 401 342 401 342 414 317 c 0,12,13
 465 203 465 203 553 203 c 0,14,15
 674 203 674 203 674 371 c 1,16,-1
 672 418 l 1,17,-1
 561 909 l 1,18,-1
 760 975 l 1,19,-1
 866 487 l 2,20,21
 889 373 889 373 920 313 c 0,22,23
 975 203 975 203 1055 203 c 0,24,25
 1118 203 1118 203 1153 260 c 0,26,27
 1184 303 1184 303 1184 375 c 0,28,29
 1184 414 1184 414 1176 436 c 2,30,-1
 1006 901 l 1,31,-1
 1198 975 l 1,32,-1
 1432 373 l 1,33,34
 1491 207 1491 207 1571 207 c 2,35,-1
 1688 207 l 1,36,-1
 1688 0 l 1,37,-1
 1528 0 l 2,38,39
 1417 0 1417 0 1325 106 c 1,40,41
 1233 0 1233 0 1073 0 c 0,42,43
 1006 0 1006 0 924 31 c 1,44,45
 838 72 838 72 809 127 c 1,46,47
 782 74 782 74 711 41 c 1,48,49
 645 0 645 0 580 0 c 0,50,51
 373 0 373 0 289 127 c 1,52,53
 223 0 223 0 63 0 c 2,54,-1
 -29 0 l 1,0,-1
EndSplineSet
EndChar

StartChar: afii57429
Encoding: 1589 1589 206
Width: 2243
GlyphClass: 2
Flags: W
AnchorPoint: "Anchor-3" 1290 -795 basechar 0
AnchorPoint: "Anchor-2" 1320 1305 basechar 0
LayerCount: 2
Fore
SplineSet
66 16 m 0,0,1
 66 86 66 86 87.5 179 c 128,-1,2
 109 272 109 272 146.5 365.5 c 128,-1,3
 184 459 184 459 232.5 548 c 128,-1,4
 281 637 281 637 330 705 c 1,5,-1
 489 602 l 1,6,7
 451 537 451 537 412 459 c 128,-1,8
 373 381 373 381 344 301 c 128,-1,9
 315 221 315 221 298 147.5 c 128,-1,10
 281 74 281 74 281 16 c 0,11,12
 281 -131 281 -131 522 -131 c 0,13,14
 666 -131 666 -131 766 -114.5 c 128,-1,15
 866 -98 866 -98 928.5 -56 c 128,-1,16
 991 -14 991 -14 1020 49.5 c 128,-1,17
 1049 113 1049 113 1049 203 c 0,18,19
 1049 532 1049 532 905 909 c 1,20,21
 975 932 975 932 1030 961 c 2,22,-1
 1087 991 l 1,23,24
 1118 932 1118 932 1148 846 c 128,-1,25
 1178 760 1178 760 1201.5 666.5 c 128,-1,26
 1225 573 1225 573 1237 479 c 128,-1,27
 1249 385 1249 385 1249 315 c 1,28,29
 1270 424 1270 424 1330.5 543 c 128,-1,30
 1391 662 1391 662 1466.5 762 c 128,-1,31
 1542 862 1542 862 1627 926.5 c 128,-1,32
 1712 991 1712 991 1790 991 c 0,33,34
 1876 991 1876 991 1944.5 936 c 128,-1,35
 2013 881 2013 881 2064.5 793 c 128,-1,36
 2116 705 2116 705 2143.5 599.5 c 128,-1,37
 2171 494 2171 494 2171 387 c 0,38,39
 2171 -2 2171 -2 1571 -2 c 0,40,41
 1350 -2 1350 -2 1249 29 c 1,42,43
 1245 -51 1245 -51 1181.5 -119.5 c 128,-1,44
 1118 -188 1118 -188 1014.5 -236.5 c 128,-1,45
 911 -285 911 -285 779 -307.5 c 128,-1,46
 647 -330 647 -330 500 -330 c 0,47,48
 293 -330 293 -330 179.5 -243 c 128,-1,49
 66 -156 66 -156 66 16 c 0,0,1
1450 217 m 1,50,51
 1522 207 1522 207 1560.5 204 c 128,-1,52
 1599 201 1599 201 1623 200 c 128,-1,53
 1647 199 1647 199 1655 200 c 128,-1,54
 1663 201 1663 201 1665 201 c 0,55,56
 1722 201 1722 201 1775.5 212 c 128,-1,57
 1829 223 1829 223 1871 244.5 c 128,-1,58
 1913 266 1913 266 1938.5 298 c 128,-1,59
 1964 330 1964 330 1964 373 c 0,60,61
 1964 436 1964 436 1950.5 501.5 c 128,-1,62
 1937 567 1937 567 1915.5 623.5 c 128,-1,63
 1894 680 1894 680 1861.5 716 c 128,-1,64
 1829 752 1829 752 1784 752 c 0,65,66
 1743 752 1743 752 1689.5 705.5 c 128,-1,67
 1636 659 1636 659 1589 584.5 c 128,-1,68
 1542 510 1542 510 1502 413.5 c 128,-1,69
 1462 317 1462 317 1450 217 c 1,50,51
EndSplineSet
Substitution2: "'medi' Medial Forms in Arabic lookup 3 subtable" afii62791
Substitution2: "'fina' Terminal Forms in Arabic lookup 2 subtable" afii62792
Substitution2: "'init' Initial Forms in Arabic lookup 1 subtable" afii62790
EndChar

StartChar: afii62792
Encoding: 65210 65210 207
Width: 2351
GlyphClass: 2
Flags: W
AnchorPoint: "Anchor-3" 1170 -825 basechar 0
AnchorPoint: "Anchor-2" 1305 1350 basechar 0
LayerCount: 2
Fore
SplineSet
63 16 m 0,0,1
 63 86 63 86 86 179 c 128,-1,2
 109 272 109 272 144.5 365.5 c 128,-1,3
 180 459 180 459 227 548 c 128,-1,4
 274 637 274 637 328 705 c 1,5,-1
 487 602 l 1,6,7
 444 537 444 537 407.5 459 c 128,-1,8
 371 381 371 381 342 301 c 128,-1,9
 313 221 313 221 293.5 147.5 c 128,-1,10
 274 74 274 74 274 16 c 0,11,12
 274 -131 274 -131 514 -131 c 0,13,14
 662 -131 662 -131 762 -114.5 c 128,-1,15
 862 -98 862 -98 926.5 -56 c 128,-1,16
 991 -14 991 -14 1019 49.5 c 128,-1,17
 1047 113 1047 113 1047 203 c 0,18,19
 1047 532 1047 532 901 909 c 1,20,21
 973 932 973 932 1024 961 c 2,22,-1
 1083 991 l 1,23,24
 1116 932 1116 932 1146 846 c 128,-1,25
 1176 760 1176 760 1198.5 666.5 c 128,-1,26
 1221 573 1221 573 1234 479 c 128,-1,27
 1247 385 1247 385 1247 315 c 1,28,29
 1268 424 1268 424 1326 543 c 128,-1,30
 1384 662 1384 662 1460 762 c 128,-1,31
 1536 862 1536 862 1621 926.5 c 128,-1,32
 1706 991 1706 991 1786 991 c 0,33,34
 1843 991 1843 991 1900.5 958.5 c 128,-1,35
 1958 926 1958 926 2005 871.5 c 128,-1,36
 2052 817 2052 817 2087 746.5 c 128,-1,37
 2122 676 2122 676 2134 602 c 2,38,-1
 2165 422 l 2,39,40
 2177 346 2177 346 2191.5 305 c 128,-1,41
 2206 264 2206 264 2222 242.5 c 128,-1,42
 2238 221 2238 221 2257.5 214 c 128,-1,43
 2277 207 2277 207 2302 207 c 2,44,-1
 2386 207 l 1,45,-1
 2386 0 l 1,46,-1
 2286 0 l 2,47,48
 2249 0 2249 0 2213 11.5 c 128,-1,49
 2177 23 2177 23 2148.5 41 c 128,-1,50
 2120 59 2120 59 2096.5 87 c 128,-1,51
 2073 115 2073 115 2062 145 c 1,52,53
 1993 0 1993 0 1561 0 c 0,54,55
 1368 0 1368 0 1245 29 c 1,56,57
 1239 -51 1239 -51 1175.5 -119.5 c 128,-1,58
 1112 -188 1112 -188 1011.5 -236.5 c 128,-1,59
 911 -285 911 -285 779 -307.5 c 128,-1,60
 647 -330 647 -330 500 -330 c 0,61,62
 293 -330 293 -330 178 -243 c 128,-1,63
 63 -156 63 -156 63 16 c 0,0,1
1427 213 m 1,64,65
 1477 207 1477 207 1522 207 c 2,66,-1
 1649 207 l 2,67,68
 1780 207 1780 207 1869 248 c 128,-1,69
 1958 289 1958 289 1958 373 c 0,70,71
 1958 436 1958 436 1946.5 508 c 128,-1,72
 1935 580 1935 580 1912.5 638 c 128,-1,73
 1890 696 1890 696 1858.5 738 c 128,-1,74
 1827 780 1827 780 1780 780 c 0,75,76
 1749 780 1749 780 1694.5 728 c 128,-1,77
 1640 676 1640 676 1588 595 c 128,-1,78
 1536 514 1536 514 1492 413.5 c 128,-1,79
 1448 313 1448 313 1427 213 c 1,64,65
EndSplineSet
EndChar

StartChar: afii62790
Encoding: 65211 65211 208
Width: 1419
GlyphClass: 2
Flags: W
AnchorPoint: "Anchor-3" 690 -690 basechar 0
AnchorPoint: "Anchor-2" 570 1395 basechar 0
LayerCount: 2
Fore
SplineSet
-29 0 m 1,0,-1
 -29 207 l 1,1,-1
 156 207 l 2,2,3
 223 207 223 207 246 246 c 0,4,5
 264 279 264 279 264 352 c 0,6,7
 264 567 264 567 121 909 c 1,8,9
 150 918 150 918 179.5 929 c 128,-1,10
 209 940 209 940 246 961 c 1,11,12
 266 963 266 963 303 991 c 1,13,14
 344 924 344 924 372.5 842 c 128,-1,15
 401 760 401 760 424 662 c 1,16,17
 451 573 451 573 461 484 c 128,-1,18
 471 395 471 395 471 315 c 1,19,20
 510 522 510 522 659 733 c 0,21,22
 838 991 838 991 1010 991 c 0,23,24
 1141 991 1141 991 1241 854 c 1,25,26
 1391 662 1391 662 1391 387 c 0,27,28
 1391 330 1391 330 1376 272 c 0,29,30
 1335 115 1335 115 1141 45 c 0,31,32
 995 -8 995 -8 803 -8 c 0,33,34
 567 -8 567 -8 385 66 c 1,35,36
 330 37 330 37 287 16 c 1,37,38
 201 0 201 0 156 0 c 2,39,-1
 -29 0 l 1,0,-1
672 217 m 1,40,-1
 729 213 l 1,41,-1
 844 207 l 2,42,43
 967 201 967 201 1055 231 c 0,44,45
 1182 272 1182 272 1182 373 c 0,46,47
 1182 504 1182 504 1130 631 c 0,48,49
 1098 705 1098 705 1066 731.5 c 128,-1,50
 1034 758 1034 758 991 758 c 0,51,52
 946 758 946 758 887.5 700.5 c 128,-1,53
 829 643 829 643 780 537 c 1,54,55
 733 451 733 451 709.5 377 c 128,-1,56
 686 303 686 303 672 217 c 1,40,-1
EndSplineSet
EndChar

StartChar: afii62791
Encoding: 65212 65212 209
Width: 1608
GlyphClass: 2
Flags: W
AnchorPoint: "Anchor-3" 765 -675 basechar 0
AnchorPoint: "Anchor-2" 510 1380 basechar 0
LayerCount: 2
Fore
SplineSet
-41 0 m 1,0,-1
 -41 207 l 1,1,-1
 143 207 l 2,2,3
 203 207 203 207 226.5 238.5 c 128,-1,4
 250 270 250 270 250 352 c 0,5,6
 250 567 250 567 109 909 c 1,7,8
 143 918 143 918 190.5 935 c 128,-1,9
 238 952 238 952 293 991 c 1,10,11
 328 924 328 924 357.5 841 c 128,-1,12
 387 758 387 758 408.5 669 c 128,-1,13
 430 580 430 580 443.5 487.5 c 128,-1,14
 457 395 457 395 457 315 c 1,15,16
 479 424 479 424 536.5 545 c 128,-1,17
 594 666 594 666 671 766 c 128,-1,18
 748 866 748 866 834 928.5 c 128,-1,19
 920 991 920 991 1001 991 c 0,20,21
 1063 991 1063 991 1125.5 951 c 128,-1,22
 1188 911 1188 911 1233 854 c 128,-1,23
 1278 797 1278 797 1306.5 728 c 128,-1,24
 1335 659 1335 659 1348 602 c 1,25,-1
 1376 422 l 1,26,27
 1417 207 1417 207 1518 207 c 2,28,-1
 1620 207 l 1,29,-1
 1620 0 l 1,30,-1
 1497 0 l 2,31,32
 1427 0 1427 0 1361.5 43 c 128,-1,33
 1296 86 1296 86 1268 145 c 1,34,35
 1239 74 1239 74 1100 33 c 128,-1,36
 961 -8 961 -8 760 -8 c 0,37,38
 479 -8 479 -8 373 66 c 1,39,40
 293 16 293 16 238.5 8 c 128,-1,41
 184 0 184 0 143 0 c 2,42,-1
 -41 0 l 1,0,-1
858 207 m 1,43,44
 991 207 991 207 1079 248 c 128,-1,45
 1167 289 1167 289 1167 373 c 0,46,47
 1167 408 1167 408 1156 477.5 c 128,-1,48
 1145 547 1145 547 1118.5 614.5 c 128,-1,49
 1092 682 1092 682 1059 728 c 128,-1,50
 1026 774 1026 774 981 768 c 0,51,52
 934 758 934 758 889 717 c 128,-1,53
 844 676 844 676 796 602 c 128,-1,54
 748 528 748 528 710 430 c 128,-1,55
 672 332 672 332 657 215 c 1,56,57
 705 213 705 213 757 207 c 128,-1,58
 809 201 809 201 858 207 c 1,43,44
EndSplineSet
EndChar

StartChar: afii57431
Encoding: 1591 1591 214
Width: 1235
GlyphClass: 2
Flags: W
AnchorPoint: "Anchor-3" 600 -570 basechar 0
AnchorPoint: "Anchor-2" 690 1545 basechar 0
LayerCount: 2
Fore
SplineSet
66 1399 m 1,0,1
 115 1417 115 1417 164 1429.5 c 128,-1,2
 213 1442 213 1442 260 1460 c 1,3,4
 317 1221 317 1221 351 1073.5 c 128,-1,5
 385 926 385 926 399.5 837 c 128,-1,6
 414 748 414 748 418 705 c 128,-1,7
 422 662 422 662 422 633 c 1,8,9
 453 696 453 696 496 760.5 c 128,-1,10
 539 825 539 825 593 878.5 c 128,-1,11
 647 932 647 932 699.5 963.5 c 128,-1,12
 752 995 752 995 795 995 c 0,13,14
 868 995 868 995 943 939 c 128,-1,15
 1018 883 1018 883 1078.5 800 c 128,-1,16
 1139 717 1139 717 1174.5 612.5 c 128,-1,17
 1210 508 1210 508 1210 414 c 0,18,19
 1210 317 1210 317 1175.5 241.5 c 128,-1,20
 1141 166 1141 166 1075.5 111.5 c 128,-1,21
 1010 57 1010 57 920.5 28.5 c 128,-1,22
 831 0 831 0 729 0 c 2,23,-1
 250 0 l 1,24,-1
 250 203 l 2,25,26
 250 729 250 729 66 1399 c 1,0,1
500 207 m 1,27,-1
 745 207 l 2,28,29
 1004 207 1004 207 1004 401 c 0,30,31
 1004 457 1004 457 986.5 519.5 c 128,-1,32
 969 582 969 582 939 642 c 128,-1,33
 909 702 909 702 871.5 738 c 128,-1,34
 834 774 834 774 797 774 c 0,35,36
 758 774 758 774 708.5 715.5 c 128,-1,37
 659 657 659 657 617 566 c 128,-1,38
 575 475 575 475 542.5 378 c 128,-1,39
 510 281 510 281 500 207 c 1,27,-1
EndSplineSet
Substitution2: "'medi' Medial Forms in Arabic lookup 3 subtable" afii62797
Substitution2: "'fina' Terminal Forms in Arabic lookup 2 subtable" afii62798
Substitution2: "'init' Initial Forms in Arabic lookup 1 subtable" afii62796
EndChar

StartChar: afii62798
Encoding: 65218 65218 215
Width: 1391
GlyphClass: 2
Flags: W
AnchorPoint: "Anchor-3" 600 -540 basechar 0
AnchorPoint: "Anchor-2" 660 1545 basechar 0
LayerCount: 2
Fore
SplineSet
66 1399 m 1,0,1
 115 1417 115 1417 164 1429.5 c 128,-1,2
 213 1442 213 1442 260 1460 c 1,3,4
 315 1241 315 1241 344 1094.5 c 128,-1,5
 373 948 373 948 390.5 853 c 128,-1,6
 408 758 408 758 413 704.5 c 128,-1,7
 418 651 418 651 418 623 c 1,8,9
 438 676 438 676 480 742.5 c 128,-1,10
 522 809 522 809 575.5 864.5 c 128,-1,11
 629 920 629 920 686 957.5 c 128,-1,12
 743 995 743 995 795 995 c 0,13,14
 872 995 872 995 949 942 c 128,-1,15
 1026 889 1026 889 1083.5 804 c 128,-1,16
 1141 719 1141 719 1175.5 618.5 c 128,-1,17
 1210 518 1210 518 1210 422 c 0,18,19
 1210 332 1210 332 1253 269.5 c 128,-1,20
 1296 207 1296 207 1362 207 c 2,21,-1
 1434 207 l 1,22,-1
 1434 0 l 1,23,-1
 1339 0 l 2,24,25
 1311 0 1311 0 1278 14.5 c 128,-1,26
 1245 29 1245 29 1213.5 50.5 c 128,-1,27
 1182 72 1182 72 1156 99.5 c 128,-1,28
 1130 127 1130 127 1118 152 c 1,29,30
 991 0 991 0 729 0 c 2,31,-1
 250 0 l 1,32,-1
 250 203 l 2,33,34
 250 729 250 729 66 1399 c 1,0,1
500 207 m 1,35,-1
 748 207 l 2,36,37
 1004 207 1004 207 1004 401 c 0,38,39
 1004 457 1004 457 989.5 522.5 c 128,-1,40
 975 588 975 588 947.5 645 c 128,-1,41
 920 702 920 702 886 741 c 128,-1,42
 852 780 852 780 815 780 c 0,43,44
 774 780 774 780 723 719.5 c 128,-1,45
 672 659 672 659 626 569 c 128,-1,46
 580 479 580 479 545 380 c 128,-1,47
 510 281 510 281 500 207 c 1,35,-1
EndSplineSet
EndChar

StartChar: afii62796
Encoding: 65219 65219 216
Width: 1222
GlyphClass: 2
Flags: W
AnchorPoint: "Anchor-3" 420 -660 basechar 0
AnchorPoint: "Anchor-2" 600 1500 basechar 0
LayerCount: 2
Fore
SplineSet
-37 0 m 1,0,-1
 -37 207 l 1,1,-1
 129 207 l 1,2,3
 174 203 174 203 181 233.5 c 128,-1,4
 188 264 188 264 188 328 c 0,5,6
 184 514 184 514 164.5 677 c 128,-1,7
 145 840 145 840 121.5 972 c 128,-1,8
 98 1104 98 1104 74.5 1211.5 c 128,-1,9
 51 1319 51 1319 37 1399 c 1,10,11
 84 1417 84 1417 131 1429.5 c 128,-1,12
 178 1442 178 1442 229 1460 c 1,13,14
 266 1331 266 1331 294 1190 c 128,-1,15
 322 1049 322 1049 344.5 929 c 128,-1,16
 367 809 367 809 376 723 c 128,-1,17
 385 637 385 637 385 623 c 1,18,19
 410 682 410 682 455 748.5 c 128,-1,20
 500 815 500 815 555 869.5 c 128,-1,21
 610 924 610 924 664.5 959.5 c 128,-1,22
 719 995 719 995 762 995 c 0,23,24
 844 995 844 995 917.5 942 c 128,-1,25
 991 889 991 889 1050.5 803 c 128,-1,26
 1110 717 1110 717 1144 615.5 c 128,-1,27
 1178 514 1178 514 1178 422 c 0,28,29
 1178 207 1178 207 1044.5 103.5 c 128,-1,30
 911 0 911 0 700 0 c 2,31,-1
 -37 0 l 1,0,-1
471 207 m 1,32,-1
 717 207 l 2,33,34
 844 207 844 207 909.5 264.5 c 128,-1,35
 975 322 975 322 975 401 c 0,36,37
 975 451 975 451 957.5 512 c 128,-1,38
 940 573 940 573 913.5 629.5 c 128,-1,39
 887 686 887 686 851 724 c 128,-1,40
 815 762 815 762 780 762 c 0,41,42
 733 762 733 762 685 703.5 c 128,-1,43
 637 645 637 645 592 559 c 128,-1,44
 547 473 547 473 514 379 c 128,-1,45
 481 285 481 285 471 207 c 1,32,-1
EndSplineSet
EndChar

StartChar: afii62797
Encoding: 65220 65220 217
Width: 1417
GlyphClass: 2
Flags: W
AnchorPoint: "Anchor-3" 675 -615 basechar 0
AnchorPoint: "Anchor-2" 600 1575 basechar 0
LayerCount: 2
Fore
SplineSet
-8 0 m 1,0,-1
 -8 207 l 1,1,-1
 156 207 l 2,2,3
 201 207 201 207 223.5 236.5 c 128,-1,4
 246 266 246 266 244 328 c 0,5,6
 217 676 217 676 163 943 c 128,-1,7
 109 1210 109 1210 59 1399 c 1,8,9
 109 1417 109 1417 158 1429.5 c 128,-1,10
 207 1442 207 1442 258 1460 c 1,11,12
 285 1348 285 1348 301 1272 c 128,-1,13
 317 1196 317 1196 330.5 1134.5 c 128,-1,14
 344 1073 344 1073 352 1023 c 128,-1,15
 360 973 360 973 372.5 915.5 c 128,-1,16
 385 858 385 858 392 787.5 c 128,-1,17
 399 717 399 717 414 623 c 1,18,19
 436 676 436 676 479 742.5 c 128,-1,20
 522 809 522 809 576.5 863.5 c 128,-1,21
 631 918 631 918 688 956.5 c 128,-1,22
 745 995 745 995 788 995 c 0,23,24
 854 1001 854 1001 927.5 948 c 128,-1,25
 1001 895 1001 895 1063.5 810 c 128,-1,26
 1126 725 1126 725 1166 621.5 c 128,-1,27
 1206 518 1206 518 1206 422 c 0,28,29
 1206 336 1206 336 1248 271.5 c 128,-1,30
 1290 207 1290 207 1360 207 c 2,31,-1
 1427 207 l 1,32,-1
 1427 0 l 1,33,-1
 1335 0 l 2,34,35
 1307 0 1307 0 1274 14.5 c 128,-1,36
 1241 29 1241 29 1209.5 47.5 c 128,-1,37
 1178 66 1178 66 1152 93.5 c 128,-1,38
 1126 121 1126 121 1112 152 c 1,39,40
 989 0 989 0 729 0 c 2,41,-1
 -8 0 l 1,0,-1
745 207 m 1,42,43
 1004 207 1004 207 1004 401 c 0,44,45
 1004 451 1004 451 988.5 513 c 128,-1,46
 973 575 973 575 942 632.5 c 128,-1,47
 911 690 911 690 879.5 732 c 128,-1,48
 848 774 848 774 809 774 c 0,49,50
 782 774 782 774 749.5 745.5 c 128,-1,51
 717 717 717 717 682 671 c 128,-1,52
 647 625 647 625 613.5 564.5 c 128,-1,53
 580 504 580 504 554 439.5 c 128,-1,54
 528 375 528 375 512 313.5 c 128,-1,55
 496 252 496 252 487 201 c 1,56,-1
 745 207 l 1,42,43
EndSplineSet
EndChar

StartChar: afii57433
Encoding: 1593 1593 222
Width: 1083
GlyphClass: 2
Flags: W
AnchorPoint: "Anchor-3" 600 -1185 basechar 0
AnchorPoint: "Anchor-2" 630 1215 basechar 0
LayerCount: 2
Fore
SplineSet
66 -178 m 0,0,1
 66 37 66 37 293 160 c 1,2,3
 260 188 260 188 224 236.5 c 128,-1,4
 188 285 188 285 161.5 337 c 128,-1,5
 135 389 135 389 116.5 448.5 c 128,-1,6
 98 508 98 508 98 557 c 0,7,8
 98 643 98 643 138 723 c 128,-1,9
 178 803 178 803 242.5 867.5 c 128,-1,10
 307 932 307 932 393 968 c 128,-1,11
 479 1004 479 1004 567 1004 c 1,12,-1
 995 924 l 1,13,-1
 954 729 l 1,14,-1
 608 795 l 1,15,16
 551 795 551 795 496.5 776.5 c 128,-1,17
 442 758 442 758 396 724 c 128,-1,18
 350 690 350 690 321.5 647 c 128,-1,19
 293 604 293 604 293 557 c 0,20,21
 293 485 293 485 330 421.5 c 128,-1,22
 367 358 367 358 424 311 c 128,-1,23
 481 264 481 264 553 235.5 c 128,-1,24
 625 207 625 207 696 207 c 2,25,-1
 975 207 l 1,26,-1
 975 0 l 1,27,-1
 674 0 l 2,28,29
 293 0 293 0 293 -174 c 0,30,31
 293 -238 293 -238 363 -282 c 128,-1,32
 433 -326 433 -326 515 -334 c 1,33,-1
 1063 -424 l 1,34,-1
 1026 -637 l 1,35,-1
 428 -537 l 2,36,37
 360 -524 360 -524 296 -500 c 128,-1,38
 232 -476 232 -476 177.5 -433 c 128,-1,39
 123 -390 123 -390 94.5 -328.5 c 128,-1,40
 66 -267 66 -267 66 -178 c 0,0,1
EndSplineSet
Substitution2: "'medi' Medial Forms in Arabic lookup 3 subtable" afii62803
Substitution2: "'fina' Terminal Forms in Arabic lookup 2 subtable" afii62804
Substitution2: "'init' Initial Forms in Arabic lookup 1 subtable" afii62802
EndChar

StartChar: afii62804
Encoding: 65226 65226 223
Width: 1348
GlyphClass: 2
Flags: W
AnchorPoint: "Anchor-3" 630 -1095 basechar 0
AnchorPoint: "Anchor-2" 645 1230 basechar 0
LayerCount: 2
Fore
SplineSet
66 -150 m 0,0,1
 66 55 66 55 303 156 c 1,2,3
 258 180 258 180 223 225 c 128,-1,4
 188 270 188 270 159.5 321.5 c 128,-1,5
 131 373 131 373 115.5 430 c 128,-1,6
 100 487 100 487 100 545 c 0,7,8
 100 643 100 643 140 726 c 128,-1,9
 180 809 180 809 254 867.5 c 128,-1,10
 328 926 328 926 425 958.5 c 128,-1,11
 522 991 522 991 637 991 c 0,12,13
 705 991 705 991 797 974.5 c 128,-1,14
 889 958 889 958 981 926.5 c 128,-1,15
 1073 895 1073 895 1152 855 c 128,-1,16
 1231 815 1231 815 1290 772 c 1,17,-1
 1210 596 l 1,18,19
 1090 561 1090 561 1014 456.5 c 128,-1,20
 938 352 938 352 934 207 c 1,21,-1
 1374 207 l 1,22,-1
 1374 0 l 1,23,-1
 715 0 l 1,24,-1
 715 170 l 2,25,26
 715 231 715 231 733.5 310 c 128,-1,27
 752 389 752 389 785.5 467 c 128,-1,28
 819 545 819 545 868.5 609.5 c 128,-1,29
 918 674 918 674 975 705 c 1,30,31
 954 719 954 719 913 736.5 c 128,-1,32
 872 754 872 754 823 767 c 128,-1,33
 774 780 774 780 725 787.5 c 128,-1,34
 676 795 676 795 643 795 c 0,35,36
 575 795 575 795 517 776.5 c 128,-1,37
 459 758 459 758 416 727 c 128,-1,38
 373 696 373 696 345 649 c 128,-1,39
 317 602 317 602 317 545 c 0,40,41
 317 479 317 479 345 415.5 c 128,-1,42
 373 352 373 352 419 305 c 128,-1,43
 465 258 465 258 526.5 230.5 c 128,-1,44
 588 203 588 203 659 203 c 1,45,-1
 659 0 l 1,46,-1
 532 0 l 2,47,48
 438 0 438 0 376.5 -43 c 128,-1,49
 315 -86 315 -86 315 -170 c 0,50,51
 315 -315 315 -315 508 -344 c 2,52,-1
 1075 -430 l 1,53,-1
 1047 -637 l 1,54,-1
 451 -545 l 2,55,56
 371 -532 371 -532 300 -498.5 c 128,-1,57
 229 -465 229 -465 176 -411.5 c 128,-1,58
 123 -358 123 -358 94.5 -290.5 c 128,-1,59
 66 -223 66 -223 66 -150 c 0,0,1
EndSplineSet
EndChar

StartChar: afii62802
Encoding: 65227 65227 224
Width: 1016
GlyphClass: 2
Flags: W
AnchorPoint: "Anchor-3" 600 -675 basechar 0
AnchorPoint: "Anchor-2" 630 1290 basechar 0
LayerCount: 2
Fore
SplineSet
-16 0 m 1,0,-1
 -16 207 l 1,1,-1
 236 207 l 1,2,3
 86 373 86 373 86 557 c 0,4,5
 86 637 86 637 126 719 c 128,-1,6
 166 801 166 801 229.5 863.5 c 128,-1,7
 293 926 293 926 379 965 c 128,-1,8
 465 1004 465 1004 551 1004 c 1,9,-1
 987 924 l 1,10,-1
 940 729 l 1,11,-1
 590 795 l 1,12,13
 537 795 537 795 482.5 776.5 c 128,-1,14
 428 758 428 758 386 724 c 128,-1,15
 344 690 344 690 318.5 646 c 128,-1,16
 293 602 293 602 293 551 c 0,17,18
 293 485 293 485 326.5 421.5 c 128,-1,19
 360 358 360 358 415.5 309 c 128,-1,20
 471 260 471 260 542.5 233.5 c 128,-1,21
 614 207 614 207 688 207 c 2,22,-1
 961 207 l 1,23,-1
 961 0 l 1,24,-1
 -16 0 l 1,0,-1
EndSplineSet
EndChar

StartChar: afii62803
Encoding: 65228 65228 225
Width: 1376
GlyphClass: 2
Flags: W
AnchorPoint: "Anchor-3" 660 -660 basechar 0
AnchorPoint: "Anchor-2" 630 1275 basechar 0
LayerCount: 2
Fore
SplineSet
-14 0 m 1,0,-1
 -14 207 l 1,1,-1
 238 207 l 1,2,3
 98 342 98 342 98 545 c 0,4,5
 98 645 98 645 138 727 c 128,-1,6
 178 809 178 809 253 867.5 c 128,-1,7
 328 926 328 926 423 958.5 c 128,-1,8
 518 991 518 991 631 991 c 0,9,10
 711 991 711 991 800 974.5 c 128,-1,11
 889 958 889 958 976 927.5 c 128,-1,12
 1063 897 1063 897 1144 857 c 128,-1,13
 1225 817 1225 817 1284 772 c 1,14,-1
 1206 596 l 1,15,16
 1077 565 1077 565 1011.5 455.5 c 128,-1,17
 946 346 946 346 946 207 c 1,18,-1
 1391 207 l 1,19,-1
 1391 0 l 1,20,-1
 711 0 l 1,21,-1
 711 170 l 2,22,23
 711 236 711 236 725 310.5 c 128,-1,24
 739 385 739 385 771 458.5 c 128,-1,25
 803 532 803 532 853 597 c 128,-1,26
 903 662 903 662 969 705 c 1,27,28
 954 719 954 719 911 736.5 c 128,-1,29
 868 754 868 754 821 767 c 128,-1,30
 774 780 774 780 724 787.5 c 128,-1,31
 674 795 674 795 637 795 c 0,32,33
 573 795 573 795 515 776.5 c 128,-1,34
 457 758 457 758 414 727 c 128,-1,35
 371 696 371 696 343 649 c 128,-1,36
 315 602 315 602 315 545 c 0,37,38
 315 479 315 479 344 417.5 c 128,-1,39
 373 356 373 356 419 308 c 128,-1,40
 465 260 465 260 523.5 231.5 c 128,-1,41
 582 203 582 203 651 203 c 1,42,-1
 651 0 l 1,43,-1
 -14 0 l 1,0,-1
EndSplineSet
EndChar

StartChar: afii57443
Encoding: 1603 1603 238
Width: 1801
GlyphClass: 2
Flags: W
AnchorPoint: "Anchor-3" 1005 -600 basechar 0
AnchorPoint: "Anchor-2" 795 1470 basechar 0
LayerCount: 2
Fore
SplineSet
66 475 m 0,0,1
 66 739 66 739 303 1016 c 1,2,-1
 453 868 l 1,3,4
 274 674 274 674 274 510 c 0,5,6
 274 453 274 453 294.5 398.5 c 128,-1,7
 315 344 315 344 352 301 c 128,-1,8
 389 258 389 258 438 231 c 0,9,10
 487 207 487 207 543 207 c 2,11,-1
 1450 207 l 1,12,13
 1565 221 1565 221 1565 389 c 0,14,15
 1565 844 1565 844 1393 1405 c 1,16,-1
 1585 1483 l 1,17,18
 1763 911 1763 911 1763 395 c 0,19,20
 1763 236 1763 236 1694.5 118 c 128,-1,21
 1626 0 1626 0 1505 0 c 2,22,-1
 573 0 l 2,23,24
 465 0 465 0 372 36 c 128,-1,25
 279 72 279 72 211 135.5 c 128,-1,26
 143 199 143 199 104.5 286 c 128,-1,27
 66 373 66 373 66 475 c 0,0,1
688 887 m 0,28,29
 688 1098 688 1098 1018 1098 c 1,30,-1
 1020 1001 l 1,31,32
 795 1001 795 1001 795 891 c 0,33,34
 795 844 795 844 833.5 816 c 128,-1,35
 872 788 872 788 924 788 c 0,36,37
 961 788 961 788 1030 815 c 2,38,-1
 1098 838 l 1,39,-1
 1124 739 l 1,40,41
 901 676 901 676 772 594 c 1,42,-1
 705 680 l 1,43,-1
 797 729 l 1,44,45
 688 797 688 797 688 887 c 0,28,29
EndSplineSet
Substitution2: "'medi' Medial Forms in Arabic lookup 3 subtable" afii52306
Substitution2: "'fina' Terminal Forms in Arabic lookup 2 subtable" afii62816
Substitution2: "'init' Initial Forms in Arabic lookup 1 subtable" afii52305
EndChar

StartChar: afii62816
Encoding: 65242 65242 239
Width: 1921
GlyphClass: 2
Flags: W
AnchorPoint: "Anchor-3" 780 -585 basechar 0
AnchorPoint: "Anchor-2" 975 1545 basechar 0
LayerCount: 2
Fore
SplineSet
66 475 m 0,0,1
 66 739 66 739 303 1016 c 1,2,-1
 453 868 l 1,3,4
 274 674 274 674 274 510 c 0,5,6
 274 453 274 453 294.5 398.5 c 128,-1,7
 315 344 315 344 352 301 c 128,-1,8
 389 258 389 258 438 231 c 0,9,10
 487 207 487 207 543 207 c 2,11,-1
 1436 207 l 1,12,13
 1489 213 1489 213 1520 264 c 0,14,15
 1554 328 1554 328 1554 403 c 0,16,17
 1554 825 1554 825 1499 1417 c 1,18,-1
 1694 1477 l 1,19,20
 1706 1462 1706 1462 1728.5 1071 c 128,-1,21
 1751 680 1751 680 1757 428 c 0,22,23
 1757 342 1757 342 1786 272 c 1,24,25
 1819 207 1819 207 1876 207 c 2,26,-1
 1952 207 l 1,27,-1
 1952 0 l 1,28,-1
 1829 0 l 2,29,30
 1786 0 1786 0 1734.5 25.5 c 128,-1,31
 1683 51 1683 51 1665 80 c 1,32,33
 1593 2 1593 2 1507 0 c 2,34,-1
 573 0 l 2,35,36
 465 0 465 0 372 36 c 128,-1,37
 279 72 279 72 211 135.5 c 128,-1,38
 143 199 143 199 104.5 286 c 128,-1,39
 66 373 66 373 66 475 c 0,0,1
786 1020 m 0,40,41
 786 1233 786 1233 1116 1233 c 1,42,-1
 1118 1133 l 1,43,44
 889 1133 889 1133 889 1026 c 0,45,46
 889 981 889 981 929 952.5 c 128,-1,47
 969 924 969 924 1018 924 c 0,48,49
 1059 924 1059 924 1126 948 c 2,50,-1
 1196 973 l 1,51,-1
 1221 872 l 1,52,53
 995 811 995 811 866 729 c 1,54,-1
 803 815 l 1,55,-1
 891 862 l 1,56,57
 786 932 786 932 786 1020 c 0,40,41
EndSplineSet
EndChar

StartChar: afii57444
Encoding: 1604 1604 242
Width: 1311
GlyphClass: 2
Flags: W
AnchorPoint: "Anchor-3" 675 -870 basechar 0
AnchorPoint: "Anchor-2" 660 1515 basechar 0
LayerCount: 2
Fore
SplineSet
66 16 m 0,0,1
 66 86 66 86 87.5 178 c 128,-1,2
 109 270 109 270 139.5 364.5 c 128,-1,3
 170 459 170 459 215 548 c 128,-1,4
 260 637 260 637 313 705 c 1,5,-1
 489 602 l 1,6,7
 453 539 453 539 417 462 c 128,-1,8
 381 385 381 385 349 300 c 128,-1,9
 317 215 317 215 299 140.5 c 128,-1,10
 281 66 281 66 281 16 c 0,11,12
 281 -131 281 -131 522 -131 c 0,13,14
 803 -131 803 -131 926 -51 c 128,-1,15
 1049 29 1049 29 1049 203 c 0,16,17
 1049 551 1049 551 1012 853 c 128,-1,18
 975 1155 975 1155 901 1427 c 1,19,-1
 1102 1497 l 1,20,21
 1262 840 1262 840 1262 221 c 0,22,23
 1262 94 1262 94 1225 -7.5 c 128,-1,24
 1188 -109 1188 -109 1097 -180.5 c 128,-1,25
 1006 -252 1006 -252 861.5 -291 c 128,-1,26
 717 -330 717 -330 500 -330 c 0,27,28
 293 -330 293 -330 179.5 -243 c 128,-1,29
 66 -156 66 -156 66 16 c 0,0,1
EndSplineSet
Substitution2: "'medi' Medial Forms in Arabic lookup 3 subtable" afii62818
Substitution2: "'fina' Terminal Forms in Arabic lookup 2 subtable" afii62819
Substitution2: "'init' Initial Forms in Arabic lookup 1 subtable" afii62817
EndChar

StartChar: afii62817
Encoding: 65247 65247 243
Width: 496
GlyphClass: 2
Flags: W
AnchorPoint: "Anchor-3" 270 -615 basechar 0
AnchorPoint: "Anchor-2" 195 1650 basechar 0
LayerCount: 2
Fore
SplineSet
-51 0 m 1,0,-1
 -51 207 l 1,1,-1
 113 207 l 2,2,3
 244 207 244 207 244 389 c 0,4,5
 244 844 244 844 74 1405 c 1,6,-1
 264 1483 l 1,7,8
 442 911 442 911 442 395 c 0,9,10
 442 246 442 246 385 141 c 1,11,12
 315 0 315 0 184 0 c 2,13,-1
 -51 0 l 1,0,-1
EndSplineSet
EndChar

StartChar: afii62818
Encoding: 65248 65248 244
Width: 618
GlyphClass: 2
Flags: W
AnchorPoint: "Anchor-3" 255 -630 basechar 0
AnchorPoint: "Anchor-2" 135 1650 basechar 0
LayerCount: 2
Fore
SplineSet
-23 0 m 1,0,-1
 -23 207 l 1,1,-1
 106 207 l 2,2,3
 166 207 166 207 198.5 267.5 c 128,-1,4
 231 328 231 328 231 403 c 0,5,6
 231 825 231 825 70 1417 c 1,7,-1
 258 1477 l 1,8,9
 270 1462 270 1462 288.5 1400.5 c 128,-1,10
 307 1339 307 1339 325.5 1246 c 128,-1,11
 344 1153 344 1153 364.5 1042.5 c 128,-1,12
 385 932 385 932 400.5 821.5 c 128,-1,13
 416 711 416 711 426 605.5 c 128,-1,14
 436 500 436 500 436 428 c 0,15,16
 436 342 436 342 466 274.5 c 128,-1,17
 496 207 496 207 553 207 c 2,18,-1
 631 207 l 1,19,-1
 631 0 l 1,20,-1
 508 0 l 2,21,22
 459 0 459 0 409.5 28.5 c 128,-1,23
 360 57 360 57 346 98 c 1,24,25
 279 0 279 0 170 0 c 2,26,-1
 -23 0 l 1,0,-1
EndSplineSet
EndChar

StartChar: afii57445
Encoding: 1605 1605 245
Width: 1206
GlyphClass: 2
Flags: W
AnchorPoint: "Anchor-3" 735 -840 basechar 0
AnchorPoint: "Anchor-2" 645 1200 basechar 0
LayerCount: 2
Fore
SplineSet
70 221 m 1,0,1
 70 514 70 514 322 745 c 0,2,3
 444 858 444 858 553 858 c 0,4,5
 623 858 623 858 672 817 c 0,6,7
 729 768 729 768 729 702 c 0,8,9
 729 631 729 631 717 580 c 0,10,11
 686 475 686 475 659.5 401.5 c 128,-1,12
 633 328 633 328 618 274 c 1,13,14
 618 207 618 207 739 207 c 0,15,16
 819 207 819 207 877 238 c 1,17,18
 946 287 946 287 946 358 c 0,19,20
 946 395 946 395 924 436 c 2,21,-1
 643 897 l 1,22,-1
 819 1001 l 1,23,-1
 1106 528 l 2,24,25
 1163 438 1163 438 1163 344 c 0,26,27
 1163 178 1163 178 1018 80 c 1,28,29
 891 0 891 0 717 0 c 0,30,31
 408 0 408 0 408 252 c 0,32,33
 408 315 408 315 465 438 c 0,34,35
 522 567 522 567 522 616 c 1,36,-1
 510 629 l 1,37,38
 465 629 465 629 371 487 c 1,39,40
 260 338 260 338 260 207 c 0,41,42
 260 143 260 143 299 72.5 c 128,-1,43
 338 2 338 2 394.5 -56.5 c 128,-1,44
 451 -115 451 -115 516.5 -161 c 128,-1,45
 582 -207 582 -207 647 -223 c 1,46,-1
 553 -395 l 1,47,48
 465 -373 465 -373 376 -308.5 c 128,-1,49
 287 -244 287 -244 218.5 -157 c 128,-1,50
 150 -70 150 -70 108 28.5 c 128,-1,51
 66 127 66 127 70 221 c 1,0,1
EndSplineSet
Substitution2: "'medi' Medial Forms in Arabic lookup 3 subtable" afii62821
Substitution2: "'fina' Terminal Forms in Arabic lookup 2 subtable" afii62822
Substitution2: "'init' Initial Forms in Arabic lookup 1 subtable" afii62820
EndChar

StartChar: afii62822
Encoding: 65250 65250 246
Width: 1399
GlyphClass: 2
Flags: W
AnchorPoint: "Anchor-3" 975 -765 basechar 0
AnchorPoint: "Anchor-2" 480 1155 basechar 0
LayerCount: 2
Fore
SplineSet
70 221 m 1,0,1
 70 514 70 514 322 745 c 0,2,3
 444 858 444 858 553 858 c 0,4,5
 618 858 618 858 673.5 813 c 128,-1,6
 729 768 729 768 729 702 c 0,7,8
 729 631 729 631 717 580 c 0,9,10
 686 475 686 475 659.5 401.5 c 128,-1,11
 633 328 633 328 616 274 c 1,12,13
 616 207 616 207 739 207 c 0,14,15
 819 207 819 207 877 238 c 1,16,17
 946 287 946 287 946 358 c 0,18,19
 946 395 946 395 920 436 c 2,20,-1
 637 897 l 1,21,-1
 817 1001 l 1,22,-1
 1202 356 l 2,23,24
 1290 207 1290 207 1348 207 c 2,25,-1
 1421 207 l 1,26,-1
 1421 0 l 1,27,-1
 1321 0 l 2,28,29
 1262 0 1262 0 1192 51 c 0,30,31
 1130 98 1130 98 1098 156 c 1,32,33
 973 0 973 0 717 0 c 0,34,35
 408 0 408 0 408 252 c 0,36,37
 408 315 408 315 465 438 c 0,38,39
 522 567 522 567 522 616 c 1,40,-1
 510 629 l 1,41,42
 465 629 465 629 371 487 c 1,43,44
 260 338 260 338 260 207 c 0,45,46
 260 143 260 143 298 72.5 c 128,-1,47
 336 2 336 2 390 -56.5 c 128,-1,48
 444 -115 444 -115 513 -161 c 128,-1,49
 582 -207 582 -207 647 -223 c 1,50,-1
 553 -395 l 1,51,52
 465 -373 465 -373 376 -308.5 c 128,-1,53
 287 -244 287 -244 218.5 -157 c 128,-1,54
 150 -70 150 -70 108 28.5 c 128,-1,55
 66 127 66 127 70 221 c 1,0,1
EndSplineSet
EndChar

StartChar: afii62820
Encoding: 65251 65251 247
Width: 1268
GlyphClass: 2
Flags: W
AnchorPoint: "Anchor-3" 495 -720 basechar 0
AnchorPoint: "Anchor-2" 585 1275 basechar 0
LayerCount: 2
Fore
SplineSet
-37 0 m 1,0,-1
 -37 207 l 1,1,-1
 55 207 l 2,2,3
 145 207 145 207 233.5 246 c 128,-1,4
 322 285 322 285 393.5 356.5 c 128,-1,5
 465 428 465 428 520 535.5 c 128,-1,6
 575 643 575 643 602 782 c 1,7,8
 643 766 643 766 694 748 c 0,9,10
 741 731 741 731 780 719 c 1,11,-1
 672 897 l 1,12,-1
 852 1001 l 1,13,-1
 1141 528 l 2,14,15
 1196 438 1196 438 1196 344 c 0,16,17
 1196 260 1196 260 1161 198.5 c 128,-1,18
 1126 137 1126 137 1065 91 c 128,-1,19
 1004 45 1004 45 924 22.5 c 128,-1,20
 844 0 844 0 752 0 c 0,21,22
 504 0 504 0 457 156 c 1,23,24
 424 121 424 121 376 93.5 c 128,-1,25
 328 66 328 66 271.5 47.5 c 128,-1,26
 215 29 215 29 160.5 14.5 c 128,-1,27
 106 0 106 0 55 0 c 2,28,-1
 -37 0 l 1,0,-1
752 567 m 0,29,30
 725 500 725 500 698.5 442.5 c 128,-1,31
 672 385 672 385 647.5 346 c 128,-1,32
 623 307 623 307 616 303 c 1,33,34
 616 260 616 260 658 233.5 c 128,-1,35
 700 207 700 207 760 207 c 0,36,37
 803 207 803 207 842 218 c 128,-1,38
 881 229 881 229 909.5 250.5 c 128,-1,39
 938 272 938 272 956.5 301 c 128,-1,40
 975 330 975 330 975 367 c 0,41,42
 975 399 975 399 954 436 c 2,43,-1
 786 707 l 1,44,45
 778 633 778 633 752 567 c 0,29,30
EndSplineSet
EndChar

StartChar: afii57446
Encoding: 1606 1606 248
Width: 1331
GlyphClass: 2
Flags: W
AnchorPoint: "Anchor-3" 540 -930 basechar 0
AnchorPoint: "Anchor-2" 615 1440 basechar 0
LayerCount: 2
Fore
SplineSet
499 962 m 1,0,-1
 499 1183 l 1,1,2
 508 1185 508 1185 551 1193 c 1,3,-1
 751 1193 l 1,4,-1
 751 964 l 1,5,-1
 594 968 l 2,6,7
 549 968 549 968 499 962 c 1,0,-1
66 16 m 0,8,9
 66 86 66 86 90.5 180 c 128,-1,10
 115 274 115 274 149.5 372.5 c 128,-1,11
 184 471 184 471 229 559 c 128,-1,12
 274 647 274 647 315 705 c 1,13,-1
 489 602 l 1,14,15
 453 551 453 551 419 475 c 128,-1,16
 385 399 385 399 353.5 315 c 128,-1,17
 322 231 322 231 303.5 151.5 c 128,-1,18
 285 72 285 72 285 16 c 0,19,20
 285 -131 285 -131 522 -131 c 0,21,22
 754 -131 754 -131 877 -80 c 0,23,24
 1055 0 1055 0 1055 203 c 0,25,26
 1055 266 1055 266 1039.5 361.5 c 128,-1,27
 1024 457 1024 457 999.5 558 c 128,-1,28
 975 659 975 659 946.5 749.5 c 128,-1,29
 918 840 918 840 887 901 c 1,30,-1
 1063 981 l 1,31,32
 1090 946 1090 946 1115.5 881.5 c 128,-1,33
 1141 817 1141 817 1164.5 744.5 c 128,-1,34
 1188 672 1188 672 1204.5 588 c 128,-1,35
 1221 504 1221 504 1235 428 c 128,-1,36
 1249 352 1249 352 1255.5 287.5 c 128,-1,37
 1262 223 1262 223 1262 184 c 0,38,39
 1255 86 1255 86 1230.5 13.5 c 128,-1,40
 1206 -59 1206 -59 1168 -112.5 c 128,-1,41
 1130 -166 1130 -166 1080 -201 c 128,-1,42
 1030 -236 1030 -236 967 -258 c 0,43,44
 768 -338 768 -338 500 -338 c 0,45,46
 401 -338 401 -338 329.5 -315.5 c 128,-1,47
 258 -293 258 -293 199 -252 c 0,48,49
 66 -166 66 -166 66 16 c 0,8,9
EndSplineSet
Substitution2: "'medi' Medial Forms in Arabic lookup 3 subtable" afii62824
Substitution2: "'fina' Terminal Forms in Arabic lookup 2 subtable" afii62825
Substitution2: "'init' Initial Forms in Arabic lookup 1 subtable" afii62823
EndChar

StartChar: afii62825
Encoding: 65254 65254 249
Width: 1460
GlyphClass: 2
Flags: W
AnchorPoint: "Anchor-3" 645 -885 basechar 0
AnchorPoint: "Anchor-2" 555 1410 basechar 0
LayerCount: 2
Fore
SplineSet
522 928 m 1,0,-1
 522 1149 l 1,1,2
 531 1151 531 1151 574 1159 c 1,3,-1
 774 1159 l 1,4,-1
 774 930 l 1,5,-1
 617 934 l 2,6,7
 572 934 572 934 522 928 c 1,0,-1
70 16 m 1,8,9
 66 86 66 86 87.5 179 c 128,-1,10
 109 272 109 272 144.5 368.5 c 128,-1,11
 180 465 180 465 223 555 c 128,-1,12
 266 645 266 645 307 702 c 1,13,-1
 494 602 l 1,14,15
 459 551 459 551 423 475 c 128,-1,16
 387 399 387 399 354.5 315 c 128,-1,17
 322 231 322 231 304.5 151.5 c 128,-1,18
 287 72 287 72 287 16 c 0,19,20
 287 -131 287 -131 524 -131 c 0,21,22
 754 -131 754 -131 881 -80 c 1,23,24
 1059 0 1059 0 1059 203 c 0,25,26
 1059 299 1059 299 1026 422 c 1,27,28
 987 594 987 594 961 674 c 2,29,-1
 883 901 l 1,30,-1
 1063 977 l 1,31,32
 1077 946 1077 946 1091.5 907 c 128,-1,33
 1106 868 1106 868 1124 825 c 0,34,35
 1178 676 1178 676 1204.5 557 c 128,-1,36
 1231 438 1231 438 1247 352 c 0,37,38
 1249 330 1249 330 1265.5 305.5 c 128,-1,39
 1282 281 1282 281 1306.5 259.5 c 128,-1,40
 1331 238 1331 238 1354.5 222.5 c 128,-1,41
 1378 207 1378 207 1403 207 c 2,42,-1
 1491 207 l 1,43,-1
 1491 0 l 1,44,-1
 1382 0 l 2,45,46
 1317 0 1317 0 1249 51 c 1,47,48
 1231 -55 1231 -55 1157 -139 c 128,-1,49
 1083 -223 1083 -223 952 -272 c 0,50,51
 858 -303 858 -303 745.5 -316.5 c 128,-1,52
 633 -330 633 -330 504 -330 c 0,53,54
 313 -330 313 -330 201 -252 c 0,55,56
 70 -166 70 -166 70 16 c 1,8,9
EndSplineSet
EndChar

StartChar: afii62828
Encoding: 65258 65258 253
Width: 1032
GlyphClass: 2
Flags: W
AnchorPoint: "Anchor-3" 540 -630 basechar 0
AnchorPoint: "Anchor-2" 495 1350 basechar 0
LayerCount: 2
Fore
SplineSet
70 545 m 0,0,1
 66 637 66 637 118 723 c 128,-1,2
 170 809 170 809 251 874.5 c 128,-1,3
 332 940 332 940 434.5 980 c 128,-1,4
 537 1020 537 1020 631 1020 c 0,5,6
 676 1020 676 1020 718 1005.5 c 128,-1,7
 760 991 760 991 792.5 968.5 c 128,-1,8
 825 946 825 946 845.5 913.5 c 128,-1,9
 866 881 866 881 866 844 c 2,10,-1
 831 338 l 1,11,12
 831 207 831 207 920 207 c 2,13,-1
 1059 207 l 1,14,-1
 1059 0 l 1,15,-1
 858 0 l 2,16,17
 625 0 625 0 625 399 c 1,18,-1
 647 739 l 2,19,20
 647 774 647 774 638 787.5 c 128,-1,21
 629 801 629 801 582 801 c 0,22,23
 532 801 532 801 478 777.5 c 128,-1,24
 424 754 424 754 378 715 c 128,-1,25
 332 676 332 676 302 628 c 128,-1,26
 272 580 272 580 272 524 c 0,27,28
 272 496 272 496 287.5 442.5 c 128,-1,29
 303 389 303 389 329.5 330.5 c 128,-1,30
 356 272 356 272 385 218 c 128,-1,31
 414 164 414 164 438 127 c 1,32,-1
 289 8 l 1,33,34
 244 57 244 57 205 126 c 128,-1,35
 166 195 166 195 136 269.5 c 128,-1,36
 106 344 106 344 88 415.5 c 128,-1,37
 70 487 70 487 70 545 c 0,0,1
EndSplineSet
EndChar

StartChar: afii57448
Encoding: 1608 1608 254
Width: 917
GlyphClass: 2
Flags: W
AnchorPoint: "Anchor-3" 510 -960 basechar 0
AnchorPoint: "Anchor-2" 315 1275 basechar 0
LayerCount: 2
Fore
SplineSet
125 514 m 0,0,1
 125 672 125 672 180 817 c 0,2,3
 252 1006 252 1006 389 1006 c 0,4,5
 577 1006 577 1006 719.5 717 c 128,-1,6
 862 428 862 428 862 217 c 0,7,8
 862 -152 862 -152 591 -424 c 1,9,-1
 432 -281 l 1,10,11
 563 -174 563 -174 610 0 c 1,12,-1
 397 0 l 2,13,14
 338 0 338 0 282 41 c 0,15,16
 125 166 125 166 125 514 c 0,0,1
331 496 m 0,17,18
 331 401 331 401 360 317 c 0,19,20
 397 207 397 207 469 207 c 2,21,-1
 649 207 l 1,22,23
 653 270 653 270 643.5 332.5 c 128,-1,24
 634 395 634 395 618 452.5 c 128,-1,25
 602 510 602 510 575 562 c 128,-1,26
 548 614 548 614 524 659 c 0,27,28
 454 774 454 774 417 774 c 0,29,30
 331 774 331 774 331 496 c 0,17,18
EndSplineSet
Substitution2: "'fina' Terminal Forms in Arabic lookup 2 subtable" afii62829
EndChar

StartChar: afii62829
Encoding: 65262 65262 255
Width: 999
GlyphClass: 2
Flags: W
AnchorPoint: "Anchor-3" 435 -930 basechar 0
AnchorPoint: "Anchor-2" 300 1245 basechar 0
LayerCount: 2
Fore
SplineSet
127 514 m 0,0,1
 127 623 127 623 159.5 748 c 128,-1,2
 192 873 192 873 256.5 939.5 c 128,-1,3
 321 1006 321 1006 389 1006 c 0,4,5
 483 1006 483 1006 573 934 c 128,-1,6
 663 862 663 862 741 705 c 1,7,8
 806 565 806 565 835 439 c 128,-1,9
 864 313 864 313 864 207 c 1,10,-1
 1030 207 l 1,11,-1
 1030 0 l 1,12,-1
 835 0 l 1,13,14
 780 -231 780 -231 589 -424 c 1,15,-1
 434 -281 l 1,16,17
 561 -174 561 -174 608 0 c 1,18,-1
 399 0 l 2,19,20
 340 0 340 0 284 41 c 0,21,22
 127 166 127 166 127 514 c 0,0,1
335 496 m 0,23,24
 335 459 335 459 341.5 409.5 c 128,-1,25
 348 360 348 360 362 316 c 128,-1,26
 376 272 376 272 405 239.5 c 128,-1,27
 434 207 434 207 475 207 c 2,28,-1
 651 207 l 1,29,30
 655 272 655 272 645.5 333.5 c 128,-1,31
 636 395 636 395 618 452.5 c 128,-1,32
 600 510 600 510 575 562 c 128,-1,33
 550 614 550 614 526 659 c 0,34,35
 489 717 489 717 461.5 739.5 c 128,-1,36
 434 762 434 762 417 762 c 0,37,38
 376 762 376 762 355.5 699.5 c 128,-1,39
 335 637 335 637 335 496 c 0,23,24
EndSplineSet
EndChar

StartChar: afii62840
Encoding: 65275 65275 268
Width: 926
GlyphClass: 3
Flags: W
AnchorPoint: "Anchor-1" 720 -480 baselig 0
AnchorPoint: "Anchor-0" 585 1620 baselig 0
AnchorPoint: "Anchor-1" 240 -555 baselig 1
AnchorPoint: "Anchor-0" 90 1500 baselig 1
LayerCount: 2
Fore
SplineSet
66 1221 m 1,0,-1
 266 1282 l 1,1,2
 313 1047 313 1047 347 767 c 128,-1,3
 381 487 381 487 373 207 c 1,4,-1
 442 207 l 2,5,6
 637 207 637 207 637 414 c 0,7,8
 637 909 637 909 494 1399 c 1,9,-1
 682 1475 l 1,10,11
 840 975 840 975 840 428 c 0,12,13
 840 336 840 336 817.5 257 c 128,-1,14
 795 178 795 178 748.5 120.5 c 128,-1,15
 702 63 702 63 638.5 31.5 c 128,-1,16
 575 0 575 0 500 0 c 2,17,-1
 129 0 l 1,18,-1
 129 207 l 1,19,-1
 180 207 l 1,20,21
 180 356 180 356 173 499.5 c 128,-1,22
 166 643 166 643 147.5 773 c 128,-1,23
 129 903 129 903 107.5 1016.5 c 128,-1,24
 86 1130 86 1130 66 1221 c 1,0,-1
EndSplineSet
Ligature2: "'rlig' Required Ligatures in Arabic lookup 6 subtable" afii62817 afii62760
Substitution2: "'fina' Terminal Forms in Arabic lookup 2 subtable" afii62841
EndChar

StartChar: afii62841
Encoding: 65276 65276 269
Width: 1047
GlyphClass: 3
Flags: W
AnchorPoint: "Anchor-1" 735 -480 baselig 0
AnchorPoint: "Anchor-0" 570 1590 baselig 0
AnchorPoint: "Anchor-1" 270 -555 baselig 1
AnchorPoint: "Anchor-0" 90 1500 baselig 1
LayerCount: 2
Fore
SplineSet
66 1221 m 1,0,-1
 260 1282 l 1,1,2
 287 1163 287 1163 308.5 1034 c 128,-1,3
 330 905 330 905 345 767 c 128,-1,4
 360 629 360 629 370.5 486.5 c 128,-1,5
 381 344 381 344 373 201 c 1,6,-1
 442 207 l 1,7,8
 539 221 539 221 588 264 c 128,-1,9
 637 307 637 307 637 414 c 0,10,11
 637 909 637 909 494 1399 c 1,12,-1
 682 1475 l 1,13,14
 840 975 840 975 840 428 c 0,15,16
 840 207 840 207 987 207 c 2,17,-1
 1075 207 l 1,18,-1
 1075 0 l 1,19,-1
 975 0 l 2,20,21
 797 0 797 0 739 106 c 1,22,23
 659 0 659 0 500 0 c 2,24,-1
 129 0 l 1,25,-1
 129 207 l 1,26,-1
 184 207 l 1,27,28
 184 373 184 373 177 515 c 128,-1,29
 170 657 170 657 153.5 780 c 128,-1,30
 137 903 137 903 117.5 1010.5 c 128,-1,31
 98 1118 98 1118 66 1221 c 1,0,-1
EndSplineSet
Ligature2: "'rlig' Required Ligatures in Arabic lookup 6 subtable" afii62818 afii62760
EndChar

StartChar: afii59759
Encoding: 3663 3663 276
Width: 1233
GlyphClass: 2
Flags: W
LayerCount: 2
Fore
SplineSet
616 983 m 0,0,1
 823 983 823 983 969.5 836.5 c 128,-1,2
 1116 690 1116 690 1116 483 c 0,3,4
 1116 277 1116 277 969.5 130.5 c 128,-1,5
 823 -16 823 -16 616 -16 c 0,6,7
 410 -16 410 -16 263.5 130.5 c 128,-1,8
 117 277 117 277 117 483 c 0,9,10
 117 690 117 690 263.5 836.5 c 128,-1,11
 410 983 410 983 616 983 c 0,0,1
616 147 m 0,12,13
 758 147 758 147 849 242 c 128,-1,14
 940 337 940 337 940 483 c 256,15,16
 940 629 940 629 849 724 c 128,-1,17
 758 819 758 819 616 819 c 0,18,19
 475 819 475 819 384 724 c 128,-1,20
 293 629 293 629 293 483 c 256,21,22
 293 337 293 337 384 242 c 128,-1,23
 475 147 475 147 616 147 c 0,12,13
616 598 m 0,24,25
 664 598 664 598 697.5 565 c 128,-1,26
 731 532 731 532 731 485 c 256,27,28
 731 438 731 438 697.5 404.5 c 128,-1,29
 664 371 664 371 616 371 c 0,30,31
 569 371 569 371 535.5 404.5 c 128,-1,32
 502 438 502 438 502 485 c 256,33,34
 502 532 502 532 535.5 565 c 128,-1,35
 569 598 569 598 616 598 c 0,24,25
EndSplineSet
EndChar

StartChar: afii59760
Encoding: 3664 3664 277
Width: 1233
GlyphClass: 2
Flags: W
LayerCount: 2
Fore
SplineSet
616 924 m 0,0,1
 834 924 834 924 975 794.5 c 128,-1,2
 1116 665 1116 665 1116 453 c 0,3,4
 1116 242 1116 242 975 113 c 128,-1,5
 834 -16 834 -16 616 -16 c 0,6,7
 399 -16 399 -16 258 113 c 128,-1,8
 117 242 117 242 117 453 c 0,9,10
 117 665 117 665 258 794.5 c 128,-1,11
 399 924 399 924 616 924 c 0,0,1
616 150 m 0,12,13
 765 150 765 150 852.5 231 c 128,-1,14
 940 312 940 312 940 453 c 256,15,16
 940 594 940 594 852 677 c 128,-1,17
 764 760 764 760 616 760 c 0,18,19
 469 760 469 760 381 677 c 128,-1,20
 293 594 293 594 293 453 c 0,21,22
 293 310 293 310 381.5 230 c 128,-1,23
 470 150 470 150 616 150 c 0,12,13
EndSplineSet
EndChar

StartChar: glyph279
Encoding: 65559 -1 279
Width: 0
GlyphClass: 2
Flags: W
LayerCount: 2
Fore
SplineSet
36 1831 m 1,0,-1
 36 863 l 1,1,-1
 -36 863 l 1,2,-1
 -36 1831 l 1,3,-1
 36 1831 l 1,0,-1
36 543 m 1,4,-1
 36 -423 l 1,5,-1
 -36 -423 l 1,6,-1
 -36 543 l 1,7,-1
 36 543 l 1,4,-1
EndSplineSet
EndChar

StartChar: glyph280
Encoding: 65560 -1 280
Width: 0
GlyphClass: 2
Flags: W
LayerCount: 2
Fore
SplineSet
-234 -423 m 1,0,-1
 -234 -352 l 1,1,-1
 -36 -352 l 1,2,-1
 -36 1760 l 1,3,-1
 -234 1760 l 1,4,-1
 -234 1831 l 1,5,-1
 234 1831 l 1,6,-1
 234 1760 l 1,7,-1
 36 1760 l 1,8,-1
 36 -352 l 1,9,-1
 234 -352 l 1,10,-1
 234 -423 l 1,11,-1
 -234 -423 l 1,0,-1
EndSplineSet
EndChar

StartChar: glyph281
Encoding: 65561 -1 281
Width: 0
GlyphClass: 2
Flags: W
LayerCount: 2
Fore
SplineSet
224 1646 m 1,0,-1
 36 1504 l 1,1,-1
 36 -423 l 1,2,-1
 -36 -423 l 1,3,-1
 -36 1831 l 1,4,-1
 224 1646 l 1,0,-1
EndSplineSet
EndChar

StartChar: glyph282
Encoding: 65562 -1 282
Width: 0
GlyphClass: 2
Flags: W
LayerCount: 2
Fore
SplineSet
36 1831 m 1,0,-1
 36 -423 l 1,1,-1
 -36 -423 l 1,2,-1
 -36 1504 l 1,3,-1
 -224 1646 l 1,4,-1
 36 1831 l 1,0,-1
EndSplineSet
EndChar

StartChar: glyph283
Encoding: 65563 -1 283
Width: 0
GlyphClass: 2
Flags: W
LayerCount: 2
Fore
SplineSet
36 1831 m 1,0,-1
 36 -352 l 1,1,-1
 234 -352 l 1,2,-1
 234 -423 l 1,3,-1
 -36 -423 l 1,4,-1
 -36 1831 l 1,5,-1
 36 1831 l 1,0,-1
EndSplineSet
EndChar

StartChar: glyph284
Encoding: 65564 -1 284
Width: 0
GlyphClass: 2
Flags: W
LayerCount: 2
Fore
SplineSet
224 1646 m 1,0,-1
 36 1504 l 1,1,-1
 36 -423 l 1,2,-1
 -36 -423 l 1,3,-1
 -36 1504 l 1,4,-1
 -224 1641 l 1,5,-1
 0 1831 l 1,6,-1
 224 1646 l 1,0,-1
EndSplineSet
EndChar

StartChar: uni0670
Encoding: 1648 1648 297
Width: 0
GlyphClass: 4
Flags: W
AnchorPoint: "Anchor-2" 0 0 mark 0
AnchorPoint: "Anchor-0" 0 0 mark 0
LayerCount: 2
Fore
SplineSet
61 81 m 0,0,1
 61 72 61 72 54 0 c 1,2,-1
 -63 0 l 1,3,4
 -58 39 -58 39 -56 83 c 128,-1,5
 -54 127 -54 127 -56 198 c 128,-1,6
 -58 269 -58 269 -72 401 c 1,7,-1
 40 399 l 1,8,9
 50 316 50 316 56 237.5 c 128,-1,10
 62 159 62 159 61 81 c 0,0,1
EndSplineSet
EndChar

StartChar: glyph298
Encoding: 65565 -1 298
Width: 666
GlyphClass: 2
Flags: W
LayerCount: 2
Fore
SplineSet
319 1513 m 1,0,1
 366 1548 366 1548 408 1555 c 128,-1,2
 450 1562 450 1562 482.5 1545.5 c 128,-1,3
 515 1529 515 1529 534 1490.5 c 128,-1,4
 553 1452 553 1452 554 1397 c 2,5,-1
 552 1277 l 1,6,-1
 69 1277 l 1,7,-1
 69 1365 l 1,8,-1
 151 1365 l 1,9,-1
 319 1513 l 1,0,1
272 1365 m 1,10,-1
 464 1365 l 1,11,-1
 464 1410 l 2,12,13
 462 1453 462 1453 434.5 1465 c 128,-1,14
 407 1477 407 1477 362 1444 c 1,15,-1
 272 1365 l 1,10,-1
EndSplineSet
EndChar

StartChar: glyph299
Encoding: 65566 -1 299
Width: 1434
GlyphClass: 2
Flags: W
LayerCount: 2
Fore
SplineSet
66 0 m 0,0,1
 66 272 66 272 223 518 c 1,2,-1
 403 436 l 1,3,4
 375 395 375 395 351.5 337 c 128,-1,5
 328 279 328 279 307.5 219.5 c 128,-1,6
 287 160 287 160 275.5 105.5 c 128,-1,7
 264 51 264 51 264 8 c 0,8,9
 264 -152 264 -152 357.5 -254 c 128,-1,10
 451 -356 451 -356 608 -356 c 0,11,12
 700 -356 700 -356 802.5 -324.5 c 128,-1,13
 905 -293 905 -293 994 -246 c 128,-1,14
 1083 -199 1083 -199 1140.5 -134.5 c 128,-1,15
 1198 -70 1198 -70 1198 0 c 1,16,-1
 887 0 l 2,17,18
 705 0 705 0 631 83 c 128,-1,19
 557 166 557 166 557 342 c 0,20,21
 557 442 557 442 591 559 c 128,-1,22
 625 676 625 676 682 774 c 128,-1,23
 739 872 739 872 813 939 c 128,-1,24
 887 1006 887 1006 967 1006 c 1,25,26
 1034 1020 1034 1020 1113 965.5 c 128,-1,27
 1192 911 1192 911 1255.5 791.5 c 128,-1,28
 1319 672 1319 672 1362 492.5 c 128,-1,29
 1405 313 1405 313 1405 80 c 0,30,31
 1405 -14 1405 -14 1387.5 -90 c 128,-1,32
 1370 -166 1370 -166 1334 -227.5 c 128,-1,33
 1298 -289 1298 -289 1238 -342 c 128,-1,34
 1178 -395 1178 -395 1090 -451 c 1,35,36
 973 -510 973 -510 866.5 -533.5 c 128,-1,37
 760 -557 760 -557 651 -557 c 0,38,39
 518 -557 518 -557 409.5 -521 c 128,-1,40
 301 -485 301 -485 225.5 -413.5 c 128,-1,41
 150 -342 150 -342 108 -236.5 c 128,-1,42
 66 -131 66 -131 66 0 c 0,0,1
748 373 m 0,43,44
 748 287 748 287 781.5 247 c 128,-1,45
 815 207 815 207 891 207 c 2,46,-1
 1198 207 l 1,47,48
 1198 293 1198 293 1182.5 396.5 c 128,-1,49
 1167 500 1167 500 1136.5 586 c 128,-1,50
 1106 672 1106 672 1063 727 c 128,-1,51
 1020 782 1020 782 975 782 c 0,52,53
 938 782 938 782 898 736 c 128,-1,54
 858 690 858 690 826.5 625.5 c 128,-1,55
 795 561 795 561 771.5 491.5 c 128,-1,56
 748 422 748 422 748 373 c 0,43,44
EndSplineSet
EndChar

StartChar: uni06DD
Encoding: 1757 1757 388
Width: 2300
GlyphClass: 2
Flags: W
LayerCount: 2
Fore
SplineSet
2250 715 m 256,0,1
 2250 469 2250 469 2146 249 c 0,2,3
 2046 35 2046 35 1867 -119 c 1,4,5
 1870 -133 1870 -133 1870 -148 c 0,6,7
 1870 -203 1870 -203 1831 -241.5 c 128,-1,8
 1792 -280 1792 -280 1737 -280 c 0,9,10
 1697 -280 1697 -280 1664 -258 c 1,11,12
 1424 -385 1424 -385 1149 -385 c 0,13,14
 876 -385 876 -385 636 -258 c 1,15,16
 603 -280 603 -280 563 -280 c 0,17,18
 508 -280 508 -280 469 -241.5 c 128,-1,19
 430 -203 430 -203 430 -148 c 0,20,21
 430 -133 430 -133 433 -119 c 1,22,23
 254 35 254 35 154 249 c 0,24,25
 50 469 50 469 50 715 c 256,26,27
 50 961 50 961 154 1181 c 0,28,29
 254 1394 254 1394 433 1548 c 1,30,31
 430 1562 430 1562 430 1577 c 0,32,33
 430 1632 430 1632 469 1670.5 c 128,-1,34
 508 1709 508 1709 563 1709 c 0,35,36
 603 1709 603 1709 636 1687 c 1,37,38
 876 1814 876 1814 1151 1814 c 0,39,40
 1424 1814 1424 1814 1664 1687 c 1,41,42
 1697 1709 1697 1709 1737 1709 c 0,43,44
 1792 1709 1792 1709 1831 1670.5 c 128,-1,45
 1870 1632 1870 1632 1870 1577 c 0,46,47
 1870 1562 1870 1562 1867 1548 c 1,48,49
 2046 1394 2046 1394 2146 1181 c 0,50,51
 2250 961 2250 961 2250 715 c 256,0,1
1816 1576 m 0,52,53
 1816 1609 1816 1609 1793 1632 c 128,-1,54
 1770 1655 1770 1655 1738 1655 c 256,55,56
 1706 1655 1706 1655 1682.5 1631.5 c 128,-1,57
 1659 1608 1659 1608 1659 1576 c 256,58,59
 1659 1544 1659 1544 1682 1521 c 128,-1,60
 1705 1498 1705 1498 1738 1498 c 0,61,62
 1770 1498 1770 1498 1793 1521 c 128,-1,63
 1816 1544 1816 1544 1816 1576 c 0,52,53
1602 1595 m 1,64,65
 1390 1704 1390 1704 1151 1704 c 0,66,67
 910 1704 910 1704 698 1595 c 1,68,-1
 1602 1595 l 1,64,65
641 1576 m 256,69,70
 641 1608 641 1608 617.5 1631.5 c 128,-1,71
 594 1655 594 1655 562 1655 c 256,72,73
 530 1655 530 1655 507 1632 c 128,-1,74
 484 1609 484 1609 484 1576 c 0,75,76
 484 1544 484 1544 507 1521 c 128,-1,77
 530 1498 530 1498 562 1498 c 0,78,79
 595 1498 595 1498 618 1521 c 128,-1,80
 641 1544 641 1544 641 1576 c 256,69,70
2140 714 m 0,81,82
 2140 933 2140 933 2048 1131 c 0,83,84
 1960 1321 1960 1321 1801 1460 c 1,85,86
 1772 1444 1772 1444 1737 1444 c 0,87,88
 1681 1444 1681 1444 1642 1485 c 1,89,-1
 658 1485 l 1,90,91
 619 1444 619 1444 563 1444 c 0,92,93
 528 1444 528 1444 499 1460 c 1,94,95
 340 1321 340 1321 252 1131 c 0,96,97
 160 933 160 933 160 714 c 0,98,99
 160 265 160 265 499 -31 c 1,100,101
 528 -15 528 -15 563 -15 c 0,102,103
 619 -15 619 -15 658 -56 c 1,104,-1
 1642 -56 l 1,105,106
 1681 -15 1681 -15 1737 -15 c 0,107,108
 1772 -15 1772 -15 1801 -31 c 1,109,110
 2140 265 2140 265 2140 714 c 0,81,82
1816 -147 m 0,111,112
 1816 -115 1816 -115 1793 -92 c 128,-1,113
 1770 -69 1770 -69 1738 -69 c 0,114,115
 1705 -69 1705 -69 1682 -92 c 128,-1,116
 1659 -115 1659 -115 1659 -147 c 256,117,118
 1659 -179 1659 -179 1682.5 -202.5 c 128,-1,119
 1706 -226 1706 -226 1738 -226 c 256,120,121
 1770 -226 1770 -226 1793 -203 c 128,-1,122
 1816 -180 1816 -180 1816 -147 c 0,111,112
1602 -166 m 1,123,-1
 698 -166 l 1,124,125
 910 -275 910 -275 1151 -275 c 0,126,127
 1390 -275 1390 -275 1602 -166 c 1,123,-1
641 -147 m 256,128,129
 641 -115 641 -115 618 -92 c 128,-1,130
 595 -69 595 -69 562 -69 c 0,131,132
 530 -69 530 -69 507 -92 c 128,-1,133
 484 -115 484 -115 484 -147 c 0,134,135
 484 -180 484 -180 507 -203 c 128,-1,136
 530 -226 530 -226 562 -226 c 256,137,138
 594 -226 594 -226 617.5 -202.5 c 128,-1,139
 641 -179 641 -179 641 -147 c 256,128,129
EndSplineSet
EndChar

StartChar: uni06DE
Encoding: 1758 1758 389
Width: 2221
GlyphClass: 2
Flags: W
LayerCount: 2
Fore
SplineSet
2171 750 m 1,0,-1
 1861 439 l 1,1,-1
 1861 0 l 1,2,-1
 1421 0 l 1,3,-1
 1111 -311 l 1,4,-1
 800 0 l 1,5,-1
 361 0 l 1,6,-1
 361 439 l 1,7,-1
 50 750 l 1,8,-1
 361 1061 l 1,9,-1
 361 1500 l 1,10,-1
 800 1500 l 1,11,-1
 1111 1811 l 1,12,-1
 1421 1500 l 1,13,-1
 1861 1500 l 1,14,-1
 1861 1061 l 1,15,-1
 2171 750 l 1,0,-1
436 364 m 1,16,-1
 436 75 l 1,17,-1
 725 75 l 1,18,-1
 436 364 l 1,16,-1
725 1425 m 1,19,-1
 436 1425 l 1,20,-1
 436 1136 l 1,21,-1
 725 1425 l 1,19,-1
1786 1136 m 1,22,-1
 1786 1425 l 1,23,-1
 1496 1425 l 1,24,-1
 1786 1136 l 1,22,-1
1786 75 m 1,25,-1
 1786 364 l 1,26,-1
 1496 75 l 1,27,-1
 1786 75 l 1,25,-1
906 0 m 1,28,-1
 1111 -205 l 1,29,-1
 1315 0 l 1,30,-1
 906 0 l 1,28,-1
361 955 m 1,31,-1
 156 750 l 1,32,-1
 361 545 l 1,33,-1
 361 955 l 1,31,-1
1315 1500 m 1,34,-1
 1111 1705 l 1,35,-1
 906 1500 l 1,36,-1
 1315 1500 l 1,34,-1
1786 1030 m 1,37,-1
 1390 1425 l 1,38,-1
 831 1425 l 1,39,-1
 436 1030 l 1,40,-1
 436 470 l 1,41,-1
 831 75 l 1,42,-1
 1390 75 l 1,43,-1
 1786 470 l 1,44,-1
 1786 1030 l 1,37,-1
2065 750 m 1,45,-1
 1861 955 l 1,46,-1
 1861 545 l 1,47,-1
 2065 750 l 1,45,-1
1328 750 m 256,48,49
 1328 660 1328 660 1264.5 596 c 128,-1,50
 1201 532 1201 532 1111 532 c 256,51,52
 1021 532 1021 532 957 596 c 128,-1,53
 893 660 893 660 893 750 c 256,54,55
 893 840 893 840 957 903.5 c 128,-1,56
 1021 967 1021 967 1111 967 c 256,57,58
 1201 967 1201 967 1264.5 903.5 c 128,-1,59
 1328 840 1328 840 1328 750 c 256,48,49
1253 750 m 256,60,61
 1253 809 1253 809 1211 850.5 c 128,-1,62
 1169 892 1169 892 1110 892 c 256,63,64
 1051 892 1051 892 1009 850.5 c 128,-1,65
 967 809 967 809 967 750 c 256,66,67
 967 691 967 691 1009 649 c 128,-1,68
 1051 607 1051 607 1110 607 c 256,69,70
 1169 607 1169 607 1211 649 c 128,-1,71
 1253 691 1253 691 1253 750 c 256,60,61
EndSplineSet
EndChar

StartChar: uni06DF
Encoding: 1759 1759 390
Width: 0
GlyphClass: 2
Flags: W
LayerCount: 2
Fore
SplineSet
75 1429 m 256,0,1
 75 1398 75 1398 53 1376 c 128,-1,2
 31 1354 31 1354 0 1354 c 256,3,4
 -31 1354 -31 1354 -53 1376 c 128,-1,5
 -75 1398 -75 1398 -75 1429 c 256,6,7
 -75 1460 -75 1460 -53 1482 c 128,-1,8
 -31 1504 -31 1504 0 1504 c 256,9,10
 31 1504 31 1504 53 1482 c 128,-1,11
 75 1460 75 1460 75 1429 c 256,0,1
EndSplineSet
EndChar

StartChar: uni06E9
Encoding: 1769 1769 391
Width: 1229
GlyphClass: 2
Flags: W
LayerCount: 2
Fore
SplineSet
1179 0 m 1,0,-1
 50 0 l 1,1,-1
 278 261 l 1,2,-1
 278 849 l 1,3,-1
 50 1108 l 1,4,-1
 614 1676 l 1,5,-1
 1179 1108 l 1,6,-1
 951 849 l 1,7,-1
 951 261 l 1,8,-1
 1179 0 l 1,0,-1
1101 1108 m 1,9,-1
 614 1598 l 1,10,-1
 128 1108 l 1,11,-1
 338 871 l 1,12,-1
 338 239 l 1,13,-1
 178 56 l 1,14,-1
 1051 56 l 1,15,-1
 891 239 l 1,16,-1
 891 871 l 1,17,-1
 1101 1108 l 1,9,-1
995 1108 m 1,18,-1
 845 937 l 1,19,-1
 845 131 l 1,20,-1
 384 131 l 1,21,-1
 384 937 l 1,22,-1
 234 1108 l 1,23,-1
 614 1489 l 1,24,-1
 995 1108 l 1,18,-1
922 1108 m 1,25,-1
 614 1416 l 1,26,-1
 307 1108 l 1,27,-1
 433 968 l 1,28,-1
 433 186 l 1,29,-1
 796 186 l 1,30,-1
 796 968 l 1,31,-1
 922 1108 l 1,25,-1
833 1108 m 1,32,-1
 745 1011 l 1,33,-1
 745 267 l 1,34,-1
 484 267 l 1,35,-1
 484 1011 l 1,36,-1
 396 1108 l 1,37,-1
 614 1331 l 1,38,-1
 833 1108 l 1,32,-1
780 1108 m 1,39,-1
 614 1278 l 1,40,-1
 449 1108 l 1,41,-1
 523 1027 l 1,42,-1
 523 309 l 1,43,-1
 705 309 l 1,44,-1
 705 1027 l 1,45,-1
 780 1108 l 1,39,-1
EndSplineSet
EndChar

StartChar: uni06EB
Encoding: 1771 1771 393
Width: 0
GlyphClass: 2
Flags: W
LayerCount: 2
Fore
SplineSet
168 1522 m 1,0,-1
 -1 1354 l 1,1,-1
 -168 1521 l 1,2,-1
 1 1689 l 1,3,-1
 168 1522 l 1,0,-1
104 1522 m 1,4,-1
 0 1626 l 1,5,-1
 -104 1521 l 1,6,-1
 0 1417 l 1,7,-1
 104 1522 l 1,4,-1
EndSplineSet
EndChar

StartChar: comma
Encoding: 44 44 402
Width: 348
Flags: W
LayerCount: 2
Fore
SplineSet
350 184 m 1,0,-1
 186 -182 l 1,1,-1
 57 -180 l 1,2,-1
 160 184 l 1,3,-1
 350 184 l 1,0,-1
EndSplineSet
EndChar

StartChar: afii57407
Encoding: 1567 1567 403
Width: 1155
GlyphClass: 2
Flags: W
LayerCount: 2
Fore
SplineSet
170 1061 m 256,0,1
 170 1233 170 1233 299 1366 c 128,-1,2
 428 1499 428 1499 594 1499 c 0,3,4
 774 1499 774 1499 973 1378 c 1,5,-1
 877 1210 l 1,6,7
 752 1296 752 1296 610 1296 c 0,8,9
 522 1296 522 1296 444 1233 c 0,10,11
 360 1161 360 1161 360 1073 c 0,12,13
 360 946 360 946 500 854 c 2,14,-1
 762 682 l 1,15,16
 909 561 909 561 938 356 c 1,17,-1
 731 356 l 1,18,19
 676 489 676 489 524 602 c 2,20,-1
 287 774 l 1,21,22
 170 889 170 889 170 1061 c 256,0,1
711 236 m 1,23,-1
 758 246 l 1,24,-1
 918 246 l 1,25,-1
 969 238 l 1,26,-1
 969 0 l 1,27,-1
 838 8 l 2,28,29
 788 14 788 14 711 0 c 1,30,-1
 711 236 l 1,23,-1
EndSplineSet
EndChar

StartChar: afii57392
Encoding: 1776 1776 404
Width: 929
Flags: W
LayerCount: 2
Fore
SplineSet
214 737 m 0,0,1
 214 848 214 848 290 927 c 128,-1,2
 366 1006 366 1006 476 1006 c 0,3,4
 587 1006 587 1006 666.5 927 c 128,-1,5
 746 848 746 848 746 737 c 0,6,7
 746 631 746 631 666.5 552 c 128,-1,8
 587 473 587 473 476 473 c 0,9,10
 366 473 366 473 290 552 c 128,-1,11
 214 631 214 631 214 737 c 0,0,1
366 737 m 0,12,13
 366 696 366 696 399.5 663.5 c 128,-1,14
 433 631 433 631 476 631 c 0,15,16
 525 631 525 631 556 660.5 c 128,-1,17
 587 690 587 690 587 737 c 0,18,19
 587 786 587 786 556 819 c 128,-1,20
 525 852 525 852 476 852 c 0,21,22
 431 852 431 852 398.5 819 c 128,-1,23
 366 786 366 786 366 737 c 0,12,13
EndSplineSet
EndChar

StartChar: afii57393
Encoding: 1777 1777 405
Width: 640
Flags: W
LayerCount: 2
Fore
SplineSet
353 1462 m 1,0,1
 379 1348 379 1348 401.5 1210.5 c 128,-1,2
 424 1073 424 1073 444.5 923.5 c 128,-1,3
 465 774 465 774 476.5 631.5 c 128,-1,4
 488 489 488 489 495 363.5 c 128,-1,5
 502 238 502 238 504 144.5 c 128,-1,6
 506 51 506 51 506 -2 c 1,7,-1
 306 -2 l 1,8,9
 302 236 302 236 287.5 436.5 c 128,-1,10
 273 637 273 637 253.5 809 c 128,-1,11
 234 981 234 981 207.5 1129.5 c 128,-1,12
 181 1278 181 1278 148 1417 c 1,13,-1
 353 1462 l 1,0,1
EndSplineSet
EndChar

StartChar: afii57394
Encoding: 1778 1778 406
Width: 1049
Flags: W
LayerCount: 2
Fore
SplineSet
98 1417 m 1,0,-1
 293 1460 l 1,1,2
 293 1440 293 1440 304 1412 c 128,-1,3
 315 1384 315 1384 328 1348 c 1,4,5
 385 1116 385 1116 418 877 c 1,6,7
 453 676 453 676 590 676 c 0,8,9
 657 676 657 676 696 733 c 1,10,11
 739 786 739 786 739 854 c 0,12,13
 739 952 739 952 674 1126 c 0,14,15
 623 1270 623 1270 557 1378 c 1,16,-1
 733 1460 l 1,17,18
 815 1350 815 1350 877 1161 c 0,19,20
 938 969 938 969 938 834 c 0,21,22
 938 682 938 682 866 580 c 0,23,24
 774 453 774 453 637 453 c 0,25,26
 623 453 623 453 595 456 c 128,-1,27
 567 459 567 459 538.5 467 c 128,-1,28
 510 475 510 475 487.5 487.5 c 128,-1,29
 465 500 465 500 457 522 c 1,30,31
 467 332 467 332 470 227.5 c 128,-1,32
 473 123 473 123 473 72 c 0,33,34
 473 23 473 23 470 11.5 c 128,-1,35
 467 0 467 0 467 -8 c 1,36,-1
 270 -8 l 1,37,-1
 274 115 l 2,38,39
 279 166 279 166 271.5 269.5 c 128,-1,40
 264 373 264 373 251 495.5 c 128,-1,41
 238 618 238 618 223.5 756.5 c 128,-1,42
 209 895 209 895 187.5 1021 c 128,-1,43
 166 1147 166 1147 144.5 1253.5 c 128,-1,44
 123 1360 123 1360 98 1417 c 1,0,-1
EndSplineSet
EndChar

StartChar: afii57395
Encoding: 1779 1779 407
Width: 1540
Flags: W
LayerCount: 2
Fore
SplineSet
59 1384 m 1,0,-1
 246 1477 l 1,1,2
 264 1421 264 1421 276.5 1383.5 c 128,-1,3
 289 1346 289 1346 298 1308 c 128,-1,4
 307 1270 307 1270 317.5 1234 c 128,-1,5
 328 1198 328 1198 336 1148 c 128,-1,6
 344 1098 344 1098 355.5 1033.5 c 128,-1,7
 367 969 367 969 385 872 c 0,8,9
 401 768 401 768 445 722 c 128,-1,10
 489 676 489 676 567 676 c 0,11,12
 618 676 618 676 649 725 c 128,-1,13
 680 774 680 774 680 834 c 1,14,-1
 575 1405 l 1,15,-1
 774 1468 l 1,16,-1
 881 948 l 2,17,18
 934 688 934 688 1063 688 c 0,19,20
 1198 688 1198 688 1198 862 c 0,21,22
 1198 903 1198 903 1179.5 973.5 c 128,-1,23
 1161 1044 1161 1044 1133.5 1121 c 128,-1,24
 1106 1198 1106 1198 1077.5 1265.5 c 128,-1,25
 1049 1333 1049 1333 1020 1370 c 1,26,-1
 1202 1462 l 1,27,28
 1245 1405 1245 1405 1283 1322 c 128,-1,29
 1321 1239 1321 1239 1352.5 1149 c 128,-1,30
 1384 1059 1384 1059 1405.5 973 c 128,-1,31
 1427 887 1427 887 1427 825 c 0,32,33
 1427 752 1427 752 1401.5 685 c 128,-1,34
 1376 618 1376 618 1330 568 c 128,-1,35
 1284 518 1284 518 1222.5 487.5 c 128,-1,36
 1161 457 1161 457 1090 457 c 0,37,38
 1049 457 1049 457 1008 469 c 128,-1,39
 967 481 967 481 927 501.5 c 128,-1,40
 887 522 887 522 853 548.5 c 128,-1,41
 819 575 819 575 809 608 c 1,42,43
 758 510 758 510 694.5 481.5 c 128,-1,44
 631 453 631 453 572.5 459 c 128,-1,45
 514 465 514 465 472 486.5 c 128,-1,46
 430 508 430 508 424 514 c 1,47,48
 424 510 424 510 426 498.5 c 128,-1,49
 428 487 428 487 432 436 c 128,-1,50
 436 385 436 385 436 283 c 2,51,-1
 436 -2 l 1,52,-1
 238 -2 l 1,53,-1
 238 63 l 2,54,55
 238 160 238 160 230.5 279.5 c 128,-1,56
 223 399 223 399 213 529 c 128,-1,57
 203 659 203 659 184.5 789.5 c 128,-1,58
 166 920 166 920 146.5 1030.5 c 128,-1,59
 127 1141 127 1141 105.5 1237 c 128,-1,60
 84 1333 84 1333 59 1384 c 1,0,-1
EndSplineSet
EndChar

StartChar: afii62843
Encoding: 1780 1780 408
Width: 1511
Flags: W
LayerCount: 2
Fore
SplineSet
84 1391 m 1,0,-1
 274 1477 l 1,1,2
 303 1376 303 1376 337 1247 c 128,-1,3
 371 1118 371 1118 395 958 c 1,4,5
 416 862 416 862 430 807 c 128,-1,6
 444 752 444 752 461.5 726 c 128,-1,7
 479 700 479 700 500.5 694 c 128,-1,8
 522 688 522 688 553 688 c 2,9,-1
 672 688 l 1,10,11
 602 760 602 760 558 846 c 128,-1,12
 514 932 514 932 514 1032 c 0,13,14
 514 1141 514 1141 559 1223 c 128,-1,15
 604 1305 604 1305 678 1363 c 128,-1,16
 752 1421 752 1421 846 1453 c 128,-1,17
 940 1485 940 1485 1042.5 1491 c 128,-1,18
 1145 1497 1145 1497 1246.5 1473.5 c 128,-1,19
 1348 1450 1348 1450 1434 1393 c 1,20,-1
 1389 1198 l 1,21,22
 1221 1284 1221 1284 1026 1284 c 0,23,24
 967 1284 967 1284 914.5 1266.5 c 128,-1,25
 862 1249 862 1249 824 1218.5 c 128,-1,26
 786 1188 786 1188 762.5 1142 c 128,-1,27
 739 1096 739 1096 739 1040 c 0,28,29
 739 958 739 958 779 893.5 c 128,-1,30
 819 829 819 829 888.5 784 c 128,-1,31
 958 739 958 739 1048.5 713.5 c 128,-1,32
 1139 688 1139 688 1233 688 c 2,33,-1
 1427 688 l 1,34,-1
 1427 481 l 1,35,-1
 522 485 l 2,36,37
 504 485 504 485 473 500 c 1,38,-1
 453 514 l 1,39,40
 467 373 467 373 473 223 c 0,41,42
 479 84 479 84 465 -2 c 1,43,-1
 266 -2 l 1,44,45
 274 100 274 100 267 230 c 128,-1,46
 260 360 260 360 248 496.5 c 128,-1,47
 236 633 236 633 217.5 767 c 128,-1,48
 199 901 199 901 84 1391 c 1,0,-1
EndSplineSet
EndChar

StartChar: afii62844
Encoding: 1781 1781 409
Width: 1376
Flags: W
LayerCount: 2
Fore
SplineSet
78 430 m 0,0,1
 78 494 78 494 109.5 594 c 128,-1,2
 141 694 141 694 193.5 802.5 c 128,-1,3
 246 911 246 911 309.5 1020.5 c 128,-1,4
 373 1130 373 1130 442 1210 c 1,5,-1
 602 1061 l 1,6,7
 553 1001 553 1001 502 912 c 128,-1,8
 451 823 451 823 405.5 730 c 128,-1,9
 360 637 360 637 333.5 547 c 128,-1,10
 307 457 307 457 307 399 c 0,11,12
 307 244 307 244 451 244 c 0,13,14
 481 244 481 244 519 259 c 128,-1,15
 557 274 557 274 586.5 294.5 c 128,-1,16
 616 315 616 315 637 330 c 2,17,-1
 657 344 l 2,18,19
 659 344 659 344 677.5 329.5 c 128,-1,20
 696 315 696 315 722 294.5 c 128,-1,21
 748 274 748 274 781.5 259 c 128,-1,22
 815 244 815 244 852 244 c 0,23,24
 946 244 946 244 1002.5 319.5 c 128,-1,25
 1059 395 1059 395 1059 500 c 0,26,27
 1059 588 1059 588 1017 692.5 c 128,-1,28
 975 797 975 797 899 906.5 c 128,-1,29
 823 1016 823 1016 720.5 1118.5 c 128,-1,30
 618 1221 618 1221 500 1311 c 1,31,-1
 629 1470 l 1,32,33
 782 1368 782 1368 900 1243 c 128,-1,34
 1018 1118 1018 1118 1100 986 c 128,-1,35
 1182 854 1182 854 1225 728 c 128,-1,36
 1268 602 1268 602 1270 500 c 1,37,38
 1278 410 1278 410 1242 305.5 c 128,-1,39
 1206 201 1206 201 1149 135.5 c 128,-1,40
 1092 70 1092 70 1016 39 c 128,-1,41
 940 8 940 8 852 8 c 0,42,43
 838 8 838 8 806 18.5 c 128,-1,44
 774 29 774 29 745.5 43 c 128,-1,45
 717 57 717 57 695.5 77.5 c 128,-1,46
 674 98 674 98 672 98 c 0,47,48
 659 84 659 84 598 45 c 128,-1,49
 537 6 537 6 424 6 c 0,50,51
 344 6 344 6 280.5 38 c 128,-1,52
 217 70 217 70 172 125 c 128,-1,53
 127 180 127 180 102.5 259 c 128,-1,54
 78 338 78 338 78 430 c 0,0,1
EndSplineSet
EndChar

StartChar: afii62845
Encoding: 1782 1782 410
Width: 1296
Flags: W
LayerCount: 2
Fore
SplineSet
86 897 m 0,0,1
 86 977 86 977 114.5 1059 c 128,-1,2
 143 1141 143 1141 190.5 1216.5 c 128,-1,3
 238 1292 238 1292 302.5 1362 c 128,-1,4
 367 1432 367 1432 442 1485 c 1,5,-1
 573 1325 l 1,6,7
 453 1247 453 1247 378 1133.5 c 128,-1,8
 303 1020 303 1020 303 911 c 0,9,10
 303 786 303 786 363.5 718.5 c 128,-1,11
 424 651 424 651 545 651 c 0,12,13
 659 651 659 651 753.5 718.5 c 128,-1,14
 848 786 848 786 920 911 c 2,15,-1
 1032 1098 l 1,16,-1
 1212 989 l 1,17,-1
 616 -2 l 1,18,-1
 430 115 l 1,19,-1
 637 451 l 1,20,21
 596 438 596 438 565 438 c 2,22,-1
 500 438 l 2,23,24
 410 438 410 438 334 474 c 128,-1,25
 258 510 258 510 204 573.5 c 128,-1,26
 150 637 150 637 118 720 c 128,-1,27
 86 803 86 803 86 897 c 0,0,1
EndSplineSet
EndChar

StartChar: afii57399
Encoding: 1783 1783 411
Width: 1584
Flags: W
LayerCount: 2
Fore
SplineSet
72 1333 m 1,0,-1
 229 1475 l 1,1,2
 287 1434 287 1434 370 1329.5 c 128,-1,3
 453 1225 453 1225 539 1088.5 c 128,-1,4
 625 952 625 952 695.5 798.5 c 128,-1,5
 766 645 766 645 801 508 c 1,6,7
 840 659 840 659 897 813 c 128,-1,8
 954 967 954 967 1018.5 1094 c 128,-1,9
 1083 1221 1083 1221 1150 1319 c 128,-1,10
 1217 1417 1217 1417 1270 1475 c 1,11,-1
 1462 1354 l 1,12,13
 1360 1210 1360 1210 1278 1065 c 128,-1,14
 1196 920 1196 920 1129.5 757 c 128,-1,15
 1063 594 1063 594 1019 408.5 c 128,-1,16
 975 223 975 223 934 -2 c 1,17,-1
 705 -2 l 1,18,19
 590 465 590 465 434.5 799 c 128,-1,20
 279 1133 279 1133 72 1333 c 1,0,-1
EndSplineSet
EndChar

StartChar: afii57400
Encoding: 1784 1784 412
Width: 1542
Flags: W
LayerCount: 2
Fore
SplineSet
59 109 m 1,0,1
 170 258 170 258 253 409.5 c 128,-1,2
 336 561 336 561 400.5 726 c 128,-1,3
 465 891 465 891 511 1076.5 c 128,-1,4
 557 1262 557 1262 588 1470 c 1,5,-1
 817 1470 l 1,6,7
 1047 543 1047 543 1440 150 c 1,8,-1
 1282 8 l 1,9,10
 1225 51 1225 51 1147 147.5 c 128,-1,11
 1069 244 1069 244 987 372 c 128,-1,12
 905 500 905 500 833.5 654.5 c 128,-1,13
 762 809 762 809 725 961 c 1,14,15
 682 811 682 811 624.5 662.5 c 128,-1,16
 567 514 567 514 504.5 386 c 128,-1,17
 442 258 442 258 377.5 154.5 c 128,-1,18
 313 51 313 51 252 -6 c 1,19,-1
 59 109 l 1,0,1
EndSplineSet
EndChar

StartChar: afii57401
Encoding: 1785 1785 413
Width: 1170
Flags: W
LayerCount: 2
Fore
SplineSet
86 1038 m 0,0,1
 86 1141 86 1141 132 1227 c 128,-1,2
 178 1313 178 1313 254 1379.5 c 128,-1,3
 330 1446 330 1446 431 1483 c 128,-1,4
 532 1520 532 1520 637 1520 c 0,5,6
 717 1520 717 1520 791.5 1497.5 c 128,-1,7
 866 1475 866 1475 923.5 1437 c 128,-1,8
 981 1399 981 1399 1015 1344.5 c 128,-1,9
 1049 1290 1049 1290 1049 1284 c 2,10,-1
 1049 1264 l 1,11,12
 995 819 995 819 991 510 c 128,-1,13
 987 201 987 201 1032 -6 c 1,14,-1
 815 -12 l 1,15,16
 774 160 774 160 774 496 c 1,17,18
 614 504 614 504 492.5 542 c 128,-1,19
 371 580 371 580 279.5 648.5 c 128,-1,20
 188 717 188 717 137 814 c 128,-1,21
 86 911 86 911 86 1038 c 0,0,1
313 1032 m 0,22,23
 313 958 313 958 344 898 c 128,-1,24
 375 838 375 838 437.5 793 c 128,-1,25
 500 748 500 748 586 725 c 128,-1,26
 672 702 672 702 774 702 c 1,27,28
 774 733 774 733 778 799.5 c 128,-1,29
 782 866 782 866 795 924 c 1,30,-1
 823 1130 l 1,31,32
 823 1210 823 1210 770 1257.5 c 128,-1,33
 717 1305 717 1305 616 1305 c 0,34,35
 557 1305 557 1305 500.5 1283.5 c 128,-1,36
 444 1262 444 1262 402 1227 c 128,-1,37
 360 1192 360 1192 336.5 1141 c 128,-1,38
 313 1090 313 1090 313 1032 c 0,22,23
EndSplineSet
EndChar

StartChar: afii57392.001
Encoding: 1632 1632 414
Width: 964
Flags: W
LayerCount: 2
Fore
SplineSet
229 737 m 0,0,1
 229 848 229 848 305 927 c 128,-1,2
 381 1006 381 1006 491 1006 c 0,3,4
 602 1006 602 1006 681.5 927 c 128,-1,5
 761 848 761 848 761 737 c 0,6,7
 761 631 761 631 681.5 552 c 128,-1,8
 602 473 602 473 491 473 c 0,9,10
 381 473 381 473 305 552 c 128,-1,11
 229 631 229 631 229 737 c 0,0,1
381 737 m 0,12,13
 381 696 381 696 414.5 663.5 c 128,-1,14
 448 631 448 631 491 631 c 0,15,16
 540 631 540 631 571 660.5 c 128,-1,17
 602 690 602 690 602 737 c 0,18,19
 602 786 602 786 571 819 c 128,-1,20
 540 852 540 852 491 852 c 0,21,22
 446 852 446 852 413.5 819 c 128,-1,23
 381 786 381 786 381 737 c 0,12,13
EndSplineSet
EndChar

StartChar: afii57393.001
Encoding: 1633 1633 415
Width: 620
Flags: W
LayerCount: 2
Fore
SplineSet
344 1462 m 1,0,1
 370 1348 370 1348 392.5 1210.5 c 128,-1,2
 415 1073 415 1073 435.5 923.5 c 128,-1,3
 456 774 456 774 467.5 631.5 c 128,-1,4
 479 489 479 489 486 363.5 c 128,-1,5
 493 238 493 238 495 144.5 c 128,-1,6
 497 51 497 51 497 -2 c 1,7,-1
 297 -2 l 1,8,9
 293 236 293 236 278.5 436.5 c 128,-1,10
 264 637 264 637 244.5 809 c 128,-1,11
 225 981 225 981 198.5 1129.5 c 128,-1,12
 172 1278 172 1278 139 1417 c 1,13,-1
 344 1462 l 1,0,1
EndSplineSet
EndChar

StartChar: afii57394.001
Encoding: 1634 1634 416
Width: 1016
Flags: W
LayerCount: 2
Fore
SplineSet
98 1417 m 1,0,-1
 293 1460 l 1,1,2
 293 1440 293 1440 304 1412 c 128,-1,3
 315 1384 315 1384 328 1348 c 1,4,5
 385 1116 385 1116 418 877 c 1,6,7
 453 676 453 676 590 676 c 0,8,9
 657 676 657 676 696 733 c 1,10,11
 739 786 739 786 739 854 c 0,12,13
 739 952 739 952 674 1126 c 0,14,15
 623 1270 623 1270 557 1378 c 1,16,-1
 733 1460 l 1,17,18
 815 1350 815 1350 877 1161 c 0,19,20
 938 969 938 969 938 834 c 0,21,22
 938 682 938 682 866 580 c 0,23,24
 774 453 774 453 637 453 c 0,25,26
 623 453 623 453 595 456 c 128,-1,27
 567 459 567 459 538.5 467 c 128,-1,28
 510 475 510 475 487.5 487.5 c 128,-1,29
 465 500 465 500 457 522 c 1,30,31
 467 332 467 332 470 227.5 c 128,-1,32
 473 123 473 123 473 72 c 0,33,34
 473 23 473 23 470 11.5 c 128,-1,35
 467 0 467 0 467 -8 c 1,36,-1
 270 -8 l 1,37,-1
 274 115 l 2,38,39
 279 166 279 166 271.5 269.5 c 128,-1,40
 264 373 264 373 251 495.5 c 128,-1,41
 238 618 238 618 223.5 756.5 c 128,-1,42
 209 895 209 895 187.5 1021 c 128,-1,43
 166 1147 166 1147 144.5 1253.5 c 128,-1,44
 123 1360 123 1360 98 1417 c 1,0,-1
EndSplineSet
EndChar

StartChar: afii57395.001
Encoding: 1635 1635 417
Width: 1517
Flags: W
LayerCount: 2
Fore
SplineSet
59 1384 m 1,0,-1
 246 1477 l 1,1,2
 264 1421 264 1421 276.5 1383.5 c 128,-1,3
 289 1346 289 1346 298 1308 c 128,-1,4
 307 1270 307 1270 317.5 1234 c 128,-1,5
 328 1198 328 1198 336 1148 c 128,-1,6
 344 1098 344 1098 355.5 1033.5 c 128,-1,7
 367 969 367 969 385 872 c 0,8,9
 401 768 401 768 445 722 c 128,-1,10
 489 676 489 676 567 676 c 0,11,12
 618 676 618 676 649 725 c 128,-1,13
 680 774 680 774 680 834 c 1,14,-1
 575 1405 l 1,15,-1
 774 1468 l 1,16,-1
 881 948 l 2,17,18
 934 688 934 688 1063 688 c 0,19,20
 1198 688 1198 688 1198 862 c 0,21,22
 1198 903 1198 903 1179.5 973.5 c 128,-1,23
 1161 1044 1161 1044 1133.5 1121 c 128,-1,24
 1106 1198 1106 1198 1077.5 1265.5 c 128,-1,25
 1049 1333 1049 1333 1020 1370 c 1,26,-1
 1202 1462 l 1,27,28
 1245 1405 1245 1405 1283 1322 c 128,-1,29
 1321 1239 1321 1239 1352.5 1149 c 128,-1,30
 1384 1059 1384 1059 1405.5 973 c 128,-1,31
 1427 887 1427 887 1427 825 c 0,32,33
 1427 752 1427 752 1401.5 685 c 128,-1,34
 1376 618 1376 618 1330 568 c 128,-1,35
 1284 518 1284 518 1222.5 487.5 c 128,-1,36
 1161 457 1161 457 1090 457 c 0,37,38
 1049 457 1049 457 1008 469 c 128,-1,39
 967 481 967 481 927 501.5 c 128,-1,40
 887 522 887 522 853 548.5 c 128,-1,41
 819 575 819 575 809 608 c 1,42,43
 758 510 758 510 694.5 481.5 c 128,-1,44
 631 453 631 453 572.5 459 c 128,-1,45
 514 465 514 465 472 486.5 c 128,-1,46
 430 508 430 508 424 514 c 1,47,48
 424 510 424 510 426 498.5 c 128,-1,49
 428 487 428 487 432 436 c 128,-1,50
 436 385 436 385 436 283 c 2,51,-1
 436 -2 l 1,52,-1
 238 -2 l 1,53,-1
 238 63 l 2,54,55
 238 160 238 160 230.5 279.5 c 128,-1,56
 223 399 223 399 213 529 c 128,-1,57
 203 659 203 659 184.5 789.5 c 128,-1,58
 166 920 166 920 146.5 1030.5 c 128,-1,59
 127 1141 127 1141 105.5 1237 c 128,-1,60
 84 1333 84 1333 59 1384 c 1,0,-1
EndSplineSet
EndChar

StartChar: afii57396
Encoding: 1636 1636 418
Width: 1159
Flags: W
LayerCount: 2
Fore
SplineSet
250 688 m 1,0,1
 180 760 180 760 137 846 c 128,-1,2
 94 932 94 932 94 1032 c 0,3,4
 94 1141 94 1141 139 1223 c 128,-1,5
 184 1305 184 1305 257 1363 c 128,-1,6
 330 1421 330 1421 426 1453 c 128,-1,7
 522 1485 522 1485 623.5 1491 c 128,-1,8
 725 1497 725 1497 824.5 1473.5 c 128,-1,9
 924 1450 924 1450 1016 1393 c 1,10,-1
 967 1198 l 1,11,12
 801 1284 801 1284 604 1284 c 0,13,14
 545 1284 545 1284 493.5 1266.5 c 128,-1,15
 442 1249 442 1249 401 1218.5 c 128,-1,16
 360 1188 360 1188 337.5 1142 c 128,-1,17
 315 1096 315 1096 315 1040 c 0,18,19
 315 958 315 958 357 893.5 c 128,-1,20
 399 829 399 829 468 784 c 128,-1,21
 537 739 537 739 627 729 c 128,-1,22
 717 719 717 719 989 719 c 1,23,-1
 989 487 l 1,24,25
 854 500 854 500 758 505 c 128,-1,26
 662 510 662 510 580 510 c 0,27,28
 410 510 410 510 337 472 c 128,-1,29
 264 434 264 434 264 385 c 0,30,31
 264 344 264 344 320.5 308 c 128,-1,32
 377 272 377 272 481.5 247.5 c 128,-1,33
 586 223 586 223 734.5 213 c 128,-1,34
 883 203 883 203 1069 217 c 1,35,-1
 1069 -2 l 1,36,37
 575 -16 575 -16 330.5 59.5 c 128,-1,38
 86 135 86 135 47 348 c 128,-1,39
 8 561 8 561 250 688 c 1,0,1
EndSplineSet
EndChar

StartChar: afii57397
Encoding: 1637 1637 419
Width: 1321
Flags: W
LayerCount: 2
Fore
SplineSet
121 416 m 0,0,1
 121 473 121 473 149.5 566 c 128,-1,2
 178 659 178 659 225 760.5 c 128,-1,3
 272 862 272 862 329.5 961.5 c 128,-1,4
 387 1061 387 1061 453 1133 c 1,5,-1
 602 995 l 1,6,7
 557 938 557 938 508 856 c 128,-1,8
 459 774 459 774 417 689 c 128,-1,9
 375 604 375 604 352.5 534.5 c 128,-1,10
 330 465 330 465 330 414 c 0,11,12
 330 264 330 264 476.5 226 c 128,-1,13
 623 188 623 188 771.5 212 c 128,-1,14
 920 236 920 236 973 308.5 c 128,-1,15
 1026 381 1026 381 1018 479 c 1,16,17
 1018 559 1018 559 982 656.5 c 128,-1,18
 946 754 946 754 874.5 854 c 128,-1,19
 803 954 803 954 709.5 1049.5 c 128,-1,20
 616 1145 616 1145 508 1225 c 1,21,-1
 625 1374 l 1,22,23
 766 1278 766 1278 873.5 1163.5 c 128,-1,24
 981 1049 981 1049 1057 926 c 128,-1,25
 1133 803 1133 803 1172.5 688 c 128,-1,26
 1212 573 1212 573 1217 481 c 0,27,28
 1221 307 1221 307 1154 195.5 c 128,-1,29
 1087 84 1087 84 987 42 c 128,-1,30
 887 0 887 0 726 -7 c 128,-1,31
 565 -14 565 -14 462.5 1 c 128,-1,32
 360 16 360 16 303 50 c 128,-1,33
 246 84 246 84 205 136 c 128,-1,34
 164 188 164 188 142.5 259 c 128,-1,35
 121 330 121 330 121 416 c 0,0,1
EndSplineSet
EndChar

StartChar: afii57398
Encoding: 1638 1638 420
Width: 1217
Flags: W
LayerCount: 2
Fore
SplineSet
630 1071 m 0,0,1
 507 1072 507 1072 412 1104.5 c 128,-1,2
 317 1137 317 1137 249 1180 c 128,-1,3
 181 1223 181 1223 129 1252 c 1,4,-1
 248 1440 l 1,5,6
 277 1411 277 1411 389 1357.5 c 128,-1,7
 501 1304 501 1304 617.5 1300.5 c 128,-1,8
 734 1297 734 1297 811 1335 c 128,-1,9
 888 1373 888 1373 894 1464 c 1,10,-1
 1099 1464 l 1,11,-1
 1096 2 l 1,12,-1
 891 2 l 1,13,-1
 884 1141 l 1,14,15
 845 1111 845 1111 783.5 1091 c 128,-1,16
 722 1071 722 1071 630 1071 c 0,0,1
EndSplineSet
EndChar

StartChar: afii57399.001
Encoding: 1639 1639 421
Width: 1550
Flags: W
LayerCount: 2
Fore
SplineSet
72 1333 m 1,0,-1
 229 1475 l 1,1,2
 287 1434 287 1434 370 1329.5 c 128,-1,3
 453 1225 453 1225 539 1088.5 c 128,-1,4
 625 952 625 952 695.5 798.5 c 128,-1,5
 766 645 766 645 801 508 c 1,6,7
 840 659 840 659 897 813 c 128,-1,8
 954 967 954 967 1018.5 1094 c 128,-1,9
 1083 1221 1083 1221 1150 1319 c 128,-1,10
 1217 1417 1217 1417 1270 1475 c 1,11,-1
 1462 1354 l 1,12,13
 1360 1210 1360 1210 1278 1065 c 128,-1,14
 1196 920 1196 920 1129.5 757 c 128,-1,15
 1063 594 1063 594 1019 408.5 c 128,-1,16
 975 223 975 223 934 -2 c 1,17,-1
 705 -2 l 1,18,19
 590 465 590 465 434.5 799 c 128,-1,20
 279 1133 279 1133 72 1333 c 1,0,-1
EndSplineSet
EndChar

StartChar: afii57400.001
Encoding: 1640 1640 422
Width: 1546
Flags: W
LayerCount: 2
Fore
SplineSet
59 109 m 1,0,1
 170 258 170 258 253 409.5 c 128,-1,2
 336 561 336 561 400.5 726 c 128,-1,3
 465 891 465 891 511 1076.5 c 128,-1,4
 557 1262 557 1262 588 1470 c 1,5,-1
 817 1470 l 1,6,7
 1047 543 1047 543 1440 150 c 1,8,-1
 1282 8 l 1,9,10
 1225 51 1225 51 1147 147.5 c 128,-1,11
 1069 244 1069 244 987 372 c 128,-1,12
 905 500 905 500 833.5 654.5 c 128,-1,13
 762 809 762 809 725 961 c 1,14,15
 682 811 682 811 624.5 662.5 c 128,-1,16
 567 514 567 514 504.5 386 c 128,-1,17
 442 258 442 258 377.5 154.5 c 128,-1,18
 313 51 313 51 252 -6 c 1,19,-1
 59 109 l 1,0,1
EndSplineSet
EndChar

StartChar: afii57401.001
Encoding: 1641 1641 423
Width: 1146
Flags: W
LayerCount: 2
Fore
SplineSet
86 1038 m 0,0,1
 86 1141 86 1141 132 1227 c 128,-1,2
 178 1313 178 1313 254 1379.5 c 128,-1,3
 330 1446 330 1446 431 1483 c 128,-1,4
 532 1520 532 1520 637 1520 c 0,5,6
 717 1520 717 1520 791.5 1497.5 c 128,-1,7
 866 1475 866 1475 923.5 1437 c 128,-1,8
 981 1399 981 1399 1015 1344.5 c 128,-1,9
 1049 1290 1049 1290 1049 1284 c 2,10,-1
 1049 1264 l 1,11,12
 995 819 995 819 991 510 c 128,-1,13
 987 201 987 201 1032 -6 c 1,14,-1
 815 -12 l 1,15,16
 774 160 774 160 774 496 c 1,17,18
 614 504 614 504 492.5 542 c 128,-1,19
 371 580 371 580 279.5 648.5 c 128,-1,20
 188 717 188 717 137 814 c 128,-1,21
 86 911 86 911 86 1038 c 0,0,1
313 1032 m 0,22,23
 313 958 313 958 344 898 c 128,-1,24
 375 838 375 838 437.5 793 c 128,-1,25
 500 748 500 748 586 725 c 128,-1,26
 672 702 672 702 774 702 c 1,27,28
 774 733 774 733 778 799.5 c 128,-1,29
 782 866 782 866 795 924 c 1,30,-1
 823 1130 l 1,31,32
 823 1210 823 1210 770 1257.5 c 128,-1,33
 717 1305 717 1305 616 1305 c 0,34,35
 557 1305 557 1305 500.5 1283.5 c 128,-1,36
 444 1262 444 1262 402 1227 c 128,-1,37
 360 1192 360 1192 336.5 1141 c 128,-1,38
 313 1090 313 1090 313 1032 c 0,22,23
EndSplineSet
EndChar

StartChar: guillemotleft
Encoding: 171 171 424
Width: 840
Flags: W
LayerCount: 2
Fore
SplineSet
463 411 m 2,0,1
 463 580 463 580 534.5 687.5 c 128,-1,2
 606 795 606 795 734 837 c 1,3,4
 746 831 746 831 722 785 c 0,5,6
 685 706 685 706 662 610 c 0,7,8
 638 516 638 516 638 406 c 2,9,-1
 638 403 l 2,10,11
 638 293 638 293 662 198 c 0,12,13
 685 103 685 103 722 24 c 0,14,15
 746 -22 746 -22 676.5 -2.5 c 128,-1,16
 607 17 607 17 558.5 93 c 128,-1,17
 510 169 510 169 487 243.5 c 128,-1,18
 464 318 464 318 463 398 c 2,19,-1
 463 411 l 2,0,1
163 411 m 2,20,21
 163 580 163 580 234.5 687.5 c 128,-1,22
 306 795 306 795 434 837 c 1,23,24
 446 831 446 831 422 785 c 0,25,26
 385 706 385 706 362 610 c 0,27,28
 338 516 338 516 338 406 c 2,29,-1
 338 403 l 2,30,31
 338 293 338 293 362 198 c 0,32,33
 385 103 385 103 422 24 c 0,34,35
 446 -22 446 -22 376.5 -2.5 c 128,-1,36
 307 17 307 17 258.5 93 c 128,-1,37
 210 169 210 169 187 243.5 c 128,-1,38
 164 318 164 318 163 398 c 2,39,-1
 163 411 l 2,20,21
EndSplineSet
EndChar

StartChar: guillemotright
Encoding: 187 187 425
Width: 825
Flags: W
LayerCount: 2
Fore
SplineSet
446 398 m 2,0,1
 445 318 445 318 422 243.5 c 128,-1,2
 399 169 399 169 350.5 93 c 128,-1,3
 302 17 302 17 232.5 -2.5 c 128,-1,4
 163 -22 163 -22 187 24 c 0,5,6
 224 103 224 103 247 198 c 0,7,8
 271 293 271 293 271 403 c 2,9,-1
 271 406 l 2,10,11
 271 516 271 516 247 610 c 0,12,13
 224 706 224 706 187 785 c 0,14,15
 163 831 163 831 175 837 c 1,16,17
 303 795 303 795 374.5 687.5 c 128,-1,18
 446 580 446 580 446 411 c 2,19,-1
 446 398 l 2,0,1
746 398 m 2,20,21
 745 318 745 318 722 243.5 c 128,-1,22
 699 169 699 169 650.5 93 c 128,-1,23
 602 17 602 17 532.5 -2.5 c 128,-1,24
 463 -22 463 -22 487 24 c 0,25,26
 524 103 524 103 547 198 c 0,27,28
 571 293 571 293 571 403 c 2,29,-1
 571 406 l 2,30,31
 571 516 571 516 547 610 c 0,32,33
 524 706 524 706 487 785 c 0,34,35
 463 831 463 831 475 837 c 1,36,37
 603 795 603 795 674.5 687.5 c 128,-1,38
 746 580 746 580 746 411 c 2,39,-1
 746 398 l 2,20,21
EndSplineSet
EndChar

StartChar: quoteleft
Encoding: 8216 8216 426
Width: 516
Flags: W
LayerCount: 2
Fore
SplineSet
111 1204 m 0,0,1
 115 1296 115 1296 176.5 1385.5 c 128,-1,2
 238 1475 238 1475 313 1511 c 1,3,-1
 356 1427 l 1,4,5
 336 1415 336 1415 305 1381.5 c 128,-1,6
 274 1348 274 1348 258 1296 c 1,7,8
 350 1255 350 1255 348 1180 c 0,9,10
 348 1157 348 1157 338.5 1136 c 128,-1,11
 329 1115 329 1115 313.5 1099 c 128,-1,12
 298 1083 298 1083 277 1074 c 128,-1,13
 256 1065 256 1065 233 1065 c 0,14,15
 205 1065 205 1065 182.5 1077.5 c 128,-1,16
 160 1090 160 1090 144 1109.5 c 128,-1,17
 128 1129 128 1129 119.5 1154 c 128,-1,18
 111 1179 111 1179 111 1204 c 0,0,1
EndSplineSet
EndChar

StartChar: quoteright
Encoding: 8217 8217 427
Width: 575
Flags: W
LayerCount: 2
Fore
SplineSet
416 1376 m 0,0,1
 412 1284 412 1284 350.5 1195 c 128,-1,2
 289 1106 289 1106 213 1069 c 1,3,-1
 170 1151 l 1,4,5
 190 1163 190 1163 221 1197 c 128,-1,6
 252 1231 252 1231 268 1284 c 1,7,8
 176 1323 176 1323 178 1401 c 0,9,10
 178 1424 178 1424 187 1444.5 c 128,-1,11
 196 1465 196 1465 212 1480 c 128,-1,12
 228 1495 228 1495 249 1504 c 128,-1,13
 270 1513 270 1513 293 1513 c 0,14,15
 321 1513 321 1513 344 1501 c 128,-1,16
 367 1489 367 1489 383 1470 c 128,-1,17
 399 1451 399 1451 407.5 1426 c 128,-1,18
 416 1401 416 1401 416 1376 c 0,0,1
EndSplineSet
EndChar

StartChar: afii57451
Encoding: 1611 1611 428
Width: 0
GlyphClass: 4
Flags: W
AnchorPoint: "Anchor-2" 0 0 mark 0
AnchorPoint: "Anchor-0" 0 0 mark 0
LayerCount: 2
Fore
SplineSet
-292 291 m 1,0,1
 -85 362 -85 362 23 403 c 0,2,3
 109 434 109 434 222 479 c 1,4,-1
 263 382 l 1,5,-1
 -263 198 l 1,6,-1
 -292 291 l 1,0,1
-291 92 m 1,7,8
 -84 163 -84 163 24 204 c 0,9,10
 110 235 110 235 223 280 c 1,11,-1
 264 183 l 1,12,-1
 -262 -1 l 1,13,-1
 -291 92 l 1,7,8
EndSplineSet
EndChar

StartChar: afii57454
Encoding: 1614 1614 429
Width: 0
GlyphClass: 4
Flags: W
AnchorPoint: "Anchor-2" 0 0 mark 0
AnchorPoint: "Anchor-0" 0 0 mark 0
LayerCount: 2
Fore
SplineSet
-292 101 m 1,0,1
 -85 172 -85 172 23 213 c 0,2,3
 109 244 109 244 222 289 c 1,4,-1
 263 192 l 1,5,-1
 -263 8 l 1,6,-1
 -292 101 l 1,0,1
EndSplineSet
EndChar

StartChar: afii57455
Encoding: 1615 1615 430
Width: 0
GlyphClass: 4
Flags: W
AnchorPoint: "Anchor-2" 0 0 mark 0
AnchorPoint: "Anchor-0" 0 0 mark 0
LayerCount: 2
Fore
SplineSet
-240 115 m 1,0,1
 -82 166 -82 166 12 201 c 1,2,3
 -33 250 -33 250 -33 318 c 0,4,5
 -33 387 -33 387 15 434.5 c 128,-1,6
 63 482 63 482 135 482 c 0,7,8
 206 482 206 482 255.5 434.5 c 128,-1,9
 305 387 305 387 305 318 c 0,10,11
 305 275 305 275 284.5 241 c 128,-1,12
 264 207 264 207 229 180 c 1,13,14
 161 144 161 144 0.5 84.5 c 128,-1,15
 -160 25 -160 25 -211 15 c 1,16,-1
 -240 115 l 1,0,1
55 312 m 0,17,18
 55 277 55 277 79.5 253.5 c 128,-1,19
 104 230 104 230 139 230 c 256,20,21
 174 230 174 230 197.5 253.5 c 128,-1,22
 221 277 221 277 221 312 c 0,23,24
 221 344 221 344 197.5 370 c 128,-1,25
 174 396 174 396 139 396 c 256,26,27
 104 396 104 396 79.5 370 c 128,-1,28
 55 344 55 344 55 312 c 0,17,18
EndSplineSet
EndChar

StartChar: afii57452
Encoding: 1612 1612 431
Width: 0
GlyphClass: 4
Flags: W
AnchorPoint: "Anchor-2" 0 0 mark 0
AnchorPoint: "Anchor-0" 0 0 mark 0
LayerCount: 2
Fore
SplineSet
-251 95 m 1,0,-1
 -163 128 l 1,1,2
 -221 187 -221 187 -266 186 c 1,3,-1
 -229 265 l 1,4,-1
 -99 149 l 1,5,6
 -44 166 -44 166 -1 187 c 1,7,8
 -23 209 -23 209 -35.5 239 c 128,-1,9
 -48 269 -48 269 -48 304 c 0,10,11
 -48 373 -48 373 1 420.5 c 128,-1,12
 50 468 50 468 122 468 c 256,13,14
 194 468 194 468 242 420.5 c 128,-1,15
 290 373 290 373 290 304 c 0,16,17
 290 261 290 261 270.5 226.5 c 128,-1,18
 251 192 251 192 218 171 c 1,19,20
 -171 24 -171 24 -226 14 c 1,21,-1
 -251 95 l 1,0,-1
30 298 m 0,22,23
 30 263 30 263 55.5 239.5 c 128,-1,24
 81 216 81 216 116 216 c 256,25,26
 151 216 151 216 173.5 239.5 c 128,-1,27
 196 263 196 263 196 298 c 0,28,29
 196 330 196 330 173.5 356 c 128,-1,30
 151 382 151 382 116 382 c 256,31,32
 81 382 81 382 55.5 356 c 128,-1,33
 30 330 30 330 30 298 c 0,22,23
EndSplineSet
EndChar

StartChar: afii57456
Encoding: 1616 1616 432
Width: 0
GlyphClass: 4
Flags: W
AnchorPoint: "Anchor-3" 0 0 mark 0
AnchorPoint: "Anchor-1" 0 0 mark 0
LayerCount: 2
Fore
SplineSet
-292 101 m 1,0,1
 -85 172 -85 172 23 213 c 0,2,3
 109 244 109 244 222 289 c 1,4,-1
 263 192 l 1,5,-1
 -263 8 l 1,6,-1
 -292 101 l 1,0,1
EndSplineSet
EndChar

StartChar: afii57457
Encoding: 1617 1617 433
Width: 0
GlyphClass: 4
Flags: W
AnchorPoint: "Anchor-2" 0 0 mark 0
AnchorPoint: "Anchor-0" 0 0 mark 0
LayerCount: 2
Fore
SplineSet
-109 -9 m 0,0,1
 -169 -13 -169 -13 -212 47 c 0,2,3
 -226 71 -226 71 -235.5 96.5 c 128,-1,4
 -245 122 -245 122 -249 143 c 2,5,-1
 -277 255 l 1,6,-1
 -198 278 l 1,7,-1
 -177 198 l 1,8,-1
 -161 128 l 1,9,10
 -146 83 -146 83 -103 83 c 1,11,12
 -41 89 -41 89 -58 169 c 1,13,-1
 -93 290 l 1,14,-1
 -6 321 l 1,15,-1
 32 173 l 2,16,17
 35 151 35 151 55.5 117 c 128,-1,18
 76 83 76 83 106 85 c 0,19,20
 133 85 133 85 146.5 107 c 128,-1,21
 160 129 160 129 147 178 c 1,22,-1
 95 319 l 1,23,-1
 175 348 l 1,24,-1
 233 204 l 1,25,-1
 239 178 l 1,26,-1
 242 151 l 1,27,28
 241 90 241 90 204 46.5 c 128,-1,29
 167 3 167 3 106 3 c 0,30,31
 28 3 28 3 -1 56 c 1,32,33
 -30 -5 -30 -5 -109 -9 c 0,0,1
EndSplineSet
EndChar

StartChar: afii57458
Encoding: 1618 1618 434
Width: 0
GlyphClass: 4
Flags: W
AnchorPoint: "Anchor-2" 0 0 mark 0
AnchorPoint: "Anchor-0" 0 0 mark 0
LayerCount: 2
Fore
SplineSet
-167 158 m 1,0,1
 -152 228 -152 228 -111 295 c 1,2,3
 -62 388 -62 388 5 388 c 0,4,5
 75 388 75 388 118 316 c 0,6,7
 159 242 159 242 169 191 c 0,8,9
 190 105 190 105 135 48 c 1,10,11
 96 0 96 0 -5 0 c 0,12,13
 -76 0 -76 0 -126 35 c 0,14,15
 -167 64 -167 64 -167 119 c 2,16,-1
 -167 158 l 1,0,1
-9 287 m 1,17,18
 -27 281 -27 281 -51.5 236 c 128,-1,19
 -76 191 -76 191 -76 150 c 0,20,21
 -76 95 -76 95 10 95 c 0,22,23
 53 95 53 95 69 115 c 0,24,25
 91 138 91 138 83 166 c 0,26,27
 75 213 75 213 61 242 c 0,28,29
 40 287 40 287 5 287 c 2,30,-1
 -9 287 l 1,17,18
EndSplineSet
EndChar

StartChar: exclam
Encoding: 33 33 437
Width: 778
GlyphClass: 2
Flags: W
LayerCount: 2
Fore
SplineSet
256 1290 m 1,0,-1
 477 1348 l 1,1,2
 520 1202 520 1202 569 952.5 c 128,-1,3
 618 703 618 703 622 336 c 1,4,-1
 407 324 l 1,5,6
 407 426 407 426 403 515 c 128,-1,7
 399 604 399 604 387 717 c 0,8,9
 358 973 358 973 256 1290 c 1,0,-1
377 0 m 1,10,-1
 393 217 l 1,11,-1
 641 229 l 1,12,-1
 637 115 l 1,13,-1
 628 0 l 1,14,-1
 377 0 l 1,10,-1
EndSplineSet
EndChar

StartChar: afii64060
Encoding: 64830 64830 438
Width: 637
GlyphClass: 2
Flags: W
LayerCount: 2
Fore
SplineSet
436 -385 m 1,0,1
 0 31 0 31 -2 567 c 0,2,3
 -2 1110 -2 1110 430 1585 c 1,4,-1
 602 1446 l 1,5,6
 401 1255 401 1255 307 1030 c 0,7,8
 209 786 209 786 215 567 c 0,9,10
 217 360 217 360 330 131 c 1,11,12
 430 -84 430 -84 623 -246 c 1,13,-1
 436 -385 l 1,0,1
EndSplineSet
EndChar

StartChar: afii64061
Encoding: 64831 64831 439
Width: 631
GlyphClass: 2
Flags: W
LayerCount: 2
Fore
SplineSet
2 -258 m 1,0,1
 193 -94 193 -94 293 121 c 0,2,3
 403 352 403 352 410 557 c 0,4,5
 416 774 416 774 315 1020 c 0,6,7
 221 1247 221 1247 23 1434 c 1,8,-1
 195 1577 l 1,9,10
 631 1098 631 1098 625 559 c 0,11,12
 623 27 623 27 188 -389 c 1,13,-1
 2 -258 l 1,0,1
EndSplineSet
EndChar

StartChar: afii62821
Encoding: 65252 65252 440
Width: 1419
GlyphClass: 2
Flags: W
AnchorPoint: "Anchor-3" 720 -615 basechar 0
AnchorPoint: "Anchor-2" 570 1200 basechar 0
LayerCount: 2
Fore
SplineSet
-29 0 m 1,0,-1
 -29 207 l 1,1,-1
 41 207 l 2,2,3
 129 207 129 207 216 253 c 128,-1,4
 303 299 303 299 380 378 c 128,-1,5
 457 457 457 457 512 559.5 c 128,-1,6
 567 662 567 662 596 774 c 1,7,-1
 768 719 l 1,8,-1
 659 897 l 1,9,-1
 838 1001 l 1,10,-1
 1221 356 l 2,11,12
 1313 207 1313 207 1364 207 c 2,13,-1
 1432 207 l 1,14,-1
 1432 0 l 1,15,-1
 1339 0 l 2,16,17
 1313 0 1313 0 1281 14.5 c 128,-1,18
 1249 29 1249 29 1218.5 49.5 c 128,-1,19
 1188 70 1188 70 1159 98.5 c 128,-1,20
 1130 127 1130 127 1116 156 c 1,21,22
 1001 0 1001 0 739 0 c 0,23,24
 489 0 489 0 442 156 c 1,25,26
 410 127 410 127 361.5 96.5 c 128,-1,27
 313 66 313 66 257 47.5 c 128,-1,28
 201 29 201 29 146.5 14.5 c 128,-1,29
 92 0 92 0 41 0 c 2,30,-1
 -29 0 l 1,0,-1
745 610 m 0,31,32
 729 557 729 557 702.5 504 c 128,-1,33
 676 451 676 451 649.5 398.5 c 128,-1,34
 623 346 623 346 590 303 c 1,35,36
 590 260 590 260 639 233.5 c 128,-1,37
 688 207 688 207 745 207 c 0,38,39
 829 207 829 207 895 250 c 128,-1,40
 961 293 961 293 961 367 c 0,41,42
 961 399 961 399 940 436 c 2,43,-1
 772 711 l 1,44,45
 760 662 760 662 745 610 c 0,31,32
EndSplineSet
EndChar

StartChar: uni25CC
Encoding: 9676 9676 441
Width: 911
Flags: W
AnchorPoint: "Anchor-3" 570 -450 basechar 0
AnchorPoint: "Anchor-2" 345 975 basechar 0
LayerCount: 2
Fore
SplineSet
771 629 m 256,0,1
 771 592 771 592 734 592 c 0,2,3
 695 592 695 592 695 629 c 256,4,5
 695 666 695 666 734 666 c 0,6,7
 771 666 771 666 771 629 c 256,0,1
658 703 m 0,8,9
 658 666 658 666 621 666 c 0,10,11
 582 666 582 666 582 703 c 0,12,13
 582 742 582 742 621 742 c 0,14,15
 658 742 658 742 658 703 c 0,8,9
847 516 m 0,16,17
 847 477 847 477 808 477 c 0,18,19
 771 477 771 477 771 516 c 0,20,21
 771 553 771 553 810 553 c 0,22,23
 847 553 847 553 847 516 c 0,16,17
873 384 m 256,24,25
 873 347 873 347 836 347 c 0,26,27
 797 347 797 347 797 384 c 256,28,29
 797 421 797 421 836 421 c 0,30,31
 873 421 873 421 873 384 c 256,24,25
525 731 m 0,32,33
 525 692 525 692 488 692 c 256,34,35
 451 692 451 692 451 731 c 0,36,37
 451 768 451 768 488 768 c 256,38,39
 525 768 525 768 525 731 c 0,32,33
847 251 m 0,40,41
 847 214 847 214 808 214 c 0,42,43
 771 214 771 214 771 251 c 0,44,45
 771 290 771 290 808 290 c 0,46,47
 847 290 847 290 847 251 c 0,40,41
394 703 m 0,48,49
 394 666 394 666 356 666 c 0,50,51
 319 666 319 666 319 703 c 0,52,53
 319 742 319 742 356 742 c 0,54,55
 394 742 394 742 394 703 c 0,48,49
282 629 m 256,56,57
 282 592 282 592 243 592 c 0,58,59
 206 592 206 592 206 627 c 0,60,61
 206 666 206 666 243 666 c 0,62,63
 282 666 282 666 282 629 c 256,56,57
771 138 m 0,64,65
 771 101 771 101 734 101 c 256,66,67
 697 101 697 101 697 138 c 0,68,69
 697 177 697 177 734 177 c 256,70,71
 771 177 771 177 771 138 c 0,64,65
658 64 m 0,72,73
 658 27 658 27 621 27 c 256,74,75
 584 27 584 27 584 64 c 0,76,77
 584 103 584 103 621 103 c 256,78,79
 658 103 658 103 658 64 c 0,72,73
206 516 m 0,80,81
 206 477 206 477 171 477 c 0,82,83
 132 477 132 477 132 516 c 0,84,85
 132 553 132 553 169 553 c 256,86,87
 206 553 206 553 206 516 c 0,80,81
180 384 m 256,88,89
 180 347 180 347 143 347 c 0,90,91
 104 347 104 347 104 384 c 256,92,93
 104 421 104 421 143 421 c 0,94,95
 180 421 180 421 180 384 c 256,88,89
525 38 m 0,96,97
 525 -1 525 -1 488 -1 c 256,98,99
 451 -1 451 -1 451 38 c 0,100,101
 451 75 451 75 488 75 c 256,102,103
 525 75 525 75 525 38 c 0,96,97
394 66 m 0,104,105
 394 27 394 27 356 27 c 0,106,107
 319 27 319 27 319 64 c 0,108,109
 319 103 319 103 356 103 c 0,110,111
 394 103 394 103 394 66 c 0,104,105
206 251 m 0,112,113
 206 214 206 214 169 214 c 256,114,115
 132 214 132 214 132 251 c 0,116,117
 132 290 132 290 169 290 c 256,118,119
 206 290 206 290 206 251 c 0,112,113
282 138 m 0,120,121
 282 101 282 101 245 101 c 0,122,123
 206 101 206 101 206 138 c 0,124,125
 206 177 206 177 243 177 c 0,126,127
 282 177 282 177 282 138 c 0,120,121
EndSplineSet
EndChar

StartChar: afii62819
Encoding: 65246 65246 442
Width: 1475
GlyphClass: 2
Flags: W
AnchorPoint: "Anchor-3" 615 -915 basechar 0
AnchorPoint: "Anchor-2" 690 1650 basechar 0
LayerCount: 2
Fore
SplineSet
66 16 m 0,0,1
 66 86 66 86 87.5 176 c 128,-1,2
 109 266 109 266 139.5 361.5 c 128,-1,3
 170 457 170 457 215 544 c 128,-1,4
 260 631 260 631 315 696 c 1,5,-1
 489 602 l 1,6,7
 453 539 453 539 417 462 c 128,-1,8
 381 385 381 385 349 300 c 128,-1,9
 317 215 317 215 301 140.5 c 128,-1,10
 285 66 285 66 285 16 c 0,11,12
 285 -131 285 -131 522 -131 c 0,13,14
 803 -131 803 -131 929 -51 c 128,-1,15
 1055 29 1055 29 1055 203 c 0,16,17
 1055 901 1055 901 905 1434 c 1,18,-1
 1104 1497 l 1,19,20
 1139 1399 1139 1399 1167.5 1255.5 c 128,-1,21
 1196 1112 1196 1112 1214.5 954.5 c 128,-1,22
 1233 797 1233 797 1244 642 c 128,-1,23
 1255 487 1255 487 1255 360 c 0,24,25
 1255 338 1255 338 1266.5 311.5 c 128,-1,26
 1278 285 1278 285 1295.5 261.5 c 128,-1,27
 1313 238 1313 238 1336.5 222.5 c 128,-1,28
 1360 207 1360 207 1389 207 c 2,29,-1
 1489 207 l 1,30,-1
 1489 0 l 1,31,-1
 1368 0 l 2,32,33
 1313 0 1313 0 1249 51 c 1,34,35
 1231 -41 1231 -41 1171.5 -110.5 c 128,-1,36
 1112 -180 1112 -180 1015 -230.5 c 128,-1,37
 918 -281 918 -281 788.5 -305.5 c 128,-1,38
 659 -330 659 -330 500 -330 c 0,39,40
 293 -330 293 -330 179.5 -243 c 128,-1,41
 66 -156 66 -156 66 16 c 0,0,1
EndSplineSet
EndChar

StartChar: braceright
Encoding: 125 125 445
Width: 595
GlyphClass: 2
Flags: W
LayerCount: 2
Fore
SplineSet
545 391 m 1,0,1
 476 389 476 389 435 353.5 c 128,-1,2
 394 318 394 318 379 258 c 0,3,4
 373 229 373 229 369 178 c 128,-1,5
 365 127 365 127 364 53 c 0,6,7
 364 -19 364 -19 363 -66.5 c 128,-1,8
 362 -114 362 -114 360 -137 c 0,9,10
 353 -191 353 -191 340 -229.5 c 128,-1,11
 327 -268 327 -268 307 -294.5 c 128,-1,12
 287 -321 287 -321 259.5 -338 c 128,-1,13
 232 -355 232 -355 197 -365 c 0,14,15
 164 -374 164 -374 89 -374 c 2,16,-1
 41 -374 l 1,17,-1
 41 -238 l 1,18,-1
 68 -238 l 2,19,20
 160 -238 160 -238 187 -205 c 0,21,22
 217 -174 217 -174 217 -59 c 0,23,24
 217 50 217 50 218.5 119 c 128,-1,25
 220 188 220 188 224 217 c 0,26,27
 239 313 239 313 281 371 c 128,-1,28
 323 429 323 429 399 461 c 1,29,30
 299 510 299 510 258 588 c 0,31,32
 217 665 217 665 217 853 c 0,33,34
 217 1023 217 1023 214 1056 c 0,35,36
 211 1085 211 1085 203 1105 c 128,-1,37
 195 1125 195 1125 178.5 1137 c 128,-1,38
 162 1149 162 1149 135.5 1154.5 c 128,-1,39
 109 1160 109 1160 68 1160 c 2,40,-1
 41 1160 l 1,41,-1
 41 1297 l 1,42,-1
 89 1297 l 2,43,44
 172 1297 172 1297 214 1283 c 0,45,46
 269 1263 269 1263 305.5 1218.5 c 128,-1,47
 342 1174 342 1174 353 1105 c 0,48,49
 358 1072 358 1072 361 1016 c 128,-1,50
 364 960 364 960 364 880 c 0,51,52
 365 801 365 801 369 747.5 c 128,-1,53
 373 694 373 694 379 663 c 0,54,55
 386 634 386 634 400.5 610 c 128,-1,56
 415 586 415 586 435 568 c 0,57,58
 475 535 475 535 545 532 c 1,59,-1
 545 391 l 1,0,1
EndSplineSet
EndChar

StartChar: uni0656
Encoding: 1622 1622 452
Width: 0
GlyphClass: 4
Flags: W
AnchorPoint: "Anchor-3" 0 0 mark 0
AnchorPoint: "Anchor-1" 0 0 mark 0
LayerCount: 2
Fore
SplineSet
61 81 m 0,0,1
 61 72 61 72 54 0 c 1,2,-1
 -63 0 l 1,3,4
 -58 39 -58 39 -56 83 c 128,-1,5
 -54 127 -54 127 -56 198 c 128,-1,6
 -58 269 -58 269 -72 401 c 1,7,-1
 40 399 l 1,8,9
 50 316 50 316 56 237.5 c 128,-1,10
 62 159 62 159 61 81 c 0,0,1
EndSplineSet
EndChar

StartChar: E005
Encoding: 65578 -1 470
Width: 476
GlyphClass: 3
Flags: W
LayerCount: 2
Fore
SplineSet
-43 0 m 1,0,-1
 -43 207 l 1,1,-1
 581 207 l 1,2,-1
 581 0 l 1,3,-1
 -43 0 l 1,0,-1
EndSplineSet
EndChar

StartChar: afii57470
Encoding: 1726 1726 480
Width: 1176
Flags: W
AnchorPoint: "Anchor-3" 555 -630 basechar 0
AnchorPoint: "Anchor-2" 525 1440 basechar 0
LayerCount: 2
Fore
SplineSet
-16 0 m 1,0,-1
 -16 207 l 1,1,-1
 137 207 l 1,2,3
 115 344 115 344 129 454.5 c 128,-1,4
 143 565 143 565 183 645 c 128,-1,5
 223 725 223 725 280.5 774 c 128,-1,6
 338 823 338 823 395 844 c 1,7,-1
 385 858 l 1,8,-1
 500 1001 l 1,9,10
 602 946 602 946 708.5 852 c 128,-1,11
 815 758 815 758 903 648.5 c 128,-1,12
 991 539 991 539 1051.5 430.5 c 128,-1,13
 1112 322 1112 322 1112 236 c 0,14,15
 1112 184 1112 184 1083.5 141 c 128,-1,16
 1055 98 1055 98 1008 69.5 c 128,-1,17
 961 41 961 41 904.5 20.5 c 128,-1,18
 848 0 848 0 786 0 c 2,19,-1
 -16 0 l 1,0,-1
594 207 m 1,20,-1
 758 201 l 1,21,22
 891 201 891 201 891 281 c 0,23,24
 891 332 891 332 838.5 416 c 128,-1,25
 786 500 786 500 688 604 c 1,26,-1
 694 545 l 1,27,28
 694 428 694 428 665.5 337 c 128,-1,29
 637 246 637 246 594 207 c 1,20,-1
352 217 m 1,30,31
 395 217 395 217 465 418 c 1,32,33
 494 557 494 557 489.5 622.5 c 128,-1,34
 485 688 485 688 465 688 c 0,35,36
 451 688 451 688 426 662.5 c 128,-1,37
 401 637 401 637 380.5 597 c 128,-1,38
 360 557 360 557 345 514 c 128,-1,39
 330 471 330 471 322 438 c 0,40,41
 313 373 313 373 320.5 315.5 c 128,-1,42
 328 258 328 258 352 217 c 1,30,31
EndSplineSet
Substitution2: "'medi' Medial Forms in Arabic lookup 3 subtable" afii62827
Substitution2: "'fina' Terminal Forms in Arabic lookup 2 subtable" afii62827
Substitution2: "'init' Initial Forms in Arabic lookup 1 subtable" afii57470
EndChar

StartChar: at
Encoding: 64 64 489
Width: 1346
Flags: W
LayerCount: 2
Fore
SplineSet
1274 658 m 0,0,1
 1274 572 1274 572 1245.5 492.5 c 128,-1,2
 1217 413 1217 413 1160 338 c 0,3,4
 1033 175 1033 175 869 175 c 0,5,6
 825 175 825 175 797 203 c 128,-1,7
 769 231 769 231 767 271 c 1,8,-1
 764 271 l 1,9,10
 676 175 676 175 572 175 c 0,11,12
 461 175 461 175 391 259 c 0,13,14
 356 300 356 300 338.5 346.5 c 128,-1,15
 321 393 321 393 321 449 c 0,16,17
 321 619 321 619 420 753 c 0,18,19
 531 899 531 899 697 899 c 0,20,21
 763 899 763 899 811.5 868.5 c 128,-1,22
 860 838 860 838 891 774 c 1,23,-1
 920 871 l 1,24,-1
 1041 871 l 1,25,26
 1021 802 1021 802 1000.5 734.5 c 128,-1,27
 980 667 980 667 960 597 c 0,28,29
 930 494 930 494 915.5 428.5 c 128,-1,30
 901 363 901 363 901 336 c 0,31,32
 901 322 901 322 911.5 308 c 128,-1,33
 922 294 922 294 936 294 c 0,34,35
 983 294 983 294 1024 325.5 c 128,-1,36
 1065 357 1065 357 1099 422 c 0,37,38
 1158 531 1158 531 1158 639 c 0,39,40
 1158 832 1158 832 1022 950 c 0,41,42
 895 1065 895 1065 699 1065 c 0,43,44
 479 1065 479 1065 341 912 c 0,45,46
 203 760 203 760 203 539 c 0,47,48
 203 430 203 430 239.5 338.5 c 128,-1,49
 276 247 276 247 350 175 c 0,50,51
 422 101 422 101 513.5 65 c 128,-1,52
 605 29 605 29 714 29 c 0,53,54
 953 29 953 29 1102 203 c 1,55,-1
 1222 203 l 1,56,57
 1183 138 1183 138 1127 85 c 128,-1,58
 1071 32 1071 32 1003.5 -5.5 c 128,-1,59
 936 -43 936 -43 860.5 -63.5 c 128,-1,60
 785 -84 785 -84 707 -84 c 0,61,62
 439 -84 439 -84 257 98 c 0,63,64
 71 286 71 286 71 549 c 0,65,66
 71 809 71 809 255 992 c 0,67,68
 440 1177 440 1177 699 1177 c 0,69,70
 930 1177 930 1177 1097 1034 c 0,71,72
 1274 887 1274 887 1274 658 c 0,0,1
841 614 m 0,73,74
 841 644 841 644 830.5 671.5 c 128,-1,75
 820 699 820 699 801 720 c 128,-1,76
 782 741 782 741 757 753.5 c 128,-1,77
 732 766 732 766 704 766 c 0,78,79
 652 766 652 766 610 740 c 128,-1,80
 568 714 568 714 530 664 c 0,81,82
 465 569 465 569 465 463 c 0,83,84
 465 431 465 431 474.5 402.5 c 128,-1,85
 484 374 484 374 502 352.5 c 128,-1,86
 520 331 520 331 545.5 318.5 c 128,-1,87
 571 306 571 306 603 306 c 0,88,89
 654 306 654 306 696 334 c 128,-1,90
 738 362 738 362 774 417 c 0,91,92
 809 464 809 464 825 513 c 128,-1,93
 841 562 841 562 841 614 c 0,73,74
EndSplineSet
EndChar

StartChar: A
Encoding: 65 65 490
Width: 992
Flags: W
LayerCount: 2
Fore
SplineSet
746 -63 m 1,0,-1
 746 492 l 1,1,-1
 310 492 l 1,2,-1
 310 644 l 1,3,-1
 746 644 l 1,4,-1
 746 719 l 2,5,6
 746 850 746 850 686 934 c 0,7,8
 617 1024 617 1024 496 1024 c 0,9,10
 373 1024 373 1024 306 934 c 0,11,12
 245 851 245 851 245 719 c 2,13,-1
 245 -63 l 1,14,-1
 83 -63 l 1,15,-1
 83 709 l 2,16,17
 83 909 83 909 190 1034 c 1,18,19
 303 1177 303 1177 496 1177 c 0,20,21
 688 1177 688 1177 802 1034 c 0,22,23
 856 971 856 971 881.5 890 c 128,-1,24
 907 809 907 809 907 709 c 2,25,-1
 907 -63 l 1,26,-1
 746 -63 l 1,0,-1
EndSplineSet
EndChar

StartChar: B
Encoding: 66 66 491
Width: 987
Flags: W
LayerCount: 2
Fore
SplineSet
909 282 m 0,0,1
 909 127 909 127 806 32 c 0,2,3
 754 -15 754 -15 689.5 -39 c 128,-1,4
 625 -63 625 -63 547 -63 c 2,5,-1
 304 -63 l 1,6,-1
 304 91 l 1,7,8
 314 91 314 91 334.5 90.5 c 128,-1,9
 355 90 355 90 378.5 89.5 c 128,-1,10
 402 89 402 89 424.5 88.5 c 128,-1,11
 447 88 447 88 461 88 c 0,12,13
 527 88 527 88 576 96 c 128,-1,14
 625 104 625 104 658 124 c 0,15,16
 746 171 746 171 746 291 c 0,17,18
 746 413 746 413 653 459 c 0,19,20
 620 477 620 477 569 485.5 c 128,-1,21
 518 494 518 494 451 494 c 0,22,23
 438 494 438 494 417 493.5 c 128,-1,24
 396 493 396 493 374 493 c 128,-1,25
 352 493 352 493 332.5 492.5 c 128,-1,26
 313 492 313 492 304 492 c 1,27,-1
 304 644 l 1,28,29
 404 644 404 644 465 647.5 c 128,-1,30
 526 651 526 651 552 658 c 0,31,32
 692 693 692 693 692 830 c 0,33,34
 692 874 692 874 676 910.5 c 128,-1,35
 660 947 660 947 628 975 c 0,36,37
 596 999 596 999 559 1011.5 c 128,-1,38
 522 1024 522 1024 477 1024 c 0,39,40
 365 1024 365 1024 303 961 c 128,-1,41
 241 898 241 898 241 787 c 2,42,-1
 241 -63 l 1,43,-1
 80 -63 l 1,44,-1
 80 802 l 2,45,46
 80 960 80 960 191 1067 c 0,47,48
 306 1177 306 1177 461 1177 c 0,49,50
 630 1177 630 1177 737 1093 c 0,51,52
 853 1000 853 1000 853 838 c 0,53,54
 853 664 853 664 733 591 c 1,55,56
 823 540 823 540 866 462.5 c 128,-1,57
 909 385 909 385 909 282 c 0,0,1
EndSplineSet
EndChar

StartChar: C
Encoding: 67 67 492
Width: 825
Flags: W
LayerCount: 2
Fore
SplineSet
621 -63 m 2,0,1
 367 -63 367 -63 198 117 c 0,2,3
 115 204 115 204 75 311.5 c 128,-1,4
 35 419 35 419 35 547 c 0,5,6
 35 803 35 803 220 980 c 0,7,8
 407 1158 407 1158 666 1158 c 2,9,-1
 793 1158 l 1,10,-1
 793 1002 l 1,11,12
 203 1002 203 1002 203 547 c 0,13,14
 203 278 203 278 377 172 c 0,15,16
 512 91 512 91 793 91 c 1,17,-1
 793 -63 l 1,18,-1
 621 -63 l 2,0,1
EndSplineSet
EndChar

StartChar: D
Encoding: 68 68 493
Width: 1004
Flags: W
LayerCount: 2
Fore
SplineSet
954 547 m 0,0,1
 954 260 954 260 759 91 c 1,2,3
 665 15 665 15 548.5 -24 c 128,-1,4
 432 -63 432 -63 286 -63 c 1,5,-1
 286 91 l 1,6,7
 514 91 514 91 642 200 c 0,8,9
 782 317 782 317 782 547 c 0,10,11
 782 750 782 750 649 874 c 0,12,13
 581 938 581 938 499.5 970 c 128,-1,14
 418 1002 418 1002 315 1002 c 2,15,-1
 218 1002 l 1,16,-1
 218 -63 l 1,17,-1
 56 -63 l 1,18,-1
 56 1158 l 1,19,-1
 360 1158 l 2,20,21
 608 1158 608 1158 780 977 c 0,22,23
 866 888 866 888 910 780.5 c 128,-1,24
 954 673 954 673 954 547 c 0,0,1
EndSplineSet
EndChar

StartChar: E
Encoding: 69 69 494
Width: 806
Flags: W
LayerCount: 2
Fore
SplineSet
651 -63 m 2,0,1
 520 -63 520 -63 409 -19.5 c 128,-1,2
 298 24 298 24 208 109 c 0,3,4
 29 285 29 285 29 547 c 0,5,6
 29 813 29 813 208 983 c 0,7,8
 388 1158 388 1158 651 1158 c 2,9,-1
 780 1158 l 1,10,-1
 780 1002 l 1,11,12
 561 1002 561 1002 410 934 c 0,13,14
 214 840 214 840 197 644 c 1,15,-1
 780 644 l 1,16,-1
 780 492 l 1,17,-1
 197 492 l 1,18,19
 205 374 205 374 253 293 c 128,-1,20
 301 212 301 212 392 164 c 0,21,22
 531 91 531 91 780 91 c 1,23,-1
 780 -63 l 1,24,-1
 651 -63 l 2,0,1
EndSplineSet
EndChar

StartChar: F
Encoding: 70 70 495
Width: 625
Flags: W
LayerCount: 2
Fore
SplineSet
185 467 m 1,0,-1
 185 -63 l 1,1,-1
 24 -63 l 1,2,-1
 24 748 l 2,3,4
 24 841 24 841 46.5 914 c 128,-1,5
 69 987 69 987 117 1041 c 0,6,7
 216 1158 216 1158 399 1158 c 2,8,-1
 599 1158 l 1,9,-1
 599 1002 l 1,10,-1
 401 1002 l 1,11,12
 294 993 294 993 249 948 c 0,13,14
 218 919 218 919 201.5 873 c 128,-1,15
 185 827 185 827 185 764 c 2,16,-1
 185 621 l 1,17,-1
 599 621 l 1,18,-1
 599 467 l 1,19,-1
 185 467 l 1,0,-1
EndSplineSet
EndChar

StartChar: G
Encoding: 71 71 496
Width: 1289
Flags: W
LayerCount: 2
Fore
SplineSet
1265 519 m 1,0,1
 1265 389 1265 389 1222 282 c 128,-1,2
 1179 175 1179 175 1088 88 c 0,3,4
 912 -84 912 -84 653 -84 c 256,5,6
 394 -84 394 -84 208 102 c 0,7,8
 21 291 21 291 21 547 c 0,9,10
 21 807 21 807 208 992 c 0,11,12
 301 1084 301 1084 412 1130.5 c 128,-1,13
 523 1177 523 1177 653 1177 c 0,14,15
 730 1177 730 1177 798.5 1164 c 128,-1,16
 867 1151 867 1151 927 1123 c 0,17,18
 984 1097 984 1097 1039 1056.5 c 128,-1,19
 1094 1016 1094 1016 1151 959 c 1,20,-1
 1043 840 l 1,21,22
 988 886 988 886 944.5 919.5 c 128,-1,23
 901 953 901 953 867 970 c 0,24,25
 816 998 816 998 763 1011 c 128,-1,26
 710 1024 710 1024 653 1024 c 0,27,28
 556 1024 556 1024 473.5 989 c 128,-1,29
 391 954 391 954 325 884 c 0,30,31
 259 815 259 815 225 731 c 128,-1,32
 191 647 191 647 191 547 c 0,33,34
 191 449 191 449 225 365 c 128,-1,35
 259 281 259 281 325 211 c 256,36,37
 391 141 391 141 473.5 106 c 128,-1,38
 556 71 556 71 653 71 c 0,39,40
 833 71 833 71 959 181 c 0,41,42
 1024 238 1024 238 1058 309 c 128,-1,43
 1092 380 1092 380 1097 470 c 1,44,-1
 677 470 l 1,45,-1
 677 623 l 1,46,-1
 1265 623 l 1,47,-1
 1265 519 l 1,48,-1
 1265 519 l 1,0,1
EndSplineSet
EndChar

StartChar: H
Encoding: 72 72 497
Width: 1022
Flags: W
LayerCount: 2
Fore
SplineSet
772 -63 m 1,0,-1
 772 492 l 1,1,-1
 249 492 l 1,2,-1
 249 -63 l 1,3,-1
 86 -63 l 1,4,-1
 86 1158 l 1,5,-1
 249 1158 l 1,6,-1
 249 644 l 1,7,-1
 772 644 l 1,8,-1
 772 1158 l 1,9,-1
 936 1158 l 1,10,-1
 936 -63 l 1,11,-1
 772 -63 l 1,0,-1
EndSplineSet
EndChar

StartChar: I
Encoding: 73 73 498
Width: 347
Flags: W
LayerCount: 2
Fore
SplineSet
91 -63 m 1,0,-1
 91 1158 l 1,1,-1
 255 1158 l 1,2,-1
 255 -63 l 1,3,-1
 91 -63 l 1,0,-1
EndSplineSet
EndChar

StartChar: J
Encoding: 74 74 499
Width: 639
Flags: W
LayerCount: 2
Fore
SplineSet
569 329 m 1,0,1
 569 134 569 134 465.5 35.5 c 128,-1,2
 362 -63 362 -63 151 -63 c 2,3,-1
 66 -63 l 1,4,-1
 66 91 l 1,5,6
 236 91 236 91 304 124 c 0,7,8
 408 171 408 171 408 321 c 2,9,-1
 408 1158 l 1,10,-1
 569 1158 l 1,11,-1
 569 329 l 1,12,-1
 569 329 l 1,0,1
EndSplineSet
EndChar

StartChar: K
Encoding: 75 75 500
Width: 920
Flags: W
LayerCount: 2
Fore
SplineSet
753 873 m 1,0,1
 702 767 702 767 657.5 702.5 c 128,-1,2
 613 638 613 638 576 614 c 1,3,4
 817 551 817 551 817 276 c 2,5,-1
 817 -63 l 1,6,-1
 656 -63 l 1,7,8
 656 -45 656 -45 657 -15.5 c 128,-1,9
 658 14 658 14 660 56 c 0,10,11
 666 140 666 140 666 185 c 0,12,13
 666 325 666 325 623 399 c 0,14,15
 567 492 567 492 433 492 c 2,16,-1
 208 492 l 1,17,-1
 208 -63 l 1,18,-1
 45 -63 l 1,19,-1
 45 1158 l 1,20,-1
 208 1158 l 1,21,-1
 208 644 l 1,22,-1
 331 644 l 2,23,24
 379 644 379 644 422 669.5 c 128,-1,25
 465 695 465 695 505 746 c 0,26,27
 566 822 566 822 621 964 c 2,28,-1
 694 1158 l 1,29,-1
 874 1158 l 1,30,-1
 753 873 l 1,0,1
EndSplineSet
EndChar

StartChar: L
Encoding: 76 76 501
Width: 635
Flags: W
LayerCount: 2
Fore
SplineSet
418 -63 m 2,0,1
 245 -63 245 -63 140 48 c 0,2,3
 88 104 88 104 62.5 174 c 128,-1,4
 37 244 37 244 37 329 c 2,5,-1
 37 1158 l 1,6,-1
 198 1158 l 1,7,-1
 198 371 l 2,8,9
 198 173 198 173 310 118 c 0,10,11
 341 103 341 103 413.5 97 c 128,-1,12
 486 91 486 91 599 91 c 1,13,-1
 599 -63 l 1,14,-1
 418 -63 l 2,0,1
EndSplineSet
EndChar

StartChar: M
Encoding: 77 77 502
Width: 1409
Flags: W
LayerCount: 2
Fore
SplineSet
1208 -63 m 1,0,-1
 1091 927 l 1,1,-1
 1088 927 l 1,2,-1
 830 77 l 2,3,4
 818 39 818 39 809 14.5 c 128,-1,5
 800 -10 800 -10 792 -19 c 0,6,7
 777 -41 777 -41 756 -52 c 128,-1,8
 735 -63 735 -63 704 -63 c 0,9,10
 649 -63 649 -63 619 -17 c 0,11,12
 611 -6 611 -6 602 17.5 c 128,-1,13
 593 41 593 41 582 77 c 2,14,-1
 324 927 l 1,15,-1
 318 927 l 1,16,-1
 203 -63 l 1,17,-1
 35 -63 l 1,18,-1
 175 1047 l 2,19,20
 178 1075 178 1075 189.5 1099 c 128,-1,21
 201 1123 201 1123 218.5 1140.5 c 128,-1,22
 236 1158 236 1158 259 1167.5 c 128,-1,23
 282 1177 282 1177 308 1177 c 0,24,25
 362 1177 362 1177 400.5 1141 c 128,-1,26
 439 1105 439 1105 459 1033 c 2,27,-1
 704 217 l 1,28,-1
 707 217 l 1,29,-1
 954 1033 l 1,30,31
 993 1177 993 1177 1102 1177 c 0,32,33
 1155 1177 1155 1177 1192 1140.5 c 128,-1,34
 1229 1104 1229 1104 1238 1047 c 2,35,-1
 1376 -63 l 1,36,-1
 1208 -63 l 1,0,-1
EndSplineSet
EndChar

StartChar: N
Encoding: 78 78 503
Width: 1084
Flags: W
LayerCount: 2
Fore
SplineSet
983 45 m 1,0,1
 983 -74 983 -74 859 -74 c 0,2,3
 795 -74 795 -74 759 -44 c 0,4,5
 727 -17 727 -17 699 45 c 2,6,-1
 270 938 l 1,7,-1
 265 938 l 1,8,-1
 265 -63 l 1,9,-1
 104 -63 l 1,10,-1
 104 1018 l 2,11,12
 104 1167 104 1167 245 1167 c 0,13,14
 313 1167 313 1167 362 1108 c 0,15,16
 373 1093 373 1093 390 1064 c 128,-1,17
 407 1035 407 1035 430 987 c 2,18,-1
 817 177 l 1,19,-1
 821 177 l 1,20,-1
 821 1158 l 1,21,-1
 983 1158 l 1,22,-1
 983 45 l 1,23,-1
 983 45 l 1,0,1
EndSplineSet
EndChar

StartChar: O
Encoding: 79 79 504
Width: 1380
Flags: W
LayerCount: 2
Fore
SplineSet
1321 547 m 0,0,1
 1321 288 1321 288 1136 102 c 0,2,3
 952 -84 952 -84 690 -84 c 0,4,5
 434 -84 434 -84 243 102 c 0,6,7
 152 196 152 196 105 306.5 c 128,-1,8
 58 417 58 417 58 547 c 256,9,10
 58 677 58 677 105 788 c 128,-1,11
 152 899 152 899 243 992 c 0,12,13
 434 1177 434 1177 690 1177 c 0,14,15
 949 1177 949 1177 1134 992 c 0,16,17
 1229 899 1229 899 1275 788 c 128,-1,18
 1321 677 1321 677 1321 547 c 0,0,1
1151 547 m 0,19,20
 1151 747 1151 747 1018 884 c 0,21,22
 884 1024 884 1024 690 1024 c 256,23,24
 496 1024 496 1024 362 884 c 0,25,26
 229 745 229 745 229 547 c 0,27,28
 229 449 229 449 261 365 c 128,-1,29
 293 281 293 281 360 211 c 0,30,31
 494 71 494 71 690 71 c 0,32,33
 884 71 884 71 1018 211 c 0,34,35
 1151 350 1151 350 1151 547 c 0,19,20
EndSplineSet
EndChar

StartChar: P
Encoding: 80 80 505
Width: 880
Flags: W
LayerCount: 2
Fore
SplineSet
833 787 m 0,0,1
 833 711 833 711 810 643.5 c 128,-1,2
 787 576 787 576 739 519 c 0,3,4
 642 399 642 399 494 399 c 2,5,-1
 274 399 l 1,6,-1
 274 552 l 1,7,8
 377 552 377 552 443 556.5 c 128,-1,9
 509 561 509 561 540 572 c 0,10,11
 671 618 671 618 671 787 c 0,12,13
 671 839 671 839 653.5 882.5 c 128,-1,14
 636 926 636 926 605 957.5 c 128,-1,15
 574 989 574 989 530.5 1006.5 c 128,-1,16
 487 1024 487 1024 436 1024 c 0,17,18
 384 1024 384 1024 342.5 1005 c 128,-1,19
 301 986 301 986 271.5 953 c 128,-1,20
 242 920 242 920 226.5 874 c 128,-1,21
 211 828 211 828 211 774 c 2,22,-1
 211 -63 l 1,23,-1
 48 -63 l 1,24,-1
 48 753 l 2,25,26
 48 929 48 929 151 1050 c 0,27,28
 261 1177 261 1177 436 1177 c 0,29,30
 605 1177 605 1177 718 1065 c 0,31,32
 775 1010 775 1010 804 941 c 128,-1,33
 833 872 833 872 833 787 c 0,0,1
EndSplineSet
EndChar

StartChar: Q
Encoding: 81 81 506
Width: 1380
Flags: W
LayerCount: 2
Fore
SplineSet
1321 547 m 0,0,1
 1321 437 1321 437 1284 337 c 128,-1,2
 1247 237 1247 237 1170 144 c 0,3,4
 1024 -40 1024 -40 806 -70 c 1,5,-1
 806 -315 l 1,6,-1
 642 -315 l 1,7,-1
 642 334 l 1,8,-1
 806 334 l 1,9,-1
 806 84 l 1,10,11
 963 121 963 121 1061 255 c 0,12,13
 1106 318 1106 318 1128.5 391.5 c 128,-1,14
 1151 465 1151 465 1151 547 c 0,15,16
 1151 747 1151 747 1018 884 c 0,17,18
 884 1024 884 1024 690 1024 c 256,19,20
 496 1024 496 1024 362 884 c 0,21,22
 229 745 229 745 229 547 c 0,23,24
 229 392 229 392 318 259 c 0,25,26
 369 187 369 187 429.5 144.5 c 128,-1,27
 490 102 490 102 565 88 c 1,28,-1
 565 -70 l 1,29,30
 346 -27 346 -27 200 146 c 1,31,32
 58 324 58 324 58 547 c 0,33,34
 58 677 58 677 105 788 c 128,-1,35
 152 899 152 899 243 992 c 0,36,37
 434 1177 434 1177 690 1177 c 0,38,39
 949 1177 949 1177 1134 992 c 0,40,41
 1229 899 1229 899 1275 788 c 128,-1,42
 1321 677 1321 677 1321 547 c 0,0,1
EndSplineSet
EndChar

StartChar: R
Encoding: 82 82 507
Width: 989
Flags: W
LayerCount: 2
Fore
SplineSet
728 -63 m 1,0,1
 728 -31 728 -31 728 6.5 c 128,-1,2
 728 44 728 44 730 88 c 0,3,4
 732 133 732 133 733.5 164 c 128,-1,5
 735 195 735 195 735 210 c 0,6,7
 735 380 735 380 666 424 c 0,8,9
 597 470 597 470 331 470 c 1,10,-1
 331 623 l 1,11,12
 422 623 422 623 484 628 c 128,-1,13
 546 633 546 633 578 642 c 0,14,15
 709 685 709 685 709 825 c 0,16,17
 709 868 709 868 692 904.5 c 128,-1,18
 675 941 675 941 646 967.5 c 128,-1,19
 617 994 617 994 579 1009 c 128,-1,20
 541 1024 541 1024 498 1024 c 0,21,22
 446 1024 446 1024 402.5 1006.5 c 128,-1,23
 359 989 359 989 327.5 958 c 128,-1,24
 296 927 296 927 278.5 884 c 128,-1,25
 261 841 261 841 261 790 c 2,26,-1
 261 -63 l 1,27,-1
 98 -63 l 1,28,-1
 98 745 l 2,29,30
 98 935 98 935 206 1054 c 1,31,32
 311 1177 311 1177 498 1177 c 0,33,34
 651 1177 651 1177 759 1081 c 0,35,36
 871 982 871 982 871 830 c 0,37,38
 871 648 871 648 730 559 c 1,39,40
 827 522 827 522 860 449 c 1,41,42
 893 387 893 387 893 278 c 2,43,-1
 893 -63 l 1,44,-1
 728 -63 l 1,0,1
EndSplineSet
EndChar

StartChar: S
Encoding: 83 83 508
Width: 893
Flags: W
LayerCount: 2
Fore
SplineSet
838 263 m 0,0,1
 838 188 838 188 814 127.5 c 128,-1,2
 790 67 790 67 746 24.5 c 128,-1,3
 702 -18 702 -18 640 -40.5 c 128,-1,4
 578 -63 578 -63 502 -63 c 2,5,-1
 58 -63 l 1,6,-1
 58 91 l 1,7,8
 72 91 72 91 103 89 c 128,-1,9
 134 87 134 87 185 84 c 0,10,11
 238 81 238 81 279.5 79 c 128,-1,12
 321 77 321 77 354 77 c 0,13,14
 675 77 675 77 675 251 c 0,15,16
 675 350 675 350 515 436 c 2,17,-1
 224 586 l 1,18,19
 66 693 66 693 66 850 c 0,20,21
 66 922 66 922 90.5 979 c 128,-1,22
 115 1036 115 1036 159 1075.5 c 128,-1,23
 203 1115 203 1115 264 1136.5 c 128,-1,24
 325 1158 325 1158 399 1158 c 2,25,-1
 782 1158 l 1,26,-1
 782 1002 l 1,27,28
 755 1002 755 1002 658 1008 c 0,29,30
 608 1013 608 1013 569.5 1015.5 c 128,-1,31
 531 1018 531 1018 505 1018 c 0,32,33
 229 1018 229 1018 229 855 c 0,34,35
 229 770 229 770 386 686 c 2,36,-1
 677 533 l 1,37,38
 756 477 756 477 797 410 c 128,-1,39
 838 343 838 343 838 263 c 0,0,1
EndSplineSet
EndChar

StartChar: T
Encoding: 84 84 509
Width: 686
Flags: W
LayerCount: 2
Fore
SplineSet
424 1002 m 1,0,-1
 424 -63 l 1,1,-1
 263 -63 l 1,2,-1
 263 1002 l 1,3,-1
 -37 1002 l 1,4,-1
 -37 1158 l 1,5,-1
 723 1158 l 1,6,-1
 723 1002 l 1,7,-1
 424 1002 l 1,0,-1
EndSplineSet
EndChar

StartChar: U
Encoding: 85 85 510
Width: 994
Flags: W
LayerCount: 2
Fore
SplineSet
897 338 m 1,0,1
 897 166 897 166 782 41 c 0,2,3
 725 -23 725 -23 654 -53.5 c 128,-1,4
 583 -84 583 -84 496 -84 c 256,5,6
 409 -84 409 -84 338.5 -53.5 c 128,-1,7
 268 -23 268 -23 211 41 c 0,8,9
 98 168 98 168 98 338 c 2,10,-1
 98 1158 l 1,11,-1
 261 1158 l 1,12,-1
 261 356 l 2,13,14
 261 234 261 234 315 158 c 0,15,16
 347 113 347 113 392 92 c 128,-1,17
 437 71 437 71 496 71 c 0,18,19
 554 71 554 71 599 92 c 128,-1,20
 644 113 644 113 677 158 c 0,21,22
 735 235 735 235 735 356 c 2,23,-1
 735 1158 l 1,24,-1
 897 1158 l 1,25,-1
 897 338 l 1,26,-1
 897 338 l 1,0,1
EndSplineSet
EndChar

StartChar: V
Encoding: 86 86 511
Width: 989
Flags: W
LayerCount: 2
Fore
SplineSet
649 60 m 2,0,1
 604 -84 604 -84 505 -84 c 0,2,3
 407 -84 407 -84 358 60 c 2,4,-1
 -9 1158 l 1,5,-1
 160 1158 l 1,6,-1
 499 148 l 1,7,-1
 505 148 l 1,8,-1
 833 1158 l 1,9,-1
 998 1158 l 1,10,-1
 649 60 l 2,0,1
EndSplineSet
EndChar

StartChar: W
Encoding: 87 87 512
Width: 1566
Flags: W
LayerCount: 2
Fore
SplineSet
1462 304 m 1,0,1
 1462 223 1462 223 1438 155 c 128,-1,2
 1414 87 1414 87 1367 32 c 0,3,4
 1263 -84 1263 -84 1107 -84 c 0,5,6
 995 -84 995 -84 914.5 -44 c 128,-1,7
 834 -4 834 -4 780 76 c 1,8,9
 677 -84 677 -84 457 -84 c 0,10,11
 299 -84 299 -84 198 32 c 0,12,13
 98 141 98 141 98 304 c 2,14,-1
 98 1158 l 1,15,-1
 263 1158 l 1,16,-1
 263 304 l 2,17,18
 263 251 263 251 278 208.5 c 128,-1,19
 293 166 293 166 321 135 c 128,-1,20
 349 104 349 104 389.5 87.5 c 128,-1,21
 430 71 430 71 481 71 c 0,22,23
 533 71 533 71 574 87.5 c 128,-1,24
 615 104 615 104 643.5 135 c 128,-1,25
 672 166 672 166 686.5 208.5 c 128,-1,26
 701 251 701 251 701 304 c 2,27,-1
 701 1158 l 1,28,-1
 862 1158 l 1,29,-1
 862 304 l 2,30,31
 862 251 862 251 877 208.5 c 128,-1,32
 892 166 892 166 920.5 135 c 128,-1,33
 949 104 949 104 990 87.5 c 128,-1,34
 1031 71 1031 71 1082 71 c 0,35,36
 1134 71 1134 71 1174.5 87.5 c 128,-1,37
 1215 104 1215 104 1243 135 c 128,-1,38
 1271 166 1271 166 1285.5 208.5 c 128,-1,39
 1300 251 1300 251 1300 304 c 2,40,-1
 1300 1158 l 1,41,-1
 1462 1158 l 1,42,-1
 1462 304 l 1,43,-1
 1462 304 l 1,0,1
EndSplineSet
EndChar

StartChar: X
Encoding: 88 88 513
Width: 1018
Flags: W
LayerCount: 2
Fore
SplineSet
980 -63 m 1,0,1
 898 -61 898 -61 824.5 -37.5 c 128,-1,2
 751 -14 751 -14 686 32 c 0,3,4
 615 81 615 81 572 144 c 128,-1,5
 529 207 529 207 510 286 c 1,6,-1
 506 286 l 1,7,8
 472 131 472 131 331 32 c 0,9,10
 266 -14 266 -14 192.5 -37.5 c 128,-1,11
 119 -61 119 -61 37 -63 c 1,12,-1
 37 91 l 1,13,14
 124 91 124 91 195.5 126 c 128,-1,15
 267 161 267 161 321 234 c 0,16,17
 372 302 372 302 396 380.5 c 128,-1,18
 420 459 420 459 420 547 c 0,19,20
 420 637 420 637 396 713.5 c 128,-1,21
 372 790 372 790 321 855 c 0,22,23
 267 930 267 930 195.5 966 c 128,-1,24
 124 1002 124 1002 37 1002 c 1,25,-1
 37 1158 l 1,26,27
 119 1155 119 1155 192.5 1131 c 128,-1,28
 266 1107 266 1107 331 1063 c 0,29,30
 472 965 472 965 506 809 c 1,31,-1
 510 809 l 1,32,33
 529 887 529 887 572 950.5 c 128,-1,34
 615 1014 615 1014 686 1063 c 0,35,36
 751 1107 751 1107 824.5 1131 c 128,-1,37
 898 1155 898 1155 980 1158 c 1,38,-1
 980 1002 l 1,39,40
 804 1002 804 1002 697 855 c 1,41,42
 597 727 597 727 597 547 c 0,43,44
 597 459 597 459 621.5 380.5 c 128,-1,45
 646 302 646 302 697 234 c 0,46,47
 751 161 751 161 821.5 126 c 128,-1,48
 892 91 892 91 980 91 c 1,49,-1
 980 -63 l 1,50,-1
 980 -63 l 1,0,1
EndSplineSet
EndChar

StartChar: Y
Encoding: 89 89 514
Width: 901
Flags: W
LayerCount: 2
Fore
SplineSet
841 787 m 1,0,1
 841 716 841 716 819 655.5 c 128,-1,2
 797 595 797 595 756 547 c 128,-1,3
 715 499 715 499 657.5 466 c 128,-1,4
 600 433 600 433 530 417 c 1,5,-1
 530 -63 l 1,6,-1
 366 -63 l 1,7,-1
 366 417 l 1,8,9
 297 433 297 433 241 467 c 128,-1,10
 185 501 185 501 144.5 549 c 128,-1,11
 104 597 104 597 82 657.5 c 128,-1,12
 60 718 60 718 60 787 c 2,13,-1
 60 1158 l 1,14,-1
 222 1158 l 1,15,16
 222 1140 222 1140 220.5 1109 c 128,-1,17
 219 1078 219 1078 217 1033 c 0,18,19
 211 946 211 946 211 897 c 0,20,21
 211 821 211 821 222.5 763.5 c 128,-1,22
 234 706 234 706 255 668 c 0,23,24
 313 569 313 569 452 569 c 0,25,26
 594 569 594 569 646 668 c 0,27,28
 690 745 690 745 690 897 c 0,29,30
 690 921 690 921 688 955 c 128,-1,31
 686 989 686 989 683 1033 c 0,32,33
 681 1078 681 1078 680 1109 c 128,-1,34
 679 1140 679 1140 679 1158 c 1,35,-1
 841 1158 l 1,36,-1
 841 787 l 1,37,-1
 841 787 l 1,0,1
EndSplineSet
EndChar

StartChar: Z
Encoding: 90 90 515
Width: 802
Flags: W
LayerCount: 2
Fore
SplineSet
129 -63 m 2,0,1
 102 -63 102 -63 78.5 -54.5 c 128,-1,2
 55 -46 55 -46 37 -30 c 128,-1,3
 19 -14 19 -14 8.5 7.5 c 128,-1,4
 -2 29 -2 29 -2 56 c 0,5,6
 -2 135 -2 135 74 241 c 2,7,-1
 618 1002 l 1,8,-1
 62 1002 l 1,9,-1
 62 1158 l 1,10,-1
 642 1158 l 2,11,12
 785 1158 785 1158 785 1052 c 0,13,14
 785 967 785 967 714 864 c 2,15,-1
 175 91 l 1,16,-1
 804 91 l 1,17,-1
 804 -63 l 1,18,-1
 129 -63 l 2,0,1
EndSplineSet
EndChar

StartChar: a
Encoding: 97 97 516
Width: 996
Flags: W
LayerCount: 2
Fore
SplineSet
769 -63 m 1,0,-1
 769 405 l 2,1,2
 769 518 769 518 687 584 c 0,3,4
 617 644 617 644 499 644 c 0,5,6
 439 644 439 644 389 621.5 c 128,-1,7
 339 599 339 599 303.5 559 c 128,-1,8
 268 519 268 519 248.5 465.5 c 128,-1,9
 229 412 229 412 229 351 c 0,10,11
 229 237 229 237 306 151 c 0,12,13
 385 66 385 66 498 66 c 0,14,15
 558 66 558 66 609.5 94 c 128,-1,16
 661 122 661 122 707 179 c 1,17,-1
 707 0 l 1,18,19
 653 -41 653 -41 598 -60.5 c 128,-1,20
 543 -80 543 -80 483 -80 c 0,21,22
 304 -80 304 -80 188 54 c 0,23,24
 131 117 131 117 103.5 194 c 128,-1,25
 76 271 76 271 76 365 c 0,26,27
 76 461 76 461 105 536.5 c 128,-1,28
 134 612 134 612 193 673 c 0,29,30
 313 792 313 792 505 792 c 0,31,32
 598 792 598 792 674.5 764.5 c 128,-1,33
 751 737 751 737 805.5 686 c 128,-1,34
 860 635 860 635 890 561.5 c 128,-1,35
 920 488 920 488 920 395 c 2,36,-1
 920 -63 l 1,37,-1
 769 -63 l 1,0,-1
EndSplineSet
EndChar

